<?xml version="1.0" standalone="no"?>
<!DOCTYPE svg PUBLIC "-//W3C//DTD SVG 20010904//EN"
 "http://www.w3.org/TR/2001/REC-SVG-20010904/DTD/svg10.dtd">
<svg version="1.0" xmlns="http://www.w3.org/2000/svg"
 width="64.000000pt" height="64.000000pt" viewBox="0 0 64.000000 64.000000"
 preserveAspectRatio="xMidYMid meet">
<metadata>
Created by potrace 1.11, written by Peter Selinger 2001-2013
</metadata>
<g transform="translate(0.000000,64.000000) scale(0.100000,-0.100000)"
fill="#000000" stroke="none">
<path d="M34 321 l1 -206 115 0 c107 0 115 1 115 20 0 18 -7 19 -92 19 -51 0
-93 3 -94 6 0 3 -1 34 -2 70 l-1 65 77 3 c69 3 77 5 77 22 0 18 -7 20 -75 20
-43 0 -75 4 -76 10 0 6 -1 35 -1 65 0 30 1 59 1 63 1 5 43 8 94 8 86 -1 92 0
92 19 0 19 -7 20 -116 21 l-116 1 1 -206z"/>
<path d="M370 322 c0 -201 1 -208 20 -209 22 -2 22 0 21 197 l-1 95 80 -135
c85 -145 99 -165 108 -155 4 3 7 96 7 205 0 159 -2 201 -13 205 -8 3 -18 3
-23 0 -4 -3 -7 -69 -6 -145 1 -77 -1 -140 -5 -140 -5 0 -8 4 -8 9 0 5 -17 38
-38 72 -21 35 -53 91 -71 124 -37 68 -50 85 -62 85 -5 0 -9 -94 -9 -208z"/>
</g>
</svg>
