<?xml version="1.0" standalone="no"?>
<!DOCTYPE svg PUBLIC "-//W3C//DTD SVG 20010904//EN"
 "http://www.w3.org/TR/2001/REC-SVG-20010904/DTD/svg10.dtd">
<svg version="1.0" xmlns="http://www.w3.org/2000/svg"
 width="700.000000pt" height="700.000000pt" viewBox="0 0 700.000000 700.000000"
 preserveAspectRatio="xMidYMid meet">
<metadata>
Created by potrace 1.11, written by Peter Selinger 2001-2013
</metadata>
<g transform="translate(0.000000,700.000000) scale(0.100000,-0.100000)"
fill="#000000" stroke="none">
<path d="M3329 6966 c-2 -2 -44 -7 -94 -10 -106 -8 -128 -11 -260 -31 -88 -14
-125 -22 -210 -41 -11 -3 -31 -7 -45 -10 -122 -23 -402 -118 -585 -197 -214
-93 -552 -290 -695 -407 -10 -8 -27 -22 -37 -30 -10 -8 -38 -31 -63 -50 -80
-62 -102 -83 -260 -240 -208 -207 -381 -426 -510 -645 -29 -49 -60 -101 -69
-115 -19 -28 -117 -227 -154 -310 -60 -136 -172 -474 -193 -584 -5 -27 -10
-50 -22 -106 -6 -25 -13 -63 -16 -85 -4 -22 -8 -47 -11 -55 -2 -8 -7 -46 -10
-85 -4 -38 -8 -72 -11 -76 -15 -25 -23 -449 -11 -629 7 -113 10 -139 33 -295
16 -117 69 -347 106 -465 109 -348 231 -607 423 -900 220 -334 503 -636 810
-863 50 -37 95 -71 102 -77 11 -9 114 -77 145 -95 131 -77 207 -120 273 -153
89 -45 234 -112 242 -112 3 0 19 -6 36 -14 41 -18 186 -70 257 -91 30 -9 66
-21 80 -25 37 -13 189 -48 278 -65 42 -8 88 -17 102 -20 29 -6 157 -22 250
-33 111 -12 587 -8 695 6 142 19 316 49 415 72 47 12 96 23 109 26 13 3 67 19
120 35 332 106 632 249 906 433 66 44 122 83 125 86 3 3 34 27 70 55 36 27 70
54 76 60 6 5 53 46 103 89 50 43 91 82 91 85 0 4 -13 28 -30 54 -16 26 -30 49
-30 51 0 2 -66 118 -146 257 -81 140 -158 274 -172 299 -14 25 -65 114 -113
198 -49 84 -89 155 -89 157 0 3 -16 29 -35 59 -19 30 -35 57 -35 60 0 5 -71
129 -99 176 -6 8 -42 72 -82 143 -40 70 -75 127 -78 127 -3 0 -6 -387 -6 -860
l0 -859 -185 2 -185 2 -1 1358 c0 1226 1 1359 15 1366 9 4 61 7 115 6 l99 -1
155 -269 c85 -149 166 -290 180 -315 14 -25 68 -119 120 -210 52 -91 106 -186
121 -211 14 -25 114 -200 221 -387 l195 -341 5 867 5 867 180 0 180 0 5 -1130
5 -1130 91 125 c88 123 117 165 140 205 6 11 30 50 53 88 124 201 260 519 340
792 34 116 77 305 86 382 2 12 6 34 9 50 40 201 50 632 20 898 -63 566 -263
1111 -578 1575 -46 68 -74 106 -154 210 -61 78 -163 191 -267 296 -497 499
-1144 837 -1835 958 -124 22 -156 27 -208 32 -26 2 -67 7 -92 10 -50 6 -505
15 -511 10z m762 -3426 c1 -62 0 -267 0 -291 -1 -13 -64 -15 -595 -15 -327 1
-603 -1 -613 -4 -17 -5 -18 -27 -18 -412 0 -356 2 -408 15 -409 8 0 231 -1
495 -2 l480 -2 3 -177 2 -178 -32 -1 c-18 0 -241 0 -495 0 -349 0 -462 -3
-465 -12 -2 -7 -4 -192 -4 -412 l1 -400 609 -2 c335 -1 611 -4 613 -7 4 -4 6
-145 4 -308 l-1 -47 -797 2 -798 2 -1 1355 c0 745 1 1360 3 1365 2 7 277 10
798 10 l795 0 1 -55z"/>
</g>
</svg>
