<?xml version="1.0" encoding="UTF-8"?>
<svg width="48px" height="47px" viewBox="0 0 48 47" version="1.1" xmlns="http://www.w3.org/2000/svg" xmlns:xlink="http://www.w3.org/1999/xlink">
    <!-- Generator: Sketch 44 (41411) - http://www.bohemiancoding.com/sketch -->
    <title>Group 2</title>
    <desc>Created with Sketch.</desc>
    <defs></defs>
    <g id="Welcome" stroke="none" stroke-width="1" fill="none" fill-rule="evenodd">
        <g id="Desktop-HD-Copy-2" transform="translate(-1071.000000, -2526.000000)">
            <g id="Group-2" transform="translate(1071.000000, 2526.000000)">
                <ellipse id="Oval-3" fill="#3B4247" cx="24.182963" cy="23.4030267" rx="23.4607509" ry="22.65674"></ellipse>
                <path d="M11.4471268,17.7818111 L11.4471268,30.5671628 L19.4126282,24.174487 L11.4471268,17.7818111 Z M27.8926574,24.8621616 L24.5100193,27.576882 C24.3918307,27.6717337 24.2359441,27.7191595 24.0810763,27.7191595 C23.9262086,27.7191595 23.7703219,27.6717337 23.6521334,27.576882 L20.2694953,24.8621616 L12.0034281,31.4976905 C12.2072015,31.6121666 12.4425598,31.6939353 12.7105218,31.6939353 L35.4516309,31.6939353 C35.7195929,31.6939353 35.9549511,31.6121666 36.1587245,31.4976905 L27.8926574,24.8621616 Z M24.0810763,26.5441435 L36.4063092,16.6525856 C36.1740075,16.4309924 35.8398192,16.2821734 35.4516309,16.2821734 L12.7105218,16.2821734 C12.3223335,16.2821734 11.9881451,16.4309924 11.7558435,16.6525856 L24.0810763,26.5441435 Z M36.7150259,17.7818111 L36.7150259,30.5671628 L28.7495245,24.174487 L36.7150259,17.7818111 Z" id="Fill-1" fill="#FFFFFF"></path>
            </g>
        </g>
    </g>
</svg>