<?xml version="1.0" encoding="UTF-8"?>
<svg width="59px" height="57px" viewBox="0 0 59 57" version="1.1" xmlns="http://www.w3.org/2000/svg" xmlns:xlink="http://www.w3.org/1999/xlink">
    <!-- Generator: Sketch 45.2 (43514) - http://www.bohemiancoding.com/sketch -->
    <title>email</title>
    <desc>Created with Sketch.</desc>
    <defs></defs>
    <g id="Welcome" stroke="none" stroke-width="1" fill="none" fill-rule="evenodd">
        <g id="Desktop-HD-Copy-2" transform="translate(-1032.000000, -2356.000000)">
            <g id="email" transform="translate(1032.000000, 2356.000000)">
                <ellipse id="Oval-3" fill="#42474B" cx="29.5630493" cy="28.5883365" rx="28.9936251" ry="28"></ellipse>
                <path d="M13.8236529,21.6414396 L13.8236529,37.4420291 L23.667701,29.5417343 L13.8236529,21.6414396 Z M34.1476208,30.391587 L29.967237,33.7465343 C29.8211755,33.8637554 29.6285252,33.9223659 29.4371342,33.9223659 C29.2457431,33.9223659 29.0530929,33.8637554 28.9070313,33.7465343 L24.7266476,30.391587 L14.5111497,38.592008 C14.76298,38.7334817 15.0538441,38.8345343 15.385001,38.8345343 L43.4892674,38.8345343 C43.8204243,38.8345343 44.1112883,38.7334817 44.3631187,38.592008 L34.1476208,30.391587 Z M29.4371342,32.4702396 L44.6690925,20.2459028 C44.3820059,19.9720501 43.9690042,19.7881343 43.4892674,19.7881343 L15.385001,19.7881343 C14.9052642,19.7881343 14.4922624,19.9720501 14.2051758,20.2459028 L29.4371342,32.4702396 Z M45.0506155,21.6414396 L45.0506155,37.4420291 L35.2065674,29.5417343 L45.0506155,21.6414396 Z" id="Fill-1" fill="#FFFFFF"></path>
            </g>
        </g>
    </g>
</svg>