<?xml version="1.0" encoding="UTF-8"?>
<svg width="48px" height="47px" viewBox="0 0 48 47" version="1.1" xmlns="http://www.w3.org/2000/svg" xmlns:xlink="http://www.w3.org/1999/xlink">
    <!-- Generator: Sketch 44 (41411) - http://www.bohemiancoding.com/sketch -->
    <title>Group 12</title>
    <desc>Created with Sketch.</desc>
    <defs></defs>
    <g id="Welcome" stroke="none" stroke-width="1" fill="none" fill-rule="evenodd">
        <g id="Desktop-HD-Copy-2" transform="translate(-1199.000000, -2526.000000)">
            <g id="Group-12" transform="translate(1199.000000, 2526.000000)">
                <ellipse id="Oval-3" fill="#3B4247" cx="24.4072873" cy="23.4030267" rx="23.4607509" ry="22.65674"></ellipse>
                <path d="M16.4273409,10.6594257 C17.0875093,10.7219943 17.6534182,10.8899964 18.2075228,11.1019002 C19.1171703,11.4498303 19.9579293,11.924799 20.7717317,12.4483361 C20.8346301,12.4887811 20.8894239,12.5017442 20.9635981,12.4823859 C22.046084,12.1996171 23.1486551,12.0376645 24.2653211,11.9674908 C25.285261,11.9035394 26.3036153,11.9327497 27.3195029,12.0428498 C28.1352435,12.1311718 28.9411176,12.2756674 29.7348348,12.4813489 C29.8125328,12.5015713 29.869617,12.4880897 29.934982,12.4450521 C30.5565657,12.0355904 31.2029916,11.6688206 31.883069,11.3602983 C32.5989121,11.0353561 33.3351928,10.7767851 34.1248579,10.6893273 C34.215065,10.6794753 34.3052722,10.6694505 34.3954793,10.6594257 L34.6229353,10.6594257 C34.7519033,10.684142 34.8803428,10.7117967 35.0100156,10.7325377 C35.0780233,10.7434267 35.1093844,10.7793778 35.1338743,10.8400452 C35.4557658,11.6401289 35.6619033,12.4647561 35.7075354,13.3265442 C35.7475296,14.0823805 35.667365,14.822661 35.4310998,15.5441018 C35.4064338,15.6194607 35.4171811,15.6668193 35.4679226,15.7254126 C36.6154211,17.0524903 37.1843253,18.5932002 37.2137483,20.3273199 C37.2206196,20.7324606 37.2017677,21.1388111 37.1790397,21.5436061 C37.1369313,22.2963312 37.0185344,23.0383402 36.8183872,23.7670403 C36.5437135,24.7671017 36.1117058,25.6921499 35.4566467,26.5102091 C34.629278,27.5438018 33.5601822,28.2519338 32.324767,28.7298408 C31.4589896,29.0648078 30.5611465,29.285008 29.6412802,29.4206886 C29.5190072,29.4386641 29.3976151,29.4616521 29.2753421,29.4825659 C29.3865154,29.6633582 29.4996267,29.8279034 29.5930052,30.0024734 C29.9853711,30.7356674 30.1525715,31.527109 30.161557,32.3467238 C30.1735376,33.4434037 30.1569762,33.4502493 30.1529239,34.547102 C30.1508097,35.1513562 30.161557,35.1828677 30.1529239,35.7734655 C30.1396133,36.6840517 29.3189586,38.1632512 27.0024704,38.1632512 C25.9183274,38.1632512 26.0710344,38.1632512 23.7456531,38.1632512 C21.4202719,38.1632512 20.5581945,36.5279812 20.5581945,35.7734655 C20.5581945,34.9277327 20.5455091,35.7173076 20.5386378,34.8715938 C20.4884249,34.7784321 20.4697492,34.7811976 20.4510735,34.7844816 C19.7135595,34.9101374 18.9737551,34.9543849 18.2270794,34.8688283 C17.4929129,34.7844816 16.8029691,34.575689 16.1745142,34.1899065 C15.3910157,33.7088884 14.8155926,33.0526089 14.4713255,32.2079321 C14.2717069,31.718099 14.041432,31.2443402 13.7362781,30.8086066 C13.4392287,30.3841076 13.0970758,30.0035104 12.648859,29.7229886 C12.4524117,29.600271 12.2577264,29.4721954 12.0767835,29.3289097 C11.8287138,29.1323888 11.5878677,28.9241147 11.4994224,28.6026294 C11.5297264,28.4714426 11.5461117,28.3952195 11.5935057,28.3616882 C11.7041504,28.283391 11.8225473,28.2019826 11.9506344,28.1639574 C12.5981174,27.9721033 13.236615,28.0275854 13.856613,28.2794156 C14.7063574,28.6245803 15.3402741,29.218464 15.8277804,29.9703249 C16.0453699,30.3056375 16.2685974,30.6343822 16.5564851,30.9168054 C17.128032,31.4776763 17.8170949,31.7820504 18.6236738,31.8223225 C19.2937086,31.8558537 19.9336156,31.7174076 20.5541422,31.4771578 C20.6170406,31.4527872 20.6276117,31.4111323 20.6376543,31.3577243 C20.7581654,30.7140622 20.9829786,30.1115364 21.3730541,29.5745176 C21.3887346,29.5527396 21.40142,29.5287146 21.4202719,29.4979488 C21.2451431,29.4701213 21.0804094,29.4452321 20.916028,29.4177503 C20.0876021,29.279477 19.2750329,29.0839932 18.4894201,28.7854958 C17.5774821,28.4389484 16.7400708,27.9715848 16.0127755,27.3256757 C15.162855,26.5710494 14.5585375,25.6532605 14.1547195,24.6048035 C13.8190854,23.733509 13.6325046,22.8297204 13.5470545,21.9041537 C13.4769325,21.1439964 13.4483904,20.3836662 13.5287311,19.622299 C13.6076624,18.874932 13.8012907,18.1572937 14.1090874,17.4695571 C14.3915133,16.8386853 14.766613,16.2643327 15.2220534,15.7406227 C15.2749092,15.6797824 15.2983419,15.6296584 15.269095,15.5444475 C15.0988995,15.048565 15.0169731,14.535744 14.9900166,14.0144537 C14.935399,12.9526879 15.1341367,11.9322311 15.525974,10.9454785 C15.545883,10.8953545 15.5901057,10.8390081 15.6376759,10.8179214 C15.7768627,10.7563898 15.9234493,10.7111053 16.067217,10.6594257 L16.4273409,10.6594257 Z" id="Fill-1" fill="#FFFFFF"></path>
            </g>
        </g>
    </g>
</svg>