<?xml version="1.0" encoding="UTF-8"?>
<svg width="59px" height="57px" viewBox="0 0 59 57" version="1.1" xmlns="http://www.w3.org/2000/svg" xmlns:xlink="http://www.w3.org/1999/xlink">
    <!-- Generator: Sketch 45.2 (43514) - http://www.bohemiancoding.com/sketch -->
    <title>github</title>
    <desc>Created with Sketch.</desc>
    <defs></defs>
    <g id="Welcome" stroke="none" stroke-width="1" fill="none" fill-rule="evenodd">
        <g id="Desktop-HD-Copy-2" transform="translate(-1191.000000, -2356.000000)">
            <g id="github" transform="translate(1191.000000, 2356.000000)">
                <ellipse id="Oval-3" fill="#42474B" cx="29.027201" cy="28.5883365" rx="28.9936251" ry="28"></ellipse>
                <path d="M19.1653011,12.839344 C19.9811606,12.9166685 20.6805309,13.1242914 21.3653128,13.3861695 C22.4894875,13.8161539 23.5285271,14.403137 24.5342529,15.0501427 C24.6119849,15.100126 24.679701,15.1161462 24.7713682,15.0922226 C26.1091425,14.7427669 27.4717389,14.5426202 28.8517541,14.4558971 C30.1122319,14.3768637 31.3707501,14.4129627 32.62622,14.5490283 C33.6343409,14.6581798 34.6302686,14.8367526 35.6111725,15.090941 C35.7071944,15.1159326 35.7777411,15.0992716 35.8585214,15.0460842 C36.6266965,14.540057 37.4255725,14.0867898 38.2660362,13.7055071 C39.1507005,13.3039321 40.0606222,12.9843809 41.0365181,12.8762974 C41.1479993,12.864122 41.2594805,12.851733 41.3709617,12.839344 L41.6520598,12.839344 C41.811443,12.8698893 41.9701731,12.9040659 42.1304273,12.9296983 C42.2144737,12.9431554 42.2532308,12.987585 42.2834962,13.0625599 C42.6813012,14.0513316 42.9360531,15.070435 42.992447,16.1354633 C43.0418732,17.0695525 42.942803,17.9844173 42.6508181,18.8759993 C42.6203349,18.9691305 42.6336169,19.027658 42.696325,19.1000696 C44.1144442,20.7401192 44.817516,22.6441829 44.8538781,24.7872693 C44.8623698,25.2879564 44.839072,25.7901388 44.8109839,26.2903988 C44.7589449,27.2206431 44.6126258,28.137644 44.3652769,29.0381973 C44.0258254,30.2741086 43.491935,31.4173158 42.6823899,32.4283023 C41.6598983,33.7056527 40.3386719,34.5807872 38.8119021,35.1714016 C37.7419439,35.5853656 36.6323577,35.8574968 35.4955543,36.0251757 C35.344445,36.0473905 35.1944245,36.0757998 35.0433152,36.1016459 C35.180707,36.3250754 35.320494,36.5284262 35.4358945,36.7441659 C35.9207941,37.650273 36.1274263,38.6283645 36.1385308,39.6412735 C36.1533369,40.9965892 36.1328697,41.0050493 36.1278617,42.3605786 C36.1252489,43.1073373 36.1385308,43.1462803 36.1278617,43.8761619 C36.1114121,45.0014965 35.0972179,46.8295435 32.2344199,46.8295435 C30.8945978,46.8295435 31.0833184,46.8295435 28.2095301,46.8295435 C25.3357417,46.8295435 24.270356,44.8086192 24.270356,43.8761619 C24.270356,42.8309755 24.254679,43.8067601 24.2461872,42.761597 C24.1841323,42.6464645 24.1610522,42.6498822 24.1379721,42.6539407 C23.2265262,42.8092306 22.3122498,42.8639131 21.3894816,42.7581793 C20.4821728,42.6539407 19.6295158,42.3959073 18.852849,41.9191438 C17.8845738,41.3246846 17.1734457,40.5136312 16.7479882,39.4697497 C16.5012925,38.8643967 16.2167106,38.2789088 15.8395906,37.7404138 C15.4724866,37.215803 15.0496419,36.7454476 14.4957197,36.3987687 C14.2529432,36.24711 14.0123442,36.0888297 13.7887286,35.9117522 C13.4821553,35.6688847 13.1845092,35.4114922 13.0752054,35.0141892 C13.1126561,34.852064 13.1329056,34.7578647 13.1914768,34.7164256 C13.3282154,34.6196631 13.4745345,34.5190558 13.6328291,34.4720629 C14.4330115,34.2349628 15.2220893,34.3035296 15.9883048,34.6147502 C17.038449,35.0413169 17.8218656,35.7752594 18.4243431,36.7044356 C18.693248,37.1188269 18.9691204,37.5251012 19.3249021,37.8741297 C20.03124,38.5672739 20.8828083,38.9434301 21.879607,38.9931997 C22.7076597,39.0346389 23.4984794,38.8635423 24.2653481,38.5666331 C24.3430801,38.5365149 24.3561443,38.4850364 24.3685553,38.4190329 C24.5174872,37.6235725 24.7953192,36.8789499 25.2773883,36.2152831 C25.2967669,36.188369 25.3124439,36.1586781 25.3357417,36.1206566 C25.1193115,36.0862664 24.9157276,36.0555075 24.7125793,36.0215445 C23.6887813,35.8506615 22.6845796,35.6090757 21.7136916,35.240182 C20.5866864,34.8119065 19.5517838,34.234322 18.6529667,33.4360848 C17.6026048,32.5034908 16.8557679,31.369255 16.3567153,30.0735347 C15.9419269,28.9967582 15.7113437,27.8798242 15.6057414,26.7359762 C15.5190822,25.796547 15.4838089,24.8569041 15.5830968,23.9159796 C15.6806428,22.992357 15.9199355,22.1054743 16.3003215,21.255545 C16.6493535,20.4758913 17.1129149,19.7660861 17.6757643,19.1188668 C17.7410853,19.0436783 17.7700443,18.9817332 17.7339,18.8764265 C17.5235664,18.2635974 17.4223188,17.6298351 17.3890051,16.9856062 C17.3215067,15.6734384 17.5671137,14.4123219 18.0513601,13.1928582 C18.0759644,13.1309131 18.1306163,13.0612783 18.1894052,13.0352186 C18.3614172,12.9591757 18.5425742,12.9032115 18.7202473,12.839344 L19.1653011,12.839344 Z" id="Fill-1" fill="#FFFFFF"></path>
            </g>
        </g>
    </g>
</svg>