<?xml version="1.0" encoding="UTF-8"?>
<svg width="59px" height="57px" viewBox="0 0 59 57" version="1.1" xmlns="http://www.w3.org/2000/svg" xmlns:xlink="http://www.w3.org/1999/xlink">
    <!-- Generator: Sketch 45.2 (43514) - http://www.bohemiancoding.com/sketch -->
    <title>linkedin</title>
    <desc>Created with Sketch.</desc>
    <defs></defs>
    <g id="Welcome" stroke="none" stroke-width="1" fill="none" fill-rule="evenodd">
        <g id="Desktop-HD-Copy-2" transform="translate(-1111.000000, -2356.000000)">
            <g id="linkedin" transform="translate(1111.000000, 2356.000000)">
                <ellipse id="Oval-3" fill="#42474B" cx="29.3893296" cy="28.5883365" rx="28.9936251" ry="28"></ellipse>
                <path d="M24.8907448,41.5687823 L24.8907448,22.9632468 L30.4719014,22.9632468 L30.4719014,25.8063665 C30.6166124,25.6701416 30.6754403,25.6328369 30.7099878,25.5797441 C32.3137413,23.1128847 34.6778174,22.3700045 37.4470289,22.6057086 C39.0249759,22.7401173 40.5102412,23.1489319 41.632272,24.3932596 C42.6685584,25.5424394 43.090482,26.9604365 43.2174337,28.4457776 C43.3504901,30.0026542 43.3520163,31.5729438 43.3651971,33.1376447 C43.3867026,35.6848419 43.3710244,38.2323186 43.3710244,40.7796555 L43.3710244,41.5196016 C43.1157336,41.5394415 42.9281503,41.5664071 42.7405671,41.5668263 C41.1838481,41.5701795 39.6265742,41.5432139 38.0708265,41.5820555 C37.4933698,41.5965862 37.3293732,41.406989 37.3327031,40.8432272 C37.3493525,37.9477132 37.3438027,35.0519198 37.3192448,32.1564058 C37.3134175,31.4649419 37.292467,30.7525203 37.127638,30.0876027 C36.5937472,27.93441 35.3679351,27.563459 33.3998372,27.9390207 C31.8986162,28.2254424 31.1062435,29.226661 30.9149142,30.8100841 C30.8341646,31.4775165 30.7904599,32.153332 30.7869913,32.8256546 C30.7728393,35.5036278 30.7636821,38.1818804 30.7944835,40.8594345 C30.8011433,41.447088 30.6213297,41.5933727 30.0592737,41.5816364 C28.356595,41.5460083 26.6526676,41.5687823 24.8907448,41.5687823" id="Fill-1" fill="#FFFFFF"></path>
                <path d="M16.0708498,22.9609554 L21.9175643,22.9609554 C21.9314388,23.2056015 21.9557191,23.4354374 21.9558579,23.6654131 C21.9579391,29.3856041 21.9483656,35.1059348 21.9707036,40.825986 C21.973201,41.4343178 21.7942199,41.597648 21.2064961,41.5819996 C19.7172072,41.54218 18.2262534,41.5701236 16.7359933,41.5671895 C16.5262109,41.5667704 16.3164284,41.5448347 16.0708498,41.5308629 L16.0708498,22.9609554 Z" id="Fill-3" fill="#FFFFFF"></path>
                <path d="M18.9404711,20.7859946 C16.9651585,20.7716037 15.324915,19.1125932 15.3068782,17.1109944 C15.2882863,15.0579795 16.964881,13.3759155 19.0162259,13.3884901 C21.2529341,13.4020428 22.8016058,15.4500279 22.609999,17.1223116 C22.607779,19.1686201 20.9728079,20.8009444 18.9404711,20.7859946 Z" id="Fill-6" fill="#FFFFFF"></path>
            </g>
        </g>
    </g>
</svg>