<?xml version="1.0" encoding="UTF-8"?>
<svg width="48px" height="47px" viewBox="0 0 48 47" version="1.1" xmlns="http://www.w3.org/2000/svg" xmlns:xlink="http://www.w3.org/1999/xlink">
    <!-- Generator: Sketch 44 (41411) - http://www.bohemiancoding.com/sketch -->
    <title>Group 7</title>
    <desc>Created with Sketch.</desc>
    <defs></defs>
    <g id="Welcome" stroke="none" stroke-width="1" fill="none" fill-rule="evenodd">
        <g id="Desktop-HD-Copy-2" transform="translate(-1135.000000, -2526.000000)">
            <g id="Group-7" transform="translate(1135.000000, 2526.000000)">
                <ellipse id="Oval-3" fill="#3B4247" cx="23.9667679" cy="23.4030267" rx="23.4607509" ry="22.65674"></ellipse>
                <path d="M21.3266512,33.9064048 L21.3266512,18.8513769 L25.8427517,18.8513769 L25.8427517,21.1519421 C25.9598474,21.041713 26.0074491,21.0115272 26.0354039,20.9685661 C27.333112,18.9724593 29.2460498,18.3713435 31.4868107,18.562068 C32.7636369,18.6708273 33.9654679,19.0016276 34.8733808,20.0084993 C35.711912,20.9383803 36.0533195,22.08578 36.1560449,23.2876724 C36.2637101,24.5474492 36.2649451,25.8180793 36.2756106,27.0841872 C36.2930121,29.145301 36.2803258,31.2066408 36.2803258,33.2678676 L36.2803258,33.8666093 C36.0737524,33.8826631 35.9219658,33.9044828 35.7701792,33.904822 C34.51053,33.9075353 33.2504318,33.8857156 31.9915685,33.917145 C31.5243083,33.9289028 31.3916073,33.7754866 31.3943017,33.3193079 C31.4077739,30.9763469 31.4032831,28.6331598 31.3834117,26.2901988 C31.3786964,25.7306875 31.3617439,25.1542178 31.2283693,24.6161869 C30.7963613,22.8738895 29.8044718,22.5737273 28.2119474,22.8776203 C26.9972055,23.109384 26.3560419,23.9195393 26.201224,25.2007966 C26.1358839,25.7408624 26.1005195,26.2877116 26.0977128,26.8317344 C26.0862614,28.9986681 26.0788517,31.1658278 26.1037752,33.3324223 C26.1091641,33.8079335 25.9636645,33.9263025 25.5088661,33.9168059 C24.1311108,33.8879767 22.7523451,33.9064048 21.3266512,33.9064048" id="Fill-1" fill="#FFFFFF"></path>
                <path d="M14.1898631,18.8495228 L18.9208448,18.8495228 C18.9320717,19.0474829 18.9517186,19.2334591 18.9518309,19.4195483 C18.9535149,24.0481512 18.9457684,28.676867 18.9638436,33.3053568 C18.9658644,33.7976002 18.8210384,33.929762 18.3454703,33.9170998 C17.1403835,33.884879 15.9339495,33.9074901 14.7280768,33.9051159 C14.5583273,33.9047768 14.3885778,33.8870271 14.1898631,33.8757215 L14.1898631,18.8495228 Z" id="Fill-3" fill="#FFFFFF"></path>
                <path d="M16.5118725,17.0896113 C14.9135102,17.0779666 13.5862756,15.7355463 13.5716807,14.115914 C13.5566368,12.4546774 14.9132856,11.0936029 16.5731709,11.1037779 C18.3830465,11.1147443 19.6361841,12.771911 19.4811417,14.1250715 C19.4793454,15.7808815 18.156377,17.1017083 16.5118725,17.0896113 Z" id="Fill-6" fill="#FFFFFF"></path>
            </g>
        </g>
    </g>
</svg>