<?xml version="1.0" encoding="UTF-8"?>
<svg width="101px" height="101px" viewBox="0 0 101 101" version="1.1" xmlns="http://www.w3.org/2000/svg" xmlns:xlink="http://www.w3.org/1999/xlink">
    <!-- Generator: Sketch 44 (41411) - http://www.bohemiancoding.com/sketch -->
    <title>Combined Shape</title>
    <desc>Created with Sketch.</desc>
    <defs></defs>
    <g id="Welcome" stroke="none" stroke-width="1" fill="none" fill-rule="evenodd">
        <g id="Desktop-HD-Copy-2" transform="translate(-671.000000, -102.000000)" fill="#FB7878">
            <path d="M763.52854,179.37294 L763.52854,154.452567 L754.253786,154.452567 L754.253786,176.379037 L737.036037,154.452567 L727.71372,154.452567 L727.71372,190.31495 L737.036037,190.31495 L737.036037,168.388479 L754.122031,190.147162 C745.381232,197.663064 734.010163,202.20566 721.578113,202.20566 C693.996469,202.20566 671.637128,179.84632 671.637128,152.264676 C671.637128,124.683032 693.996469,102.323691 721.578113,102.323691 C749.159757,102.323691 771.519098,124.683032 771.519098,152.264676 C771.519098,162.258018 768.583881,171.565804 763.52854,179.37294 Z M719.580474,162.347998 L719.580474,154.452567 L699.176014,154.452567 L699.176014,190.31495 L719.580474,190.31495 L719.580474,182.419518 L708.498331,182.419518 L708.498331,176.236348 L718.962157,176.236348 L718.962157,168.340917 L708.498331,168.340917 L708.498331,162.347998 L719.580474,162.347998 Z" id="Combined-Shape"></path>
        </g>
    </g>
</svg>