<?xml version="1.0" encoding="UTF-8"?>
<svg width="102px" height="102px" viewBox="0 0 102 102" version="1.1" xmlns="http://www.w3.org/2000/svg" xmlns:xlink="http://www.w3.org/1999/xlink">
    <!-- Generator: Sketch 44 (41411) - http://www.bohemiancoding.com/sketch -->
    <title>Combined Shape</title>
    <desc>Created with Sketch.</desc>
    <defs></defs>
    <g id="Welcome" stroke="none" stroke-width="1" fill="none" fill-rule="evenodd">
        <g id="Desktop-HD-Copy-2" transform="translate(-1260.000000, -71.000000)" fill="#FB7878">
            <path d="M1350.79811,153.558757 L1350.79811,120.631442 L1345.39675,120.631442 L1345.39675,146.023268 L1330.86631,120.631442 L1327.51979,120.631442 L1327.51979,160.441989 L1332.92116,160.441989 L1332.92116,135.120012 L1346.2933,158.465353 C1337.2279,167.124238 1324.94385,172.441989 1311.41778,172.441989 C1283.5274,172.441989 1260.91778,149.832368 1260.91778,121.941989 C1260.91778,94.0516087 1283.5274,71.4419886 1311.41778,71.4419886 C1339.30816,71.4419886 1361.91778,94.0516087 1361.91778,121.941989 C1361.91778,133.909568 1357.75487,144.904848 1350.79811,153.558757 Z M1319.63347,155.198825 L1301.75651,155.198825 L1301.75651,143.171481 L1316.2321,143.171481 L1316.2321,137.928317 L1301.75651,137.928317 L1301.75651,125.874606 L1319.63347,125.874606 L1319.63347,120.631442 L1296.35515,120.631442 L1296.35515,160.441989 L1319.63347,160.441989 L1319.63347,155.198825 Z" id="Combined-Shape"></path>
        </g>
    </g>
</svg>