<?xml version="1.0" encoding="UTF-8"?>
<svg width="322px" height="16px" viewBox="0 0 322 16" version="1.1" xmlns="http://www.w3.org/2000/svg" xmlns:xlink="http://www.w3.org/1999/xlink">
    <!-- Generator: Sketch 45.2 (43514) - http://www.bohemiancoding.com/sketch -->
    <title>body</title>
    <desc>Created with Sketch.</desc>
    <defs></defs>
    <g id="Welcome" stroke="none" stroke-width="1" fill="none" fill-rule="evenodd">
        <g id="Desktop-HD-Copy-2" transform="translate(-379.000000, -8256.000000)" fill="#5A5F63">
            <path d="M382.779297,8268.31623 C382.679687,8268.26057 382.629883,8268.17414 382.629883,8268.05695 L382.629883,8258.62629 L379.624023,8258.62629 C379.512695,8258.62629 379.433594,8258.5882 379.386719,8258.51203 C379.339844,8258.43586 379.316406,8258.31867 379.316406,8258.16047 L379.316406,8257.90559 C379.316406,8257.74152 379.339844,8257.62287 379.386719,8257.54963 C379.433594,8257.47639 379.512695,8257.43977 379.624023,8257.43977 L386.954102,8257.43977 C387.06543,8257.43977 387.144531,8257.47639 387.191406,8257.54963 C387.238281,8257.62287 387.261719,8257.74152 387.261719,8257.90559 L387.261719,8258.16047 C387.261719,8258.31867 387.238281,8258.43586 387.191406,8258.51203 C387.144531,8258.5882 387.06543,8258.62629 386.954102,8258.62629 L384.009766,8258.62629 L384.009766,8268.05695 C384.009766,8268.28547 383.79883,8268.39973 383.376953,8268.39973 L383.253906,8268.39973 C383.037108,8268.39973 382.878907,8268.3719 382.779297,8268.31623 Z M389.019531,8268.05695 L389.019531,8256.96516 C389.019531,8256.73664 389.227537,8256.62238 389.643555,8256.62238 L389.705078,8256.62238 C390.126955,8256.62238 390.337891,8256.73664 390.337891,8256.96516 L390.337891,8261.18391 C390.64258,8260.87336 390.999998,8260.61701 391.410156,8260.41486 C391.820315,8260.21271 392.256834,8260.11164 392.719727,8260.11164 C393.37598,8260.11164 393.954587,8260.29621 394.455566,8260.66535 C394.956545,8261.03449 395.207031,8261.69074 395.207031,8262.6341 L395.207031,8268.05695 C395.207031,8268.28547 394.999026,8268.39973 394.583008,8268.39973 L394.521484,8268.39973 C394.099607,8268.39973 393.888672,8268.28547 393.888672,8268.05695 L393.888672,8262.76594 C393.888672,8262.29133 393.753908,8261.91926 393.484375,8261.64973 C393.214842,8261.38019 392.819339,8261.24543 392.297852,8261.24543 C391.952147,8261.24543 391.634279,8261.32746 391.344238,8261.49152 C391.054198,8261.65559 390.813966,8261.83283 390.623535,8262.02326 C390.433105,8262.21369 390.337891,8262.32063 390.337891,8262.34406 L390.337891,8268.05695 C390.337891,8268.28547 390.126955,8268.39973 389.705078,8268.39973 L389.643555,8268.39973 C389.227537,8268.39973 389.019531,8268.28547 389.019531,8268.05695 Z M398.217285,8267.44611 C397.587399,8266.76935 397.272461,8265.73372 397.272461,8264.33918 C397.272461,8262.95636 397.580075,8261.90608 398.195312,8261.1883 C398.81055,8260.47052 399.715814,8260.11164 400.911133,8260.11164 C401.977544,8260.11164 402.781736,8260.45734 403.32373,8261.14875 C403.865725,8261.84016 404.136719,8262.85382 404.136719,8264.18977 C404.136719,8264.24836 404.105957,8264.32893 404.044434,8264.43147 C403.98291,8264.53401 403.909668,8264.62482 403.824707,8264.70393 C403.739746,8264.78303 403.667969,8264.82258 403.609375,8264.82258 L398.678711,8264.82258 C398.743164,8265.69563 398.967283,8266.33283 399.351074,8266.7342 C399.734865,8267.13557 400.313473,8267.33625 401.086914,8267.33625 C401.52051,8267.33625 401.894041,8267.28352 402.20752,8267.17805 C402.520998,8267.07258 402.824217,8266.94367 403.117188,8266.79133 C403.146485,8266.77961 403.190429,8266.7591 403.249023,8266.72981 C403.307617,8266.70051 403.348633,8266.68586 403.37207,8266.68586 C403.436524,8266.68586 403.51123,8266.73713 403.596191,8266.83967 C403.681153,8266.94221 403.754394,8267.05647 403.815918,8267.18244 C403.877442,8267.30842 403.908203,8267.4007 403.908203,8267.4593 C403.908203,8267.5882 403.779298,8267.73176 403.521484,8267.88996 C403.263671,8268.04817 402.919436,8268.18293 402.48877,8268.29426 C402.058103,8268.40559 401.596682,8268.46125 401.104492,8268.46125 C399.809564,8268.46125 398.847171,8268.12288 398.217285,8267.44611 Z M402.739258,8263.69758 C402.739258,8262.05695 402.115241,8261.23664 400.867188,8261.23664 C399.525384,8261.23664 398.795899,8262.05695 398.678711,8263.69758 L402.739258,8263.69758 Z M414.81543,8271.28254 L414.81543,8267.67024 C414.475584,8267.92805 414.131349,8268.12434 413.782715,8268.2591 C413.43408,8268.39387 413.034182,8268.46125 412.583008,8268.46125 C411.956052,8268.46125 411.403811,8268.30012 410.92627,8267.97785 C410.448728,8267.65559 410.075197,8267.18245 409.805664,8266.55842 C409.536131,8265.93439 409.401367,8265.18586 409.401367,8264.31281 C409.401367,8263.4925 409.524413,8262.76448 409.770508,8262.12873 C410.016603,8261.49299 410.369627,8260.99787 410.82959,8260.64338 C411.289553,8260.28889 411.824216,8260.11164 412.433594,8260.11164 C413.347661,8260.11164 414.176754,8260.50129 414.920898,8261.28059 C414.997071,8260.88215 415.082031,8260.5716 415.175781,8260.34895 C415.205078,8260.28449 415.253418,8260.23908 415.320801,8260.21272 C415.388184,8260.18635 415.480468,8260.17316 415.597656,8260.17316 L415.65918,8260.17316 C415.969728,8260.17316 416.125,8260.28742 416.125,8260.51594 L416.125,8271.28254 C416.125,8271.51106 415.916994,8271.62531 415.500977,8271.62531 L415.430664,8271.62531 C415.020506,8271.62531 414.81543,8271.51106 414.81543,8271.28254 Z M414.81543,8266.60676 L414.81543,8262.32649 C414.499022,8261.98078 414.154787,8261.71418 413.782715,8261.52668 C413.410643,8261.33918 413.05176,8261.24543 412.706055,8261.24543 C412.084958,8261.24543 411.608888,8261.51935 411.277832,8262.06721 C410.946776,8262.61506 410.78125,8263.39289 410.78125,8264.4007 C410.78125,8265.33821 410.957029,8266.05305 411.308594,8266.54524 C411.660158,8267.03743 412.184567,8267.29231 412.881836,8267.30988 C413.596683,8267.30988 414.241208,8267.07551 414.81543,8266.60676 Z M419.289062,8267.78889 C418.837888,8267.34064 418.612305,8266.72102 418.612305,8265.93 L418.612305,8260.51594 C418.612305,8260.28742 418.82324,8260.17316 419.245117,8260.17316 L419.306641,8260.17316 C419.722658,8260.17316 419.930664,8260.28742 419.930664,8260.51594 L419.930664,8265.80695 C419.930664,8266.28743 420.069823,8266.66096 420.348145,8266.92756 C420.626466,8267.19416 421.017576,8267.32746 421.521484,8267.32746 C421.873049,8267.32746 422.224608,8267.22932 422.576172,8267.03303 C422.927736,8266.83674 423.232421,8266.56867 423.490234,8266.22883 L423.490234,8260.51594 C423.490234,8260.28742 423.69824,8260.17316 424.114258,8260.17316 L424.175781,8260.17316 C424.597658,8260.17316 424.808594,8260.28742 424.808594,8260.51594 L424.808594,8266.06184 C424.808594,8266.74153 424.83789,8267.23225 424.896484,8267.534 C424.955078,8267.83576 424.984375,8268.00129 424.984375,8268.03059 C424.984375,8268.15949 424.887696,8268.25178 424.694336,8268.30744 C424.500976,8268.36311 424.319337,8268.39094 424.149414,8268.39094 C424.002929,8268.39094 423.894532,8268.30744 423.824219,8268.14045 C423.753906,8267.97346 423.702637,8267.80207 423.67041,8267.62629 C423.638183,8267.45051 423.616211,8267.33918 423.604492,8267.29231 C423.276366,8267.66145 422.896975,8267.94855 422.466309,8268.15363 C422.035642,8268.35871 421.600588,8268.46125 421.161133,8268.46125 C420.364254,8268.46125 419.740237,8268.23713 419.289062,8267.78889 Z M427.506836,8257.88801 L427.506836,8256.96516 C427.506836,8256.73664 427.714842,8256.62238 428.130859,8256.62238 L428.31543,8256.62238 C428.737307,8256.62238 428.948242,8256.73664 428.948242,8256.96516 L428.948242,8257.88801 C428.948242,8258.11653 428.737307,8258.23078 428.31543,8258.23078 L428.130859,8258.23078 C427.714842,8258.23078 427.506836,8258.11653 427.506836,8257.88801 Z M427.568359,8268.05695 L427.568359,8260.51594 C427.568359,8260.28742 427.776365,8260.17316 428.192383,8260.17316 L428.253906,8260.17316 C428.675783,8260.17316 428.886719,8260.28742 428.886719,8260.51594 L428.886719,8268.05695 C428.886719,8268.28547 428.675783,8268.39973 428.253906,8268.39973 L428.192383,8268.39973 C427.776365,8268.39973 427.568359,8268.28547 427.568359,8268.05695 Z M432.046387,8267.46369 C431.410641,8266.79865 431.092773,8265.72786 431.092773,8264.25129 C431.092773,8262.75714 431.447262,8261.69368 432.15625,8261.06086 C432.865238,8260.42804 433.747065,8260.11164 434.801758,8260.11164 C435.194338,8260.11164 435.572264,8260.14533 435.935547,8260.21272 C436.29883,8260.2801 436.591796,8260.36945 436.814453,8260.48078 C437.03711,8260.59211 437.148438,8260.7093 437.148438,8260.83234 C437.148438,8260.91438 437.120606,8261.02277 437.064941,8261.15754 C437.009277,8261.29231 436.941895,8261.41096 436.862793,8261.5135 C436.783691,8261.61604 436.711914,8261.66731 436.647461,8261.66731 C436.629883,8261.66731 436.603516,8261.65998 436.568359,8261.64533 C436.533203,8261.63068 436.500977,8261.6175 436.47168,8261.60578 C435.944333,8261.35969 435.37598,8261.23664 434.766602,8261.23664 C434.045895,8261.23664 433.48926,8261.47248 433.09668,8261.94416 C432.7041,8262.41584 432.507812,8263.17316 432.507812,8264.21613 C432.507812,8264.95442 432.586913,8265.5506 432.745117,8266.00471 C432.903321,8266.45881 433.159666,8266.79426 433.51416,8267.01106 C433.868654,8267.22785 434.341794,8267.33625 434.933594,8267.33625 C435.583988,8267.33625 436.169919,8267.20149 436.691406,8266.93195 C436.744141,8266.92024 436.783691,8266.90705 436.810059,8266.8924 C436.836426,8266.87775 436.855469,8266.87043 436.867188,8266.87043 C436.931641,8266.87043 437.004882,8266.92023 437.086914,8267.01984 C437.168946,8267.11945 437.240722,8267.23371 437.302246,8267.36262 C437.36377,8267.49152 437.394531,8267.59406 437.394531,8267.67024 C437.394531,8267.79328 437.283204,8267.91633 437.060547,8268.03938 C436.83789,8268.16242 436.5376,8268.2635 436.159668,8268.3426 C435.781736,8268.4217 435.375979,8268.46125 434.942383,8268.46125 C433.647454,8268.46125 432.682132,8268.12873 432.046387,8267.46369 Z M439.328125,8268.05695 L439.328125,8256.96516 C439.328125,8256.73664 439.53906,8256.62238 439.960938,8256.62238 L440.022461,8256.62238 C440.438479,8256.62238 440.646484,8256.73664 440.646484,8256.96516 L440.646484,8263.95246 L440.708008,8263.95246 L443.696289,8260.3841 C443.807618,8260.24348 444.083006,8260.17316 444.522461,8260.17316 L444.575195,8260.17316 C444.756837,8260.17316 444.894531,8260.19074 444.988281,8260.2259 C445.082032,8260.26106 445.128906,8260.30793 445.128906,8260.36652 C445.128906,8260.45442 445.076172,8260.55988 444.970703,8260.68293 L442.061523,8264.11945 L445.287109,8267.93391 C445.375,8268.03352 445.418945,8268.11555 445.418945,8268.18 C445.418945,8268.26789 445.369141,8268.32649 445.269531,8268.35578 C445.169921,8268.38508 444.994142,8268.39973 444.742188,8268.39973 L444.671875,8268.39973 C444.455077,8268.39973 444.279298,8268.38801 444.144531,8268.36457 C444.009765,8268.34113 443.904297,8268.28547 443.828125,8268.19758 L440.708008,8264.48859 L440.646484,8264.48859 L440.646484,8268.05695 C440.646484,8268.28547 440.438479,8268.39973 440.022461,8268.39973 L439.960938,8268.39973 C439.53906,8268.39973 439.328125,8268.28547 439.328125,8268.05695 Z M452.283203,8267.29231 C452.236328,8267.61457 452.151368,8267.92219 452.02832,8268.21516 C452.004883,8268.28547 451.959473,8268.33381 451.89209,8268.36018 C451.824707,8268.38654 451.732422,8268.39973 451.615234,8268.39973 L451.553711,8268.39973 C451.389648,8268.39973 451.270996,8268.3719 451.197754,8268.31623 C451.124511,8268.26057 451.087891,8268.17414 451.087891,8268.05695 L451.087891,8256.96516 C451.087891,8256.73664 451.292967,8256.62238 451.703125,8256.62238 L451.773438,8256.62238 C452.183596,8256.62238 452.388672,8256.73664 452.388672,8256.96516 L452.388672,8260.90266 C452.728517,8260.64484 453.074217,8260.44856 453.425781,8260.31379 C453.777346,8260.17902 454.178709,8260.11164 454.629883,8260.11164 C455.25098,8260.11164 455.801755,8260.27277 456.282227,8260.59504 C456.762698,8260.91731 457.136229,8261.39191 457.402832,8262.01887 C457.669435,8262.64582 457.802734,8263.39875 457.802734,8264.27766 C457.802734,8265.08625 457.679689,8265.80842 457.433594,8266.44416 C457.187499,8267.07991 456.83594,8267.57502 456.378906,8267.92951 C455.921873,8268.28401 455.385745,8268.46125 454.770508,8268.46125 C453.856441,8268.46125 453.027347,8268.07161 452.283203,8267.29231 Z M455.92627,8266.50568 C456.257326,8265.95783 456.422852,8265.18001 456.422852,8264.17219 C456.422852,8263.23468 456.247072,8262.51985 455.895508,8262.02766 C455.543944,8261.53547 455.022464,8261.28059 454.331055,8261.26301 C453.98535,8261.26301 453.645509,8261.3216 453.311523,8261.43879 C452.977537,8261.55598 452.669923,8261.73176 452.388672,8261.96613 L452.388672,8266.24641 C452.710939,8266.59211 453.056639,8266.85871 453.425781,8267.04621 C453.794924,8267.23371 454.155272,8267.32746 454.506836,8267.32746 C455.122073,8267.32746 455.595213,8267.05354 455.92627,8266.50568 Z M460.202148,8268.31623 C460.102539,8268.26057 460.052734,8268.17414 460.052734,8268.05695 L460.052734,8262.57258 C460.052734,8261.89289 460.020508,8261.40217 459.956055,8261.10041 C459.891601,8260.79865 459.859375,8260.63313 459.859375,8260.60383 C459.859375,8260.47492 459.957519,8260.38264 460.153809,8260.32697 C460.350099,8260.27131 460.536132,8260.24348 460.711914,8260.24348 C460.85254,8260.24348 460.958007,8260.31818 461.02832,8260.4676 C461.098633,8260.61701 461.160156,8260.82648 461.212891,8261.09602 L461.256836,8261.28059 C461.813479,8260.50129 462.416989,8260.11164 463.067383,8260.11164 C463.366212,8260.11164 463.591796,8260.16584 463.744141,8260.27424 C463.896485,8260.38264 463.972656,8260.52766 463.972656,8260.7093 C463.972656,8260.88508 463.941895,8261.07111 463.880371,8261.2674 C463.818847,8261.46369 463.747071,8261.56184 463.665039,8261.56184 C463.624023,8261.56184 463.550782,8261.54426 463.445312,8261.5091 C463.351562,8261.46809 463.257813,8261.43733 463.164062,8261.41682 C463.070312,8261.39631 462.950196,8261.38606 462.803711,8261.38606 C462.563475,8261.38606 462.336427,8261.45637 462.122559,8261.59699 C461.90869,8261.73762 461.728516,8261.89289 461.582031,8262.06281 C461.435546,8262.23274 461.362305,8262.32649 461.362305,8262.34406 L461.362305,8268.05695 C461.362305,8268.17414 461.3125,8268.26057 461.212891,8268.31623 C461.113281,8268.3719 460.958009,8268.39973 460.74707,8268.39973 L460.685547,8268.39973 C460.46289,8268.39973 460.301758,8268.3719 460.202148,8268.31623 Z M466.147949,8267.40217 C465.529782,8266.69611 465.220703,8265.66927 465.220703,8264.3216 C465.220703,8262.97394 465.534177,8261.93538 466.161133,8261.20588 C466.788089,8260.47638 467.681635,8260.11164 468.841797,8260.11164 C469.99024,8260.11164 470.869138,8260.47345 471.478516,8261.19709 C472.087894,8261.92073 472.392578,8262.96222 472.392578,8264.3216 C472.392578,8265.67512 472.092288,8266.70343 471.491699,8267.40656 C470.89111,8268.10969 470.007818,8268.46125 468.841797,8268.46125 C467.664057,8268.46125 466.766116,8268.10823 466.147949,8267.40217 Z M470.485352,8266.59358 C470.848635,8266.09846 471.030273,8265.33235 471.030273,8264.29524 C471.030273,8263.25226 470.848635,8262.48176 470.485352,8261.98371 C470.122068,8261.48566 469.559574,8261.23664 468.797852,8261.23664 C468.041988,8261.23664 467.485353,8261.4842 467.12793,8261.97932 C466.770506,8262.47444 466.591797,8263.2464 466.591797,8264.29524 C466.591797,8265.33821 466.769041,8266.10578 467.123535,8266.59797 C467.478029,8267.09016 468.036129,8267.33625 468.797852,8267.33625 C469.559574,8267.33625 470.122068,8267.08869 470.485352,8266.59358 Z M475.864258,8268.15363 L473.807617,8260.74445 C473.749023,8260.58039 473.719727,8260.47785 473.719727,8260.43684 C473.719727,8260.26105 473.959959,8260.17316 474.44043,8260.17316 C474.815432,8260.17316 475.023437,8260.2552 475.064453,8260.41926 L476.382812,8265.42024 C476.40625,8265.50227 476.482421,8265.83625 476.611328,8266.42219 C476.640625,8266.58039 476.696289,8266.84113 476.77832,8267.20441 C476.895508,8266.48371 477.024413,8265.88313 477.165039,8265.40266 L478.457031,8260.43684 C478.498047,8260.26105 478.703123,8260.17316 479.072266,8260.17316 L479.177734,8260.17316 C479.535158,8260.17316 479.740234,8260.26105 479.792969,8260.43684 L481.09375,8265.40266 C481.234376,8265.91828 481.351562,8266.42512 481.445312,8266.92316 L481.489258,8267.18684 C481.653321,8266.31965 481.773437,8265.73664 481.849609,8265.43781 L483.167969,8260.41926 C483.208985,8260.2552 483.41992,8260.17316 483.800781,8260.17316 C484.216799,8260.17316 484.424805,8260.26105 484.424805,8260.43684 C484.424805,8260.50129 484.410156,8260.5716 484.380859,8260.64777 L482.280273,8268.15363 C482.245117,8268.3177 482.040041,8268.39973 481.665039,8268.39973 L481.19043,8268.39973 C480.821287,8268.39973 480.619141,8268.3177 480.583984,8268.15363 L479.327148,8263.1966 C479.250976,8262.87434 479.174805,8262.47004 479.098633,8261.98371 C479.022461,8262.49348 478.94336,8262.89484 478.861328,8263.18781 L477.586914,8268.15363 C477.551758,8268.3177 477.340822,8268.39973 476.954102,8268.39973 L476.488281,8268.39973 C476.10742,8268.39973 475.899414,8268.3177 475.864258,8268.15363 Z M486.419922,8268.31623 C486.320312,8268.26057 486.270508,8268.17414 486.270508,8268.05695 L486.270508,8262.57258 C486.270508,8261.89289 486.238282,8261.40217 486.173828,8261.10041 C486.109375,8260.79865 486.077148,8260.63313 486.077148,8260.60383 C486.077148,8260.47492 486.175292,8260.38264 486.371582,8260.32697 C486.567872,8260.27131 486.753905,8260.24348 486.929688,8260.24348 C487.076173,8260.24348 487.18457,8260.32258 487.254883,8260.48078 C487.325196,8260.63899 487.376465,8260.80012 487.408691,8260.96418 C487.440918,8261.12824 487.462891,8261.23371 487.474609,8261.28059 C487.802736,8260.91144 488.182127,8260.62434 488.612793,8260.41926 C489.043459,8260.21418 489.478513,8260.11164 489.917969,8260.11164 C490.714848,8260.11164 491.3374,8260.33576 491.785645,8260.784 C492.233889,8261.23225 492.458008,8261.84894 492.458008,8262.6341 L492.458008,8268.05695 C492.458008,8268.17414 492.408204,8268.26057 492.308594,8268.31623 C492.208984,8268.3719 492.050782,8268.39973 491.833984,8268.39973 L491.763672,8268.39973 C491.552733,8268.39973 491.397461,8268.3719 491.297852,8268.31623 C491.198242,8268.26057 491.148438,8268.17414 491.148438,8268.05695 L491.148438,8262.76594 C491.148438,8262.28547 491.009279,8261.91194 490.730957,8261.64533 C490.452635,8261.37873 490.061526,8261.24543 489.557617,8261.24543 C489.206053,8261.24543 488.853029,8261.34357 488.498535,8261.53986 C488.144041,8261.73615 487.837892,8262.00422 487.580078,8262.34406 L487.580078,8268.05695 C487.580078,8268.17414 487.530274,8268.26057 487.430664,8268.31623 C487.331054,8268.3719 487.175782,8268.39973 486.964844,8268.39973 L486.90332,8268.39973 C486.680663,8268.39973 486.519532,8268.3719 486.419922,8268.31623 Z M499.216797,8268.31623 C499.117187,8268.26057 499.067383,8268.17414 499.067383,8268.05695 L499.067383,8261.32453 L498.443359,8261.32453 C498.232421,8261.32453 498.126953,8261.16926 498.126953,8260.85871 L498.126953,8260.66535 C498.126953,8260.3548 498.232421,8260.19953 498.443359,8260.19953 L499.067383,8260.19953 L499.067383,8258.71418 C499.067383,8257.89386 499.270994,8257.3299 499.678223,8257.02229 C500.085451,8256.71467 500.552732,8256.56086 501.080078,8256.56086 C501.841801,8256.56086 502.222656,8256.71906 502.222656,8257.03547 C502.222656,8257.0882 502.209473,8257.17463 502.183105,8257.29475 C502.156738,8257.41486 502.118653,8257.5218 502.068848,8257.61555 C502.019043,8257.7093 501.961914,8257.75617 501.897461,8257.75617 C501.862305,8257.75617 501.789063,8257.74445 501.677734,8257.72102 C501.566406,8257.69758 501.414063,8257.68586 501.220703,8257.68586 C501.044921,8257.68586 500.896973,8257.71223 500.776855,8257.76496 C500.656738,8257.8177 500.560059,8257.92902 500.486816,8258.09895 C500.413574,8258.26887 500.376953,8258.51496 500.376953,8258.83723 L500.376953,8260.19953 L501.739258,8260.19953 C501.850586,8260.19953 501.931152,8260.23615 501.980957,8260.3094 C502.030762,8260.38264 502.055664,8260.50129 502.055664,8260.66535 L502.055664,8260.85871 C502.055664,8261.02278 502.030762,8261.14143 501.980957,8261.21467 C501.931152,8261.28791 501.850586,8261.32453 501.739258,8261.32453 L500.376953,8261.32453 L500.376953,8268.05695 C500.376953,8268.17414 500.327149,8268.26057 500.227539,8268.31623 C500.127929,8268.3719 499.972657,8268.39973 499.761719,8268.39973 L499.691406,8268.39973 C499.474608,8268.39973 499.316407,8268.3719 499.216797,8268.31623 Z M504.248535,8267.40217 C503.630368,8266.69611 503.321289,8265.66927 503.321289,8264.3216 C503.321289,8262.97394 503.634762,8261.93538 504.261719,8261.20588 C504.888675,8260.47638 505.782221,8260.11164 506.942383,8260.11164 C508.090826,8260.11164 508.969724,8260.47345 509.579102,8261.19709 C510.18848,8261.92073 510.493164,8262.96222 510.493164,8264.3216 C510.493164,8265.67512 510.192874,8266.70343 509.592285,8267.40656 C508.991696,8268.10969 508.108404,8268.46125 506.942383,8268.46125 C505.764643,8268.46125 504.866702,8268.10823 504.248535,8267.40217 Z M508.585938,8266.59358 C508.949221,8266.09846 509.130859,8265.33235 509.130859,8264.29524 C509.130859,8263.25226 508.949221,8262.48176 508.585938,8261.98371 C508.222654,8261.48566 507.66016,8261.23664 506.898438,8261.23664 C506.142574,8261.23664 505.585939,8261.4842 505.228516,8261.97932 C504.871092,8262.47444 504.692383,8263.2464 504.692383,8264.29524 C504.692383,8265.33821 504.869627,8266.10578 505.224121,8266.59797 C505.578615,8267.09016 506.136715,8267.33625 506.898438,8267.33625 C507.66016,8267.33625 508.222654,8267.08869 508.585938,8266.59358 Z M511.824707,8268.3382 C511.722167,8268.29719 511.670898,8268.22981 511.670898,8268.13606 C511.670898,8268.06574 511.711914,8267.97199 511.793945,8267.85481 L514.325195,8264.18977 L511.978516,8260.7093 C511.902343,8260.59211 511.864258,8260.50129 511.864258,8260.43684 C511.864258,8260.34309 511.916992,8260.2757 512.022461,8260.23469 C512.12793,8260.19367 512.309569,8260.17316 512.567383,8260.17316 L512.716797,8260.17316 C512.892579,8260.17316 513.033203,8260.18928 513.138672,8260.2215 C513.244141,8260.25373 513.329101,8260.31672 513.393555,8260.41047 L514.878906,8262.6341 C514.966797,8262.77473 515.072265,8262.9593 515.195312,8263.18781 C515.21875,8263.1468 515.259765,8263.07649 515.318359,8262.97688 C515.376953,8262.87727 515.447265,8262.76301 515.529297,8262.6341 L517.023438,8260.3841 C517.117188,8260.24348 517.351561,8260.17316 517.726562,8260.17316 L517.788086,8260.17316 C518.028322,8260.17316 518.198242,8260.19367 518.297852,8260.23469 C518.397461,8260.2757 518.447266,8260.34309 518.447266,8260.43684 C518.447266,8260.50715 518.40625,8260.59797 518.324219,8260.7093 L515.96875,8264.14582 L518.491211,8267.85481 C518.579102,8267.98371 518.623047,8268.07746 518.623047,8268.13606 C518.623047,8268.22395 518.567383,8268.28986 518.456055,8268.33381 C518.344726,8268.37776 518.160158,8268.39973 517.902344,8268.39973 L517.761719,8268.39973 C517.580077,8268.39973 517.437989,8268.38361 517.335449,8268.35139 C517.23291,8268.31916 517.152344,8268.25617 517.09375,8268.16242 L515.432617,8265.68391 C515.338867,8265.54328 515.265625,8265.42463 515.212891,8265.32795 C515.160156,8265.23127 515.125,8265.16828 515.107422,8265.13899 C515.095703,8265.16242 515.062012,8265.22248 515.006348,8265.31916 C514.950683,8265.41584 514.873047,8265.53742 514.773438,8265.68391 L513.094727,8268.18 C512.995117,8268.32649 512.760744,8268.39973 512.391602,8268.39973 L512.338867,8268.39973 C512.098632,8268.39973 511.927247,8268.37922 511.824707,8268.3382 Z M524.195312,8257.88801 L524.195312,8256.96516 C524.195312,8256.73664 524.406248,8256.62238 524.828125,8256.62238 L525.012695,8256.62238 C525.428713,8256.62238 525.636719,8256.73664 525.636719,8256.96516 L525.636719,8257.88801 C525.636719,8258.11653 525.428713,8258.23078 525.012695,8258.23078 L524.828125,8258.23078 C524.406248,8258.23078 524.195312,8258.11653 524.195312,8257.88801 Z M522.411133,8271.22102 C522.411133,8271.16242 522.424316,8271.07307 522.450684,8270.95295 C522.477051,8270.83283 522.516601,8270.72443 522.569336,8270.62775 C522.622071,8270.53107 522.680664,8270.48274 522.745117,8270.48274 C522.780274,8270.48274 522.853515,8270.49592 522.964844,8270.52229 C523.076172,8270.54865 523.228515,8270.56184 523.421875,8270.56184 C523.679689,8270.56184 523.8833,8270.47834 524.032715,8270.31135 C524.18213,8270.14436 524.256836,8269.84407 524.256836,8269.41047 L524.256836,8260.51594 C524.256836,8260.28742 524.467771,8260.17316 524.889648,8260.17316 L524.951172,8260.17316 C525.36719,8260.17316 525.575195,8260.28742 525.575195,8260.51594 L525.575195,8269.52473 C525.575195,8270.33333 525.370119,8270.89582 524.959961,8271.21223 C524.549803,8271.52864 524.083987,8271.68684 523.5625,8271.68684 C522.794918,8271.68684 522.411133,8271.53156 522.411133,8271.22102 Z M528.844727,8267.78889 C528.393552,8267.34064 528.167969,8266.72102 528.167969,8265.93 L528.167969,8260.51594 C528.167969,8260.28742 528.378904,8260.17316 528.800781,8260.17316 L528.862305,8260.17316 C529.278322,8260.17316 529.486328,8260.28742 529.486328,8260.51594 L529.486328,8265.80695 C529.486328,8266.28743 529.625487,8266.66096 529.903809,8266.92756 C530.18213,8267.19416 530.57324,8267.32746 531.077148,8267.32746 C531.428713,8267.32746 531.780272,8267.22932 532.131836,8267.03303 C532.4834,8266.83674 532.788085,8266.56867 533.045898,8266.22883 L533.045898,8260.51594 C533.045898,8260.28742 533.253904,8260.17316 533.669922,8260.17316 L533.731445,8260.17316 C534.153322,8260.17316 534.364258,8260.28742 534.364258,8260.51594 L534.364258,8266.06184 C534.364258,8266.74153 534.393554,8267.23225 534.452148,8267.534 C534.510742,8267.83576 534.540039,8268.00129 534.540039,8268.03059 C534.540039,8268.15949 534.44336,8268.25178 534.25,8268.30744 C534.05664,8268.36311 533.875001,8268.39094 533.705078,8268.39094 C533.558593,8268.39094 533.450196,8268.30744 533.379883,8268.14045 C533.30957,8267.97346 533.258301,8267.80207 533.226074,8267.62629 C533.193847,8267.45051 533.171875,8267.33918 533.160156,8267.29231 C532.83203,8267.66145 532.452639,8267.94855 532.021973,8268.15363 C531.591306,8268.35871 531.156252,8268.46125 530.716797,8268.46125 C529.919918,8268.46125 529.295901,8268.23713 528.844727,8267.78889 Z M547.038086,8260.66535 C547.530276,8261.03449 547.776367,8261.69074 547.776367,8262.6341 L547.776367,8268.05695 C547.776367,8268.17414 547.726563,8268.26057 547.626953,8268.31623 C547.527343,8268.3719 547.369142,8268.39973 547.152344,8268.39973 L547.099609,8268.39973 C546.876952,8268.39973 546.715821,8268.3719 546.616211,8268.31623 C546.516601,8268.26057 546.466797,8268.17414 546.466797,8268.05695 L546.466797,8262.76594 C546.466797,8262.29133 546.339357,8261.91926 546.084473,8261.64973 C545.829589,8261.38019 545.456057,8261.24543 544.963867,8261.24543 C544.553709,8261.24543 544.183107,8261.36408 543.852051,8261.60139 C543.520994,8261.83869 543.252931,8262.08625 543.047852,8262.34406 C543.05957,8262.48469 543.06543,8262.59016 543.06543,8262.66047 L543.06543,8268.05695 C543.06543,8268.28547 542.854494,8268.39973 542.432617,8268.39973 L542.371094,8268.39973 C541.955076,8268.39973 541.74707,8268.28547 541.74707,8268.05695 L541.74707,8262.76594 C541.74707,8262.29133 541.61963,8261.91926 541.364746,8261.64973 C541.109862,8261.38019 540.736331,8261.24543 540.244141,8261.24543 C539.904295,8261.24543 539.593751,8261.326 539.3125,8261.48713 C539.031249,8261.64826 538.798341,8261.82258 538.61377,8262.01008 C538.429198,8262.19758 538.336914,8262.30305 538.336914,8262.32649 L538.336914,8268.05695 C538.336914,8268.17414 538.288575,8268.26057 538.191895,8268.31623 C538.095214,8268.3719 537.938478,8268.39973 537.72168,8268.39973 L537.651367,8268.39973 C537.434569,8268.39973 537.277833,8268.3719 537.181152,8268.31623 C537.084472,8268.26057 537.036133,8268.17414 537.036133,8268.05695 L537.036133,8262.57258 C537.036133,8261.89289 537.003907,8261.40217 536.939453,8261.10041 C536.875,8260.79865 536.842773,8260.63313 536.842773,8260.60383 C536.842773,8260.47492 536.940917,8260.38264 537.137207,8260.32697 C537.333497,8260.27131 537.516601,8260.24348 537.686523,8260.24348 C537.833009,8260.24348 537.941406,8260.32258 538.011719,8260.48078 C538.082032,8260.63899 538.133301,8260.80012 538.165527,8260.96418 C538.197754,8261.12824 538.219727,8261.23371 538.231445,8261.28059 C538.518556,8260.9466 538.870115,8260.66828 539.286133,8260.44563 C539.702151,8260.22297 540.141599,8260.11164 540.604492,8260.11164 C541.079104,8260.11164 541.521482,8260.20686 541.931641,8260.39729 C542.341799,8260.58772 542.643554,8260.92316 542.836914,8261.40363 C543.159181,8261.02277 543.537107,8260.71223 543.970703,8260.47199 C544.404299,8260.23176 544.855466,8260.11164 545.324219,8260.11164 C545.974613,8260.11164 546.545896,8260.29621 547.038086,8260.66535 Z M550.298828,8271.28254 L550.298828,8262.57258 C550.298828,8261.89289 550.266602,8261.40217 550.202148,8261.10041 C550.137695,8260.79865 550.105469,8260.63313 550.105469,8260.60383 C550.105469,8260.47492 550.203612,8260.38264 550.399902,8260.32697 C550.596192,8260.27131 550.782226,8260.24348 550.958008,8260.24348 C551.104493,8260.24348 551.21289,8260.32258 551.283203,8260.48078 C551.353516,8260.63899 551.404785,8260.80012 551.437012,8260.96418 C551.469238,8261.12824 551.491211,8261.23371 551.50293,8261.28059 C552.247074,8260.50129 553.076167,8260.11164 553.990234,8260.11164 C554.617191,8260.11164 555.159177,8260.29035 555.616211,8260.64777 C556.073244,8261.0052 556.421874,8261.50031 556.662109,8262.13313 C556.902345,8262.76594 557.022461,8263.48664 557.022461,8264.29524 C557.022461,8265.17415 556.889161,8265.92707 556.622559,8266.55402 C556.355956,8267.18098 555.982424,8267.65559 555.501953,8267.97785 C555.021482,8268.30012 554.467777,8268.46125 553.84082,8268.46125 C553.389646,8268.46125 552.989748,8268.39387 552.641113,8268.2591 C552.292479,8268.12434 551.948244,8267.92805 551.608398,8267.67024 L551.608398,8271.28254 C551.608398,8271.51106 551.403322,8271.62531 550.993164,8271.62531 L550.931641,8271.62531 C550.509764,8271.62531 550.298828,8271.51106 550.298828,8271.28254 Z M555.115234,8266.54524 C555.466799,8266.05305 555.642578,8265.33821 555.642578,8264.4007 C555.642578,8263.39289 555.477052,8262.61506 555.145996,8262.06721 C554.81494,8261.51935 554.33887,8261.24543 553.717773,8261.24543 C553.372069,8261.24543 553.013185,8261.33918 552.641113,8261.52668 C552.269041,8261.71418 551.924806,8261.98078 551.608398,8262.32649 L551.608398,8266.60676 C552.18262,8267.07551 552.827145,8267.30988 553.541992,8267.30988 C554.239261,8267.29231 554.76367,8267.03743 555.115234,8266.54524 Z M559.716309,8267.44611 C559.086423,8266.76935 558.771484,8265.73372 558.771484,8264.33918 C558.771484,8262.95636 559.079098,8261.90608 559.694336,8261.1883 C560.309573,8260.47052 561.214838,8260.11164 562.410156,8260.11164 C563.476568,8260.11164 564.280759,8260.45734 564.822754,8261.14875 C565.364749,8261.84016 565.635742,8262.85382 565.635742,8264.18977 C565.635742,8264.24836 565.604981,8264.32893 565.543457,8264.43147 C565.481933,8264.53401 565.408692,8264.62482 565.32373,8264.70393 C565.238769,8264.78303 565.166992,8264.82258 565.108398,8264.82258 L560.177734,8264.82258 C560.242188,8265.69563 560.466307,8266.33283 560.850098,8266.7342 C561.233889,8267.13557 561.812496,8267.33625 562.585938,8267.33625 C563.019533,8267.33625 563.393065,8267.28352 563.706543,8267.17805 C564.020021,8267.07258 564.323241,8266.94367 564.616211,8266.79133 C564.645508,8266.77961 564.689453,8266.7591 564.748047,8266.72981 C564.806641,8266.70051 564.847656,8266.68586 564.871094,8266.68586 C564.935547,8266.68586 565.010253,8266.73713 565.095215,8266.83967 C565.180176,8266.94221 565.253418,8267.05647 565.314941,8267.18244 C565.376465,8267.30842 565.407227,8267.4007 565.407227,8267.4593 C565.407227,8267.5882 565.278322,8267.73176 565.020508,8267.88996 C564.762694,8268.04817 564.418459,8268.18293 563.987793,8268.29426 C563.557127,8268.40559 563.095706,8268.46125 562.603516,8268.46125 C561.308587,8268.46125 560.346195,8268.12288 559.716309,8267.44611 Z M564.238281,8263.69758 C564.238281,8262.05695 563.614264,8261.23664 562.366211,8261.23664 C561.024407,8261.23664 560.294922,8262.05695 560.177734,8263.69758 L564.238281,8263.69758 Z M568.580078,8267.92951 C568.123045,8267.57502 567.770021,8267.08137 567.520996,8266.44856 C567.271971,8265.81574 567.147461,8265.09797 567.147461,8264.29524 C567.147461,8263.41047 567.28076,8262.65315 567.547363,8262.02326 C567.813966,8261.39338 568.187498,8260.91731 568.667969,8260.59504 C569.14844,8260.27277 569.702145,8260.11164 570.329102,8260.11164 C570.780276,8260.11164 571.180174,8260.17902 571.528809,8260.31379 C571.877443,8260.44856 572.221678,8260.64484 572.561523,8260.90266 L572.561523,8256.96516 C572.561523,8256.73664 572.7666,8256.62238 573.176758,8256.62238 L573.24707,8256.62238 C573.663088,8256.62238 573.871094,8256.73664 573.871094,8256.96516 L573.871094,8266.06184 C573.871094,8266.74153 573.90332,8267.23225 573.967773,8267.534 C574.032227,8267.83576 574.064453,8268.00129 574.064453,8268.03059 C574.064453,8268.15949 573.96631,8268.25178 573.77002,8268.30744 C573.573729,8268.36311 573.390626,8268.39094 573.220703,8268.39094 C573.103515,8268.39094 573.009766,8268.33527 572.939453,8268.22395 C572.86914,8268.11262 572.820801,8267.99983 572.794434,8267.88557 C572.768066,8267.77131 572.725586,8267.57356 572.666992,8267.29231 C571.922848,8268.07161 571.093755,8268.46125 570.179688,8268.46125 C569.570309,8268.46125 569.037112,8268.28401 568.580078,8267.92951 Z M571.528809,8267.04621 C571.900881,8266.85871 572.245116,8266.59211 572.561523,8266.24641 L572.561523,8261.96613 C571.999021,8261.49738 571.357425,8261.26301 570.636719,8261.26301 C569.93945,8261.28059 569.413576,8261.53547 569.059082,8262.02766 C568.704588,8262.51985 568.527344,8263.23468 568.527344,8264.17219 C568.527344,8265.18001 568.692869,8265.95783 569.023926,8266.50568 C569.354982,8267.05354 569.831052,8267.32746 570.452148,8267.32746 C570.797853,8267.32746 571.156736,8267.23371 571.528809,8267.04621 Z M580.713379,8267.40217 C580.095212,8266.69611 579.786133,8265.66927 579.786133,8264.3216 C579.786133,8262.97394 580.099606,8261.93538 580.726562,8261.20588 C581.353519,8260.47638 582.247065,8260.11164 583.407227,8260.11164 C584.55567,8260.11164 585.434567,8260.47345 586.043945,8261.19709 C586.653323,8261.92073 586.958008,8262.96222 586.958008,8264.3216 C586.958008,8265.67512 586.657718,8266.70343 586.057129,8267.40656 C585.45654,8268.10969 584.573248,8268.46125 583.407227,8268.46125 C582.229486,8268.46125 581.331546,8268.10823 580.713379,8267.40217 Z M585.050781,8266.59358 C585.414064,8266.09846 585.595703,8265.33235 585.595703,8264.29524 C585.595703,8263.25226 585.414064,8262.48176 585.050781,8261.98371 C584.687498,8261.48566 584.125004,8261.23664 583.363281,8261.23664 C582.607418,8261.23664 582.050783,8261.4842 581.693359,8261.97932 C581.335936,8262.47444 581.157227,8263.2464 581.157227,8264.29524 C581.157227,8265.33821 581.334471,8266.10578 581.688965,8266.59797 C582.043459,8267.09016 582.601559,8267.33625 583.363281,8267.33625 C584.125004,8267.33625 584.687498,8267.08869 585.050781,8266.59358 Z M590.710938,8268.15363 L588.197266,8260.63899 C588.162109,8260.53352 588.144531,8260.46613 588.144531,8260.43684 C588.144531,8260.35481 588.200195,8260.29035 588.311523,8260.24348 C588.422852,8260.1966 588.592772,8260.17316 588.821289,8260.17316 L588.900391,8260.17316 C589.263674,8260.17316 589.471679,8260.2552 589.524414,8260.41926 L591.115234,8265.40266 C591.244141,8265.78938 591.393554,8266.31672 591.563477,8266.98469 L591.660156,8267.35383 L591.730469,8267.35383 L591.835938,8266.88801 C591.964844,8266.27277 592.08496,8265.78938 592.196289,8265.43781 L593.804688,8260.41926 C593.857422,8260.2552 594.071287,8260.17316 594.446289,8260.17316 L594.490234,8260.17316 C594.882814,8260.17316 595.079102,8260.26105 595.079102,8260.43684 C595.079102,8260.49543 595.058594,8260.56574 595.017578,8260.64777 L592.512695,8268.15363 C592.459961,8268.3177 592.249025,8268.39973 591.879883,8268.39973 L591.34375,8268.39973 C590.974608,8268.39973 590.763672,8268.3177 590.710938,8268.15363 Z M597.20166,8267.44611 C596.571774,8266.76935 596.256836,8265.73372 596.256836,8264.33918 C596.256836,8262.95636 596.56445,8261.90608 597.179688,8261.1883 C597.794925,8260.47052 598.700189,8260.11164 599.895508,8260.11164 C600.961919,8260.11164 601.766111,8260.45734 602.308105,8261.14875 C602.8501,8261.84016 603.121094,8262.85382 603.121094,8264.18977 C603.121094,8264.24836 603.090332,8264.32893 603.028809,8264.43147 C602.967285,8264.53401 602.894043,8264.62482 602.809082,8264.70393 C602.724121,8264.78303 602.652344,8264.82258 602.59375,8264.82258 L597.663086,8264.82258 C597.727539,8265.69563 597.951658,8266.33283 598.335449,8266.7342 C598.71924,8267.13557 599.297848,8267.33625 600.071289,8267.33625 C600.504885,8267.33625 600.878416,8267.28352 601.191895,8267.17805 C601.505373,8267.07258 601.808592,8266.94367 602.101562,8266.79133 C602.13086,8266.77961 602.174804,8266.7591 602.233398,8266.72981 C602.291992,8266.70051 602.333008,8266.68586 602.356445,8266.68586 C602.420899,8266.68586 602.495605,8266.73713 602.580566,8266.83967 C602.665528,8266.94221 602.738769,8267.05647 602.800293,8267.18244 C602.861817,8267.30842 602.892578,8267.4007 602.892578,8267.4593 C602.892578,8267.5882 602.763673,8267.73176 602.505859,8267.88996 C602.248046,8268.04817 601.903811,8268.18293 601.473145,8268.29426 C601.042478,8268.40559 600.581057,8268.46125 600.088867,8268.46125 C598.793939,8268.46125 597.831546,8268.12288 597.20166,8267.44611 Z M601.723633,8263.69758 C601.723633,8262.05695 601.099616,8261.23664 599.851562,8261.23664 C598.509759,8261.23664 597.780274,8262.05695 597.663086,8263.69758 L601.723633,8263.69758 Z M605.379883,8268.31623 C605.280273,8268.26057 605.230469,8268.17414 605.230469,8268.05695 L605.230469,8262.57258 C605.230469,8261.89289 605.198243,8261.40217 605.133789,8261.10041 C605.069336,8260.79865 605.037109,8260.63313 605.037109,8260.60383 C605.037109,8260.47492 605.135253,8260.38264 605.331543,8260.32697 C605.527833,8260.27131 605.713866,8260.24348 605.889648,8260.24348 C606.030274,8260.24348 606.135742,8260.31818 606.206055,8260.4676 C606.276368,8260.61701 606.33789,8260.82648 606.390625,8261.09602 L606.43457,8261.28059 C606.991214,8260.50129 607.594723,8260.11164 608.245117,8260.11164 C608.543947,8260.11164 608.76953,8260.16584 608.921875,8260.27424 C609.07422,8260.38264 609.150391,8260.52766 609.150391,8260.7093 C609.150391,8260.88508 609.119629,8261.07111 609.058105,8261.2674 C608.996582,8261.46369 608.924805,8261.56184 608.842773,8261.56184 C608.801758,8261.56184 608.728516,8261.54426 608.623047,8261.5091 C608.529296,8261.46809 608.435547,8261.43733 608.341797,8261.41682 C608.248046,8261.39631 608.12793,8261.38606 607.981445,8261.38606 C607.74121,8261.38606 607.514161,8261.45637 607.300293,8261.59699 C607.086425,8261.73762 606.906251,8261.89289 606.759766,8262.06281 C606.613281,8262.23274 606.540039,8262.32649 606.540039,8262.34406 L606.540039,8268.05695 C606.540039,8268.17414 606.490235,8268.26057 606.390625,8268.31623 C606.291015,8268.3719 606.135743,8268.39973 605.924805,8268.39973 L605.863281,8268.39973 C605.640624,8268.39973 605.479493,8268.3719 605.379883,8268.31623 Z M615.583984,8267.98664 C615.173826,8267.67023 614.96875,8267.11067 614.96875,8266.30793 L614.96875,8261.32453 L614.186523,8261.32453 C614.075195,8261.32453 613.994629,8261.28791 613.944824,8261.21467 C613.895019,8261.14143 613.870117,8261.02278 613.870117,8260.85871 L613.870117,8260.66535 C613.870117,8260.50129 613.895019,8260.38264 613.944824,8260.3094 C613.994629,8260.23615 614.075195,8260.19953 614.186523,8260.19953 L614.96875,8260.19953 L615.15332,8258.56477 C615.165039,8258.33625 615.33203,8258.22199 615.654297,8258.22199 L615.803711,8258.22199 C615.967774,8258.22199 616.08789,8258.24982 616.164062,8258.30549 C616.240235,8258.36115 616.27832,8258.44758 616.27832,8258.56477 L616.27832,8260.19953 L617.587891,8260.19953 C617.699219,8260.19953 617.779785,8260.23615 617.82959,8260.3094 C617.879395,8260.38264 617.904297,8260.50129 617.904297,8260.66535 L617.904297,8260.85871 C617.904297,8261.02278 617.879395,8261.14143 617.82959,8261.21467 C617.779785,8261.28791 617.699219,8261.32453 617.587891,8261.32453 L616.27832,8261.32453 L616.27832,8266.18488 C616.27832,8266.61262 616.353027,8266.91145 616.502441,8267.08137 C616.651856,8267.25129 616.855467,8267.33625 617.113281,8267.33625 C617.312501,8267.33625 617.466308,8267.32453 617.574707,8267.30109 C617.683106,8267.27766 617.754883,8267.26594 617.790039,8267.26594 C617.88379,8267.26594 617.961425,8267.35969 618.022949,8267.54719 C618.084473,8267.73469 618.115234,8267.8841 618.115234,8267.99543 C618.115234,8268.30598 617.737308,8268.46125 616.981445,8268.46125 C616.459958,8268.46125 615.994143,8268.30305 615.583984,8267.98664 Z M620.083984,8268.05695 L620.083984,8256.96516 C620.083984,8256.73664 620.29199,8256.62238 620.708008,8256.62238 L620.769531,8256.62238 C621.191408,8256.62238 621.402344,8256.73664 621.402344,8256.96516 L621.402344,8261.18391 C621.707033,8260.87336 622.064451,8260.61701 622.474609,8260.41486 C622.884768,8260.21271 623.321287,8260.11164 623.78418,8260.11164 C624.440433,8260.11164 625.01904,8260.29621 625.52002,8260.66535 C626.020999,8261.03449 626.271484,8261.69074 626.271484,8262.6341 L626.271484,8268.05695 C626.271484,8268.28547 626.063479,8268.39973 625.647461,8268.39973 L625.585938,8268.39973 C625.16406,8268.39973 624.953125,8268.28547 624.953125,8268.05695 L624.953125,8262.76594 C624.953125,8262.29133 624.818361,8261.91926 624.548828,8261.64973 C624.279296,8261.38019 623.883792,8261.24543 623.362305,8261.24543 C623.0166,8261.24543 622.698732,8261.32746 622.408691,8261.49152 C622.118651,8261.65559 621.878419,8261.83283 621.687988,8262.02326 C621.497558,8262.21369 621.402344,8262.32063 621.402344,8262.34406 L621.402344,8268.05695 C621.402344,8268.28547 621.191408,8268.39973 620.769531,8268.39973 L620.708008,8268.39973 C620.29199,8268.39973 620.083984,8268.28547 620.083984,8268.05695 Z M629.281738,8267.44611 C628.651852,8266.76935 628.336914,8265.73372 628.336914,8264.33918 C628.336914,8262.95636 628.644528,8261.90608 629.259766,8261.1883 C629.875003,8260.47052 630.780267,8260.11164 631.975586,8260.11164 C633.041998,8260.11164 633.846189,8260.45734 634.388184,8261.14875 C634.930178,8261.84016 635.201172,8262.85382 635.201172,8264.18977 C635.201172,8264.24836 635.17041,8264.32893 635.108887,8264.43147 C635.047363,8264.53401 634.974122,8264.62482 634.88916,8264.70393 C634.804199,8264.78303 634.732422,8264.82258 634.673828,8264.82258 L629.743164,8264.82258 C629.807618,8265.69563 630.031736,8266.33283 630.415527,8266.7342 C630.799318,8267.13557 631.377926,8267.33625 632.151367,8267.33625 C632.584963,8267.33625 632.958495,8267.28352 633.271973,8267.17805 C633.585451,8267.07258 633.88867,8266.94367 634.181641,8266.79133 C634.210938,8266.77961 634.254883,8266.7591 634.313477,8266.72981 C634.372071,8266.70051 634.413086,8266.68586 634.436523,8266.68586 C634.500977,8266.68586 634.575683,8266.73713 634.660645,8266.83967 C634.745606,8266.94221 634.818847,8267.05647 634.880371,8267.18244 C634.941895,8267.30842 634.972656,8267.4007 634.972656,8267.4593 C634.972656,8267.5882 634.843751,8267.73176 634.585938,8267.88996 C634.328124,8268.04817 633.983889,8268.18293 633.553223,8268.29426 C633.122556,8268.40559 632.661135,8268.46125 632.168945,8268.46125 C630.874017,8268.46125 629.911624,8268.12288 629.281738,8267.44611 Z M633.803711,8263.69758 C633.803711,8262.05695 633.179694,8261.23664 631.931641,8261.23664 C630.589837,8261.23664 629.860352,8262.05695 629.743164,8263.69758 L633.803711,8263.69758 Z M641.555664,8267.98664 C641.145506,8267.67023 640.94043,8267.11067 640.94043,8266.30793 L640.94043,8256.96516 C640.94043,8256.73664 641.148435,8256.62238 641.564453,8256.62238 L641.634766,8256.62238 C642.044924,8256.62238 642.25,8256.73664 642.25,8256.96516 L642.25,8266.18488 C642.25,8266.61262 642.326171,8266.91145 642.478516,8267.08137 C642.63086,8267.25129 642.835936,8267.33625 643.09375,8267.33625 C643.28711,8267.33625 643.439453,8267.32453 643.550781,8267.30109 C643.66211,8267.27766 643.735351,8267.26594 643.770508,8267.26594 C643.864258,8267.26594 643.941894,8267.35969 644.003418,8267.54719 C644.064942,8267.73469 644.095703,8267.8841 644.095703,8267.99543 C644.095703,8268.30598 643.714848,8268.46125 642.953125,8268.46125 C642.431638,8268.46125 641.965822,8268.30305 641.555664,8267.98664 Z M645.80957,8267.87238 C645.31738,8267.4798 645.071289,8266.8968 645.071289,8266.12336 C645.071289,8265.3089 645.32031,8264.69514 645.818359,8264.28205 C646.316409,8263.86896 646.924313,8263.60236 647.64209,8263.48225 C648.359867,8263.36213 649.23144,8263.29328 650.256836,8263.2757 L650.256836,8262.53742 C650.256836,8262.14484 650.123536,8261.8299 649.856934,8261.5926 C649.590331,8261.35529 649.152347,8261.23664 648.542969,8261.23664 C648.080076,8261.23664 647.674318,8261.29084 647.325684,8261.39924 C646.977049,8261.50764 646.650392,8261.63801 646.345703,8261.79035 C646.216796,8261.85481 646.137695,8261.88703 646.108398,8261.88703 C646.038086,8261.88703 645.96045,8261.83576 645.875488,8261.73322 C645.790527,8261.63068 645.717285,8261.51496 645.655762,8261.38606 C645.594238,8261.25715 645.563477,8261.1634 645.563477,8261.10481 C645.563477,8260.97004 645.702635,8260.82356 645.980957,8260.66535 C646.259279,8260.50715 646.624021,8260.37531 647.075195,8260.26984 C647.526369,8260.16438 647.998044,8260.11164 648.490234,8260.11164 C649.468755,8260.11164 650.227536,8260.32551 650.766602,8260.75324 C651.305667,8261.18098 651.575195,8261.78156 651.575195,8262.555 L651.575195,8266.06184 C651.575195,8266.74153 651.605957,8267.23225 651.66748,8267.534 C651.729004,8267.83576 651.759766,8268.00129 651.759766,8268.03059 C651.759766,8268.15949 651.661622,8268.25178 651.465332,8268.30744 C651.269042,8268.36311 651.085938,8268.39094 650.916016,8268.39094 C650.77539,8268.39094 650.671387,8268.31184 650.604004,8268.15363 C650.536621,8267.99543 650.470703,8267.76692 650.40625,8267.46809 L650.371094,8267.29231 C650.048827,8267.64973 649.669436,8267.93391 649.23291,8268.14484 C648.796385,8268.35578 648.299807,8268.46125 647.743164,8268.46125 C646.946285,8268.46125 646.30176,8268.26496 645.80957,8267.87238 Z M649.131836,8267.04621 C649.495119,8266.85871 649.870115,8266.59211 650.256836,8266.24641 L650.256836,8264.4007 C649.483395,8264.40656 648.847659,8264.43879 648.349609,8264.49738 C647.85156,8264.55598 647.415041,8264.70393 647.040039,8264.94123 C646.665037,8265.17854 646.477539,8265.54621 646.477539,8266.04426 C646.477539,8266.46028 646.590331,8266.77814 646.815918,8266.99787 C647.041505,8267.2176 647.374021,8267.32746 647.813477,8267.32746 C648.329104,8267.32746 648.768553,8267.23371 649.131836,8267.04621 Z M653.526367,8268.08772 C653.444336,8267.89729 653.40332,8267.7259 653.40332,8267.57356 C653.40332,8267.51496 653.417969,8267.45637 653.447266,8267.39777 L658.026367,8261.32453 L654.027344,8261.32453 C653.916015,8261.32453 653.836914,8261.28791 653.790039,8261.21467 C653.743164,8261.14143 653.719727,8261.02278 653.719727,8260.85871 L653.719727,8260.66535 C653.719727,8260.50129 653.743164,8260.38264 653.790039,8260.3094 C653.836914,8260.23615 653.916015,8260.19953 654.027344,8260.19953 L659.511719,8260.19953 C659.582032,8260.19953 659.652343,8260.29621 659.722656,8260.48957 C659.792969,8260.68293 659.828125,8260.85578 659.828125,8261.00813 C659.828125,8261.06086 659.816406,8261.11652 659.792969,8261.17512 L655.231445,8267.24836 L659.529297,8267.24836 C659.640626,8267.24836 659.719726,8267.28498 659.766602,8267.35822 C659.813477,8267.43147 659.836914,8267.55012 659.836914,8267.71418 L659.836914,8267.90754 C659.836914,8268.06574 659.813477,8268.18293 659.766602,8268.2591 C659.719726,8268.33527 659.640626,8268.37336 659.529297,8268.37336 L653.746094,8268.37336 C653.68164,8268.37336 653.608399,8268.27815 653.526367,8268.08772 Z M662.148438,8271.37043 C662.148438,8271.32941 662.171875,8271.24445 662.21875,8271.11555 L663.52832,8267.93391 L660.794922,8260.63899 C660.789062,8260.61555 660.780273,8260.58186 660.768555,8260.53791 C660.756836,8260.49397 660.750977,8260.46027 660.750977,8260.43684 C660.750977,8260.35481 660.80664,8260.29035 660.917969,8260.24348 C661.029297,8260.1966 661.199218,8260.17316 661.427734,8260.17316 L661.550781,8260.17316 C661.902346,8260.17316 662.110351,8260.2552 662.174805,8260.41926 L663.765625,8264.65559 C663.906251,8265.02473 664.073241,8265.54914 664.266602,8266.22883 L664.292969,8266.22883 L664.477539,8265.64875 C664.506836,8265.56086 664.55664,8265.40998 664.626953,8265.19611 C664.697266,8264.98225 664.761718,8264.80207 664.820312,8264.65559 L666.375977,8260.41926 C666.428711,8260.2552 666.642576,8260.17316 667.017578,8260.17316 L667.070312,8260.17316 C667.480471,8260.17316 667.685547,8260.26105 667.685547,8260.43684 C667.685547,8260.47785 667.670899,8260.54816 667.641602,8260.64777 L663.633789,8271.30012 C663.540039,8271.51692 663.293947,8271.62531 662.895508,8271.62531 L662.658203,8271.62531 C662.318358,8271.62531 662.148438,8271.54035 662.148438,8271.37043 Z M673.978516,8267.92951 C673.521482,8267.57502 673.168458,8267.08137 672.919434,8266.44856 C672.670409,8265.81574 672.545898,8265.09797 672.545898,8264.29524 C672.545898,8263.41047 672.679198,8262.65315 672.945801,8262.02326 C673.212404,8261.39338 673.585935,8260.91731 674.066406,8260.59504 C674.546877,8260.27277 675.100583,8260.11164 675.727539,8260.11164 C676.178713,8260.11164 676.578612,8260.17902 676.927246,8260.31379 C677.275881,8260.44856 677.620115,8260.64484 677.959961,8260.90266 L677.959961,8256.96516 C677.959961,8256.73664 678.165037,8256.62238 678.575195,8256.62238 L678.645508,8256.62238 C679.061526,8256.62238 679.269531,8256.73664 679.269531,8256.96516 L679.269531,8266.06184 C679.269531,8266.74153 679.301757,8267.23225 679.366211,8267.534 C679.430664,8267.83576 679.462891,8268.00129 679.462891,8268.03059 C679.462891,8268.15949 679.364747,8268.25178 679.168457,8268.30744 C678.972167,8268.36311 678.789063,8268.39094 678.619141,8268.39094 C678.501953,8268.39094 678.408203,8268.33527 678.337891,8268.22395 C678.267578,8268.11262 678.219238,8267.99983 678.192871,8267.88557 C678.166504,8267.77131 678.124024,8267.57356 678.06543,8267.29231 C677.321285,8268.07161 676.492192,8268.46125 675.578125,8268.46125 C674.968747,8268.46125 674.435549,8268.28401 673.978516,8267.92951 Z M676.927246,8267.04621 C677.299318,8266.85871 677.643553,8266.59211 677.959961,8266.24641 L677.959961,8261.96613 C677.397458,8261.49738 676.755863,8261.26301 676.035156,8261.26301 C675.337887,8261.28059 674.812013,8261.53547 674.45752,8262.02766 C674.103026,8262.51985 673.925781,8263.23468 673.925781,8264.17219 C673.925781,8265.18001 674.091307,8265.95783 674.422363,8266.50568 C674.75342,8267.05354 675.229489,8267.32746 675.850586,8267.32746 C676.196291,8267.32746 676.555174,8267.23371 676.927246,8267.04621 Z M682.358887,8267.40217 C681.74072,8266.69611 681.431641,8265.66927 681.431641,8264.3216 C681.431641,8262.97394 681.745114,8261.93538 682.37207,8261.20588 C682.999027,8260.47638 683.892572,8260.11164 685.052734,8260.11164 C686.201178,8260.11164 687.080075,8260.47345 687.689453,8261.19709 C688.298831,8261.92073 688.603516,8262.96222 688.603516,8264.3216 C688.603516,8265.67512 688.303226,8266.70343 687.702637,8267.40656 C687.102048,8268.10969 686.218756,8268.46125 685.052734,8268.46125 C683.874994,8268.46125 682.977054,8268.10823 682.358887,8267.40217 Z M686.696289,8266.59358 C687.059572,8266.09846 687.241211,8265.33235 687.241211,8264.29524 C687.241211,8263.25226 687.059572,8262.48176 686.696289,8261.98371 C686.333006,8261.48566 685.770512,8261.23664 685.008789,8261.23664 C684.252926,8261.23664 683.696291,8261.4842 683.338867,8261.97932 C682.981444,8262.47444 682.802734,8263.2464 682.802734,8264.29524 C682.802734,8265.33821 682.979979,8266.10578 683.334473,8266.59797 C683.688967,8267.09016 684.247067,8267.33625 685.008789,8267.33625 C685.770512,8267.33625 686.333006,8267.08869 686.696289,8266.59358 Z M691.055664,8271.22102 C690.475583,8270.91047 690.185547,8270.42122 690.185547,8269.75324 C690.185547,8269.29621 690.317381,8268.89778 690.581055,8268.55793 C690.844728,8268.21809 691.187498,8267.9632 691.609375,8267.79328 L691.626953,8267.75813 C691.421874,8267.59992 691.265137,8267.41828 691.156738,8267.2132 C691.048339,8267.00812 690.994141,8266.76496 690.994141,8266.48371 C690.994141,8265.80402 691.287106,8265.2591 691.873047,8264.84895 C691.433592,8264.63801 691.099611,8264.34065 690.871094,8263.95686 C690.642577,8263.57307 690.52832,8263.14094 690.52832,8262.66047 C690.52832,8262.18 690.646971,8261.74641 690.884277,8261.35969 C691.121583,8260.97297 691.471677,8260.66828 691.93457,8260.44563 C692.397463,8260.22297 692.954098,8260.11164 693.604492,8260.11164 C693.950197,8260.11164 694.257811,8260.14094 694.527344,8260.19953 L697.366211,8260.19953 C697.47754,8260.19953 697.558105,8260.23615 697.60791,8260.3094 C697.657715,8260.38264 697.682617,8260.50129 697.682617,8260.66535 L697.682617,8260.85871 C697.682617,8261.02278 697.657715,8261.14143 697.60791,8261.21467 C697.558105,8261.28791 697.47754,8261.32453 697.366211,8261.32453 C696.973631,8261.32453 696.610353,8261.30988 696.276367,8261.28059 L696.258789,8261.30695 C696.393555,8261.49445 696.494629,8261.70393 696.562012,8261.93537 C696.629395,8262.16682 696.663086,8262.40852 696.663086,8262.66047 C696.663086,8263.14094 696.544435,8263.57453 696.307129,8263.96125 C696.069823,8264.34797 695.721194,8264.65266 695.26123,8264.87531 C694.801267,8265.09797 694.243167,8265.2093 693.586914,8265.2093 C693.094724,8265.22688 692.724122,8265.3177 692.475098,8265.48176 C692.226073,8265.64582 692.101562,8265.91535 692.101562,8266.29035 C692.101562,8266.56574 692.190917,8266.77668 692.369629,8266.92316 C692.548341,8267.06965 692.77246,8267.17219 693.041992,8267.23078 C693.311525,8267.28938 693.686521,8267.34504 694.166992,8267.39777 L694.624023,8267.45051 C695.110354,8267.51496 695.517576,8267.60285 695.845703,8267.71418 C696.17383,8267.82551 696.444823,8268.01008 696.658691,8268.26789 C696.87256,8268.52571 696.979492,8268.88019 696.979492,8269.33137 C696.979492,8270.08723 696.677737,8270.66877 696.074219,8271.076 C695.4707,8271.48323 694.585943,8271.68684 693.419922,8271.68684 C692.423823,8271.68684 691.635745,8271.53156 691.055664,8271.22102 Z M694.958008,8263.82063 C695.297853,8263.58625 695.467773,8263.20246 695.467773,8262.66926 C695.467773,8261.66144 694.840827,8261.15754 693.586914,8261.15754 C692.35058,8261.15754 691.732422,8261.66144 691.732422,8262.66926 C691.732422,8263.20246 691.900877,8263.58625 692.237793,8263.82063 C692.574709,8264.055 693.024411,8264.17219 693.586914,8264.17219 C694.161136,8264.17219 694.618162,8264.055 694.958008,8263.82063 Z M695.204102,8270.33772 C695.555666,8270.14729 695.731445,8269.85871 695.731445,8269.47199 C695.731445,8269.22004 695.637696,8269.02522 695.450195,8268.88752 C695.262694,8268.74982 695.032716,8268.65315 694.760254,8268.59748 C694.487792,8268.54182 694.128908,8268.49055 693.683594,8268.44367 C693.378905,8268.40852 693.128419,8268.37629 692.932129,8268.34699 C692.735839,8268.3177 692.555665,8268.27668 692.391602,8268.22395 C691.700192,8268.51692 691.354492,8268.94172 691.354492,8269.49836 C691.354492,8270.24836 692.098625,8270.62336 693.586914,8270.62336 C694.31348,8270.62336 694.852537,8270.52815 695.204102,8270.33772 Z M698.948242,8268.31623 C698.848632,8268.26057 698.798828,8268.17414 698.798828,8268.05695 L698.798828,8267.02863 C698.798828,8266.80012 699.006834,8266.68586 699.422852,8266.68586 L699.686523,8266.68586 C700.102541,8266.68586 700.310547,8266.80012 700.310547,8267.02863 L700.310547,8268.05695 C700.310547,8268.17414 700.260743,8268.26057 700.161133,8268.31623 C700.061523,8268.3719 699.903321,8268.39973 699.686523,8268.39973 L699.422852,8268.39973 C699.206054,8268.39973 699.047852,8268.3719 698.948242,8268.31623 Z" id="body"></path>
        </g>
    </g>
</svg>