<?xml version="1.0" encoding="UTF-8"?>
<svg width="863px" height="30px" viewBox="0 0 863 30" version="1.1" xmlns="http://www.w3.org/2000/svg" xmlns:xlink="http://www.w3.org/1999/xlink">
    <!-- Generator: Sketch 45.2 (43514) - http://www.bohemiancoding.com/sketch -->
    <title>h1</title>
    <desc>Created with Sketch.</desc>
    <defs></defs>
    <g id="Welcome" stroke="none" stroke-width="1" fill="none" fill-rule="evenodd">
        <g id="Desktop-HD-Copy-2" transform="translate(-379.000000, -8062.000000)" fill="#3B4247">
            <path d="M387.5,8064.93261 L387.5,8086.69726 L385.358398,8086.69726 L385.358398,8064.93261 L379.680664,8064.93261 L379.680664,8062.89062 L393.177734,8062.89062 L393.177734,8064.93261 L387.5,8064.93261 Z M411.696914,8086.69726 L411.696914,8075.82324 L402.582656,8075.82324 L402.582656,8086.69726 L400.441055,8086.69726 L400.441055,8062.89062 L402.582656,8062.89062 L402.582656,8073.78124 L411.696914,8073.78124 L411.696914,8062.89062 L413.838516,8062.89062 L413.838516,8086.69726 L411.696914,8086.69726 Z M423.143828,8086.69726 L423.143828,8062.89062 L436.541289,8062.89062 L436.541289,8064.93261 L425.285429,8064.93261 L425.285429,8073.78124 L434.399687,8073.78124 L434.399687,8075.82324 L425.285429,8075.82324 L425.285429,8084.65527 L436.541289,8084.65527 L436.541289,8086.69726 L423.143828,8086.69726 Z M469.213437,8081.18554 C469.213437,8081.96029 469.075092,8082.69075 468.798398,8083.37695 C468.521704,8084.06315 468.139872,8084.66633 467.65289,8085.18652 C467.165909,8085.7067 466.59316,8086.13004 465.934628,8086.45654 C465.276097,8086.78304 464.570537,8086.97395 463.817929,8087.02929 L465.992734,8091.92675 L463.851132,8091.92675 L461.676328,8087.02929 C460.868381,8087.02929 460.107484,8086.87711 459.393613,8086.57275 C458.679742,8086.26839 458.05719,8085.85058 457.525937,8085.31933 C456.994684,8084.78808 456.576883,8084.16829 456.272519,8083.45996 C455.968156,8082.75162 455.815976,8081.99349 455.815976,8081.18554 L455.815976,8068.40234 C455.815976,8067.59439 455.968156,8066.83626 456.272519,8066.12792 C456.576883,8065.41959 456.994684,8064.7998 457.525937,8064.26855 C458.05719,8063.7373 458.679742,8063.3195 459.393613,8063.01513 C460.107484,8062.71077 460.868381,8062.55859 461.676328,8062.55859 L463.369687,8062.55859 C464.177634,8062.55859 464.935764,8062.71077 465.644101,8063.01513 C466.352438,8063.3195 466.972223,8063.7373 467.503476,8064.26855 C468.034729,8064.7998 468.452531,8065.41959 468.756894,8066.12792 C469.061258,8066.83626 469.213437,8067.59439 469.213437,8068.40234 L469.213437,8081.18554 Z M467.071836,8068.40234 C467.071836,8067.87109 466.972227,8067.37581 466.773007,8066.9165 C466.573788,8066.45719 466.302632,8066.05599 465.959531,8065.71289 C465.61643,8065.36978 465.21523,8065.09863 464.755918,8064.89941 C464.296605,8064.70019 463.80133,8064.60058 463.270078,8064.60058 L461.775937,8064.60058 C461.244684,8064.60058 460.749409,8064.70019 460.290097,8064.89941 C459.830785,8065.09863 459.426818,8065.36978 459.078183,8065.71289 C458.729549,8066.05599 458.455626,8066.45719 458.256406,8066.9165 C458.057186,8067.37581 457.957578,8067.87109 457.957578,8068.40234 L457.957578,8081.18554 C457.957578,8081.71679 458.057186,8082.21207 458.256406,8082.67138 C458.455626,8083.13069 458.729549,8083.53466 459.078183,8083.8833 C459.426818,8084.23193 459.830785,8084.50585 460.290097,8084.70507 C460.749409,8084.90429 461.244684,8085.0039 461.775937,8085.0039 L463.270078,8085.0039 C463.80133,8085.0039 464.296605,8084.90429 464.755918,8084.70507 C465.21523,8084.50585 465.61643,8084.23193 465.959531,8083.8833 C466.302632,8083.53466 466.573788,8083.13069 466.773007,8082.67138 C466.972227,8082.21207 467.071836,8081.71679 467.071836,8081.18554 L467.071836,8068.40234 Z M491.235546,8081.18554 C491.235546,8081.99349 491.083367,8082.75162 490.779003,8083.45996 C490.47464,8084.16829 490.056838,8084.78808 489.525585,8085.31933 C488.994333,8085.85058 488.374547,8086.26839 487.66621,8086.57275 C486.957874,8086.87711 486.199743,8087.02929 485.391796,8087.02929 L483.698437,8087.02929 C482.89049,8087.02929 482.129593,8086.87711 481.415722,8086.57275 C480.701851,8086.26839 480.079299,8085.85058 479.548046,8085.31933 C479.016794,8084.78808 478.598992,8084.16829 478.294628,8083.45996 C477.990265,8082.75162 477.838085,8081.99349 477.838085,8081.18554 L477.838085,8062.89062 L479.979687,8062.89062 L479.979687,8081.18554 C479.979687,8081.71679 480.079295,8082.21207 480.278515,8082.67138 C480.477735,8083.13069 480.751658,8083.53466 481.100292,8083.8833 C481.448927,8084.23193 481.852894,8084.50585 482.312207,8084.70507 C482.771519,8084.90429 483.266794,8085.0039 483.798046,8085.0039 L485.292187,8085.0039 C485.82344,8085.0039 486.318715,8084.90429 486.778027,8084.70507 C487.237339,8084.50585 487.638539,8084.23193 487.98164,8083.8833 C488.324741,8083.53466 488.595897,8083.13069 488.795117,8082.67138 C488.994336,8082.21207 489.093945,8081.71679 489.093945,8081.18554 L489.093945,8062.89062 L491.235546,8062.89062 L491.235546,8081.18554 Z M500.208827,8086.69726 L500.208827,8062.89062 L502.350429,8062.89062 L502.350429,8086.69726 L500.208827,8086.69726 Z M524.70457,8081.18554 C524.70457,8081.99349 524.55239,8082.75162 524.248027,8083.45996 C523.943663,8084.16829 523.525861,8084.78808 522.994609,8085.31933 C522.463356,8085.85058 521.843571,8086.26839 521.135234,8086.57275 C520.426897,8086.87711 519.668766,8087.02929 518.86082,8087.02929 L517.16746,8087.02929 C516.359513,8087.02929 515.598616,8086.87711 514.884745,8086.57275 C514.170875,8086.26839 513.548322,8085.85058 513.01707,8085.31933 C512.485817,8084.78808 512.068015,8084.16829 511.763652,8083.45996 C511.459288,8082.75162 511.307109,8081.99349 511.307109,8081.18554 L511.307109,8068.40234 C511.307109,8067.59439 511.459288,8066.83626 511.763652,8066.12792 C512.068015,8065.41959 512.485817,8064.7998 513.01707,8064.26855 C513.548322,8063.7373 514.170875,8063.3195 514.884745,8063.01513 C515.598616,8062.71077 516.359513,8062.55859 517.16746,8062.55859 L518.86082,8062.55859 C519.668766,8062.55859 520.426897,8062.71077 521.135234,8063.01513 C521.843571,8063.3195 522.463356,8063.7373 522.994609,8064.26855 C523.525861,8064.7998 523.943663,8065.41959 524.248027,8066.12792 C524.55239,8066.83626 524.70457,8067.59439 524.70457,8068.40234 L524.70457,8069.36523 L522.562968,8069.69726 L522.562968,8068.40234 C522.562968,8067.87109 522.46336,8067.37581 522.26414,8066.9165 C522.06492,8066.45719 521.793764,8066.05599 521.450663,8065.71289 C521.107563,8065.36978 520.706362,8065.09863 520.24705,8064.89941 C519.787738,8064.70019 519.292463,8064.60058 518.76121,8064.60058 L517.26707,8064.60058 C516.735817,8064.60058 516.240542,8064.70019 515.78123,8064.89941 C515.321918,8065.09863 514.91795,8065.36978 514.569316,8065.71289 C514.220681,8066.05599 513.946758,8066.45719 513.747538,8066.9165 C513.548319,8067.37581 513.44871,8067.87109 513.44871,8068.40234 L513.44871,8081.18554 C513.44871,8081.71679 513.548319,8082.21207 513.747538,8082.67138 C513.946758,8083.13069 514.220681,8083.53466 514.569316,8083.8833 C514.91795,8084.23193 515.321918,8084.50585 515.78123,8084.70507 C516.240542,8084.90429 516.735817,8085.0039 517.26707,8085.0039 L518.76121,8085.0039 C519.292463,8085.0039 519.787738,8084.90429 520.24705,8084.70507 C520.706362,8084.50585 521.107563,8084.23193 521.450663,8083.8833 C521.793764,8083.53466 522.06492,8083.13069 522.26414,8082.67138 C522.46336,8082.21207 522.562968,8081.71679 522.562968,8081.18554 L522.562968,8079.89062 L524.70457,8080.23925 L524.70457,8081.18554 Z M544.950312,8086.69726 L535.985468,8074.79394 L544.950312,8062.89062 L547.606562,8062.89062 L538.459101,8074.79394 L547.606562,8086.69726 L544.950312,8086.69726 Z M533.329218,8086.69726 L533.329218,8062.89062 L535.470819,8062.89062 L535.470819,8086.69726 L533.329218,8086.69726 Z M579.946679,8080.85351 C579.946679,8081.66146 579.794499,8082.41959 579.490136,8083.12792 C579.185772,8083.83626 578.76797,8084.45605 578.236718,8084.9873 C577.705465,8085.51855 577.082913,8085.93635 576.369042,8086.24072 C575.655171,8086.54508 574.894274,8086.69726 574.086327,8086.69726 L566.549218,8086.69726 L566.549218,8062.89062 L574.086327,8062.89062 C574.894274,8062.89062 575.655171,8063.0428 576.369042,8063.34716 C577.082913,8063.65153 577.705465,8064.06933 578.236718,8064.60058 C578.76797,8065.13183 579.185772,8065.75439 579.490136,8066.46826 C579.794499,8067.18213 579.946679,8067.94302 579.946679,8068.75097 L579.946679,8068.98339 C579.946679,8069.54785 579.871972,8070.08739 579.722558,8070.60205 C579.573143,8071.1167 579.360091,8071.59537 579.083397,8072.03808 C578.806703,8072.48079 578.480209,8072.88199 578.103905,8073.24169 C577.727601,8073.6014 577.307033,8073.90299 576.842186,8074.14648 C577.307033,8074.38997 577.727601,8074.69156 578.103905,8075.05126 C578.480209,8075.41097 578.806703,8075.81493 579.083397,8076.26318 C579.360091,8076.71142 579.573143,8077.19286 579.722558,8077.70751 C579.871972,8078.22217 579.946679,8078.76171 579.946679,8079.32617 L579.946679,8080.85351 Z M577.805077,8078.97753 C577.805077,8078.44628 577.705469,8077.95101 577.506249,8077.49169 C577.307029,8077.03238 577.033106,8076.63118 576.684472,8076.28808 C576.335837,8075.94498 575.93187,8075.67382 575.472558,8075.4746 C575.013245,8075.27538 574.51797,8075.17578 573.986718,8075.17578 L568.690819,8075.17578 L568.690819,8084.65527 L573.986718,8084.65527 C574.51797,8084.65527 575.013245,8084.55566 575.472558,8084.35644 C575.93187,8084.15722 576.335837,8083.88606 576.684472,8083.54296 C577.033106,8083.19986 577.307029,8082.79866 577.506249,8082.33935 C577.705469,8081.88004 577.805077,8081.38476 577.805077,8080.85351 L577.805077,8078.97753 Z M577.805077,8068.75097 C577.805077,8068.21972 577.705469,8067.72444 577.506249,8067.26513 C577.307029,8066.80582 577.033106,8066.40185 576.684472,8066.05322 C576.335837,8065.70458 575.93187,8065.43066 575.472558,8065.23144 C575.013245,8065.03222 574.51797,8064.93261 573.986718,8064.93261 L568.690819,8064.93261 L568.690819,8073.13378 L573.986718,8073.13378 C574.51797,8073.13378 575.013245,8073.03418 575.472558,8072.83496 C575.93187,8072.63574 576.335837,8072.36181 576.684472,8072.01318 C577.033106,8071.66454 577.307029,8071.26058 577.506249,8070.80126 C577.705469,8070.34195 577.805077,8069.84668 577.805077,8069.31542 L577.805077,8068.75097 Z M599.080116,8086.69726 L592.622108,8076.5371 L589.683632,8076.5371 L589.683632,8086.69726 L587.54203,8086.69726 L587.54203,8062.89062 L595.095741,8062.89062 C595.903688,8062.89062 596.661818,8063.0428 597.370155,8063.34716 C598.078492,8063.65153 598.698277,8064.06933 599.22953,8064.60058 C599.760783,8065.13183 600.178585,8065.75439 600.482948,8066.46826 C600.787312,8067.18213 600.939491,8067.94302 600.939491,8068.75097 L600.939491,8070.67675 C600.939491,8071.4847 600.787312,8072.2456 600.482948,8072.95947 C600.178585,8073.67334 599.760783,8074.29589 599.22953,8074.82714 C598.698277,8075.3584 598.078492,8075.7762 597.370155,8076.08056 C596.661818,8076.38492 595.903688,8076.5371 595.095741,8076.5371 L601.553749,8086.69726 L599.080116,8086.69726 Z M598.797889,8068.75097 C598.797889,8068.21972 598.698281,8067.72444 598.499061,8067.26513 C598.299842,8066.80582 598.028685,8066.40185 597.685585,8066.05322 C597.342484,8065.70458 596.941284,8065.43066 596.481972,8065.23144 C596.022659,8065.03222 595.527384,8064.93261 594.996132,8064.93261 L589.683632,8064.93261 L589.683632,8074.49511 L594.996132,8074.49511 C595.527384,8074.49511 596.022659,8074.3955 596.481972,8074.19628 C596.941284,8073.99706 597.342484,8073.72314 597.685585,8073.37451 C598.028685,8073.02587 598.299842,8072.6219 598.499061,8072.16259 C598.698281,8071.70328 598.797889,8071.20801 598.797889,8070.67675 L598.797889,8068.75097 Z M622.546561,8081.18554 C622.546561,8081.99349 622.394382,8082.75162 622.090018,8083.45996 C621.785655,8084.16829 621.367853,8084.78808 620.8366,8085.31933 C620.305348,8085.85058 619.685562,8086.26839 618.977225,8086.57275 C618.268888,8086.87711 617.510758,8087.02929 616.702811,8087.02929 L615.009452,8087.02929 C614.201505,8087.02929 613.440608,8086.87711 612.726737,8086.57275 C612.012866,8086.26839 611.390314,8085.85058 610.859061,8085.31933 C610.327809,8084.78808 609.910007,8084.16829 609.605643,8083.45996 C609.30128,8082.75162 609.1491,8081.99349 609.1491,8081.18554 L609.1491,8068.40234 C609.1491,8067.59439 609.30128,8066.83626 609.605643,8066.12792 C609.910007,8065.41959 610.327809,8064.7998 610.859061,8064.26855 C611.390314,8063.7373 612.012866,8063.3195 612.726737,8063.01513 C613.440608,8062.71077 614.201505,8062.55859 615.009452,8062.55859 L616.702811,8062.55859 C617.510758,8062.55859 618.268888,8062.71077 618.977225,8063.01513 C619.685562,8063.3195 620.305348,8063.7373 620.8366,8064.26855 C621.367853,8064.7998 621.785655,8065.41959 622.090018,8066.12792 C622.394382,8066.83626 622.546561,8067.59439 622.546561,8068.40234 L622.546561,8081.18554 Z M620.40496,8068.40234 C620.40496,8067.87109 620.305351,8067.37581 620.106132,8066.9165 C619.906912,8066.45719 619.635756,8066.05599 619.292655,8065.71289 C618.949554,8065.36978 618.548354,8065.09863 618.089042,8064.89941 C617.62973,8064.70019 617.134455,8064.60058 616.603202,8064.60058 L615.109061,8064.60058 C614.577809,8064.60058 614.082534,8064.70019 613.623221,8064.89941 C613.163909,8065.09863 612.759942,8065.36978 612.411307,8065.71289 C612.062673,8066.05599 611.78875,8066.45719 611.58953,8066.9165 C611.39031,8067.37581 611.290702,8067.87109 611.290702,8068.40234 L611.290702,8081.18554 C611.290702,8081.71679 611.39031,8082.21207 611.58953,8082.67138 C611.78875,8083.13069 612.062673,8083.53466 612.411307,8083.8833 C612.759942,8084.23193 613.163909,8084.50585 613.623221,8084.70507 C614.082534,8084.90429 614.577809,8085.0039 615.109061,8085.0039 L616.603202,8085.0039 C617.134455,8085.0039 617.62973,8084.90429 618.089042,8084.70507 C618.548354,8084.50585 618.949554,8084.23193 619.292655,8083.8833 C619.635756,8083.53466 619.906912,8083.13069 620.106132,8082.67138 C620.305351,8082.21207 620.40496,8081.71679 620.40496,8081.18554 L620.40496,8068.40234 Z M647.424139,8086.69726 L646.311835,8086.69726 L641.679999,8068.78417 L641.613592,8067.85449 L641.513983,8068.78417 L636.91535,8086.69726 L635.803046,8086.69726 L629.47785,8062.89062 L631.619452,8062.89062 L636.284491,8080.98632 L636.350897,8081.86621 L636.417303,8080.98632 L640.999335,8062.89062 L642.194647,8062.89062 L646.776678,8080.98632 L646.843085,8081.86621 L646.926092,8080.98632 L651.57453,8062.89062 L653.716131,8062.89062 L647.424139,8086.69726 Z M673.248006,8086.69726 L663.320272,8069.36523 L663.121053,8068.33593 L663.121053,8086.69726 L660.979452,8086.69726 L660.979452,8062.89062 L662.091756,8062.89062 L672.019491,8080.23925 L672.235311,8081.25195 L672.235311,8062.89062 L674.376913,8062.89062 L674.376913,8086.69726 L673.248006,8086.69726 Z M697.503162,8064.93261 L697.503162,8073.78124 L706.61742,8073.78124 L706.61742,8075.82324 L697.503162,8075.82324 L697.503162,8086.69726 L695.361561,8086.69726 L695.361561,8062.89062 L708.759022,8062.89062 L708.759022,8064.93261 L697.503162,8064.93261 Z M729.07117,8081.18554 C729.07117,8081.99349 728.918991,8082.75162 728.614627,8083.45996 C728.310264,8084.16829 727.892462,8084.78808 727.361209,8085.31933 C726.829956,8085.85058 726.210171,8086.26839 725.501834,8086.57275 C724.793497,8086.87711 724.035367,8087.02929 723.22742,8087.02929 L721.534061,8087.02929 C720.726114,8087.02929 719.965217,8086.87711 719.251346,8086.57275 C718.537475,8086.26839 717.914923,8085.85058 717.38367,8085.31933 C716.852417,8084.78808 716.434616,8084.16829 716.130252,8083.45996 C715.825889,8082.75162 715.673709,8081.99349 715.673709,8081.18554 L715.673709,8068.40234 C715.673709,8067.59439 715.825889,8066.83626 716.130252,8066.12792 C716.434616,8065.41959 716.852417,8064.7998 717.38367,8064.26855 C717.914923,8063.7373 718.537475,8063.3195 719.251346,8063.01513 C719.965217,8062.71077 720.726114,8062.55859 721.534061,8062.55859 L723.22742,8062.55859 C724.035367,8062.55859 724.793497,8062.71077 725.501834,8063.01513 C726.210171,8063.3195 726.829956,8063.7373 727.361209,8064.26855 C727.892462,8064.7998 728.310264,8065.41959 728.614627,8066.12792 C728.918991,8066.83626 729.07117,8067.59439 729.07117,8068.40234 L729.07117,8081.18554 Z M726.929569,8068.40234 C726.929569,8067.87109 726.82996,8067.37581 726.63074,8066.9165 C726.431521,8066.45719 726.160365,8066.05599 725.817264,8065.71289 C725.474163,8065.36978 725.072963,8065.09863 724.613651,8064.89941 C724.154338,8064.70019 723.659063,8064.60058 723.127811,8064.60058 L721.63367,8064.60058 C721.102417,8064.60058 720.607142,8064.70019 720.14783,8064.89941 C719.688518,8065.09863 719.284551,8065.36978 718.935916,8065.71289 C718.587282,8066.05599 718.313359,8066.45719 718.114139,8066.9165 C717.914919,8067.37581 717.815311,8067.87109 717.815311,8068.40234 L717.815311,8081.18554 C717.815311,8081.71679 717.914919,8082.21207 718.114139,8082.67138 C718.313359,8083.13069 718.587282,8083.53466 718.935916,8083.8833 C719.284551,8084.23193 719.688518,8084.50585 720.14783,8084.70507 C720.607142,8084.90429 721.102417,8085.0039 721.63367,8085.0039 L723.127811,8085.0039 C723.659063,8085.0039 724.154338,8084.90429 724.613651,8084.70507 C725.072963,8084.50585 725.474163,8084.23193 725.817264,8083.8833 C726.160365,8083.53466 726.431521,8083.13069 726.63074,8082.67138 C726.82996,8082.21207 726.929569,8081.71679 726.929569,8081.18554 L726.929569,8068.40234 Z M748.453631,8086.69726 L743.55617,8076.80273 L738.658709,8086.69726 L736.33449,8086.69726 L742.394061,8074.46191 L736.683123,8062.89062 L738.99074,8062.89062 L743.55617,8072.10449 L748.104998,8062.89062 L750.412615,8062.89062 L744.701678,8074.46191 L750.761248,8086.69726 L748.453631,8086.69726 Z M780.71074,8081.18554 C780.71074,8081.99349 780.558561,8082.75162 780.254197,8083.45996 C779.949834,8084.16829 779.532032,8084.78808 779.000779,8085.31933 C778.469526,8085.85058 777.849741,8086.26839 777.141404,8086.57275 C776.433067,8086.87711 775.674937,8087.02929 774.86699,8087.02929 L774.186326,8087.02929 C773.378379,8087.02929 772.617482,8086.87711 771.903611,8086.57275 C771.18974,8086.26839 770.567188,8085.85058 770.035935,8085.31933 C769.504683,8084.78808 769.086881,8084.16829 768.782517,8083.45996 C768.478154,8082.75162 768.325974,8081.99349 768.325974,8081.18554 L768.325974,8080.23925 L770.467576,8079.89062 L770.467576,8081.18554 C770.467576,8081.71679 770.567184,8082.21207 770.766404,8082.67138 C770.965624,8083.13069 771.239547,8083.53466 771.588181,8083.8833 C771.936816,8084.23193 772.340783,8084.50585 772.800096,8084.70507 C773.259408,8084.90429 773.754683,8085.0039 774.285935,8085.0039 L774.767381,8085.0039 C775.287566,8085.0039 775.780074,8084.90429 776.24492,8084.70507 C776.709766,8084.50585 777.113733,8084.23193 777.456834,8083.8833 C777.799935,8083.53466 778.071091,8083.13069 778.27031,8082.67138 C778.46953,8082.21207 778.569139,8081.71679 778.569139,8081.18554 L778.569139,8062.89062 L780.71074,8062.89062 L780.71074,8081.18554 Z M802.384217,8081.18554 C802.384217,8081.99349 802.232037,8082.75162 801.927674,8083.45996 C801.62331,8084.16829 801.205508,8084.78808 800.674256,8085.31933 C800.143003,8085.85058 799.523217,8086.26839 798.814881,8086.57275 C798.106544,8086.87711 797.348413,8087.02929 796.540467,8087.02929 L794.847107,8087.02929 C794.03916,8087.02929 793.278263,8086.87711 792.564392,8086.57275 C791.850522,8086.26839 791.227969,8085.85058 790.696717,8085.31933 C790.165464,8084.78808 789.747662,8084.16829 789.443299,8083.45996 C789.138935,8082.75162 788.986756,8081.99349 788.986756,8081.18554 L788.986756,8062.89062 L791.128357,8062.89062 L791.128357,8081.18554 C791.128357,8081.71679 791.227966,8082.21207 791.427185,8082.67138 C791.626405,8083.13069 791.900328,8083.53466 792.248963,8083.8833 C792.597597,8084.23193 793.001565,8084.50585 793.460877,8084.70507 C793.920189,8084.90429 794.415464,8085.0039 794.946717,8085.0039 L796.440857,8085.0039 C796.97211,8085.0039 797.467385,8084.90429 797.926697,8084.70507 C798.386009,8084.50585 798.78721,8084.23193 799.13031,8083.8833 C799.473411,8083.53466 799.744567,8083.13069 799.943787,8082.67138 C800.143007,8082.21207 800.242615,8081.71679 800.242615,8081.18554 L800.242615,8062.89062 L802.384217,8062.89062 L802.384217,8081.18554 Z M826.016677,8086.69726 L826.016677,8070.37792 L825.867263,8071.39062 L820.338943,8086.69726 L819.210037,8086.69726 L813.631912,8071.39062 L813.499099,8070.37792 L813.499099,8086.69726 L811.357498,8086.69726 L811.357498,8062.89062 L812.469802,8062.89062 L819.691482,8082.41406 L819.757888,8083.29394 L819.824295,8082.41406 L827.029373,8062.89062 L828.158279,8062.89062 L828.158279,8086.69726 L826.016677,8086.69726 Z M850.844451,8071.70605 C850.844451,8072.514 850.692271,8073.27213 850.387908,8073.98046 C850.083544,8074.6888 849.665742,8075.30859 849.13449,8075.83984 C848.603237,8076.37109 847.980685,8076.78889 847.266814,8077.09326 C846.552943,8077.39762 845.792046,8077.5498 844.984099,8077.5498 L839.588591,8077.5498 L839.588591,8086.69726 L837.44699,8086.69726 L837.44699,8062.89062 L844.984099,8062.89062 C845.792046,8062.89062 846.552943,8063.0428 847.266814,8063.34716 C847.980685,8063.65153 848.603237,8064.06933 849.13449,8064.60058 C849.665742,8065.13183 850.083544,8065.75439 850.387908,8066.46826 C850.692271,8067.18213 850.844451,8067.94302 850.844451,8068.75097 L850.844451,8071.70605 Z M848.702849,8068.75097 C848.702849,8068.21972 848.603241,8067.72444 848.404021,8067.26513 C848.204801,8066.80582 847.930878,8066.40185 847.582244,8066.05322 C847.233609,8065.70458 846.829642,8065.43066 846.37033,8065.23144 C845.911017,8065.03222 845.415742,8064.93261 844.88449,8064.93261 L839.588591,8064.93261 L839.588591,8075.50781 L844.88449,8075.50781 C845.415742,8075.50781 845.911017,8075.4082 846.37033,8075.20898 C846.829642,8075.00976 847.233609,8074.7386 847.582244,8074.3955 C847.930878,8074.0524 848.204801,8073.6512 848.404021,8073.19189 C848.603241,8072.73258 848.702849,8072.2373 848.702849,8071.70605 L848.702849,8068.75097 Z M858.788435,8086.69726 L858.788435,8062.89062 L872.185896,8062.89062 L872.185896,8064.93261 L860.930037,8064.93261 L860.930037,8073.78124 L870.044294,8073.78124 L870.044294,8075.82324 L860.930037,8075.82324 L860.930037,8084.65527 L872.185896,8084.65527 L872.185896,8086.69726 L858.788435,8086.69726 Z M893.527341,8080.85351 C893.527341,8081.66146 893.375162,8082.41959 893.070798,8083.12792 C892.766435,8083.83626 892.348633,8084.45605 891.81738,8084.9873 C891.286128,8085.51855 890.663575,8085.93635 889.949704,8086.24072 C889.235834,8086.54508 888.474936,8086.69726 887.66699,8086.69726 L880.12988,8086.69726 L880.12988,8062.89062 L887.66699,8062.89062 C888.474936,8062.89062 889.235834,8063.0428 889.949704,8063.34716 C890.663575,8063.65153 891.286128,8064.06933 891.81738,8064.60058 C892.348633,8065.13183 892.766435,8065.75439 893.070798,8066.46826 C893.375162,8067.18213 893.527341,8067.94302 893.527341,8068.75097 L893.527341,8080.85351 Z M891.38574,8068.75097 C891.38574,8068.21972 891.286131,8067.72444 891.086911,8067.26513 C890.887692,8066.80582 890.613769,8066.40185 890.265134,8066.05322 C889.9165,8065.70458 889.512532,8065.43066 889.05322,8065.23144 C888.593908,8065.03222 888.098633,8064.93261 887.56738,8064.93261 L882.271482,8064.93261 L882.271482,8084.65527 L887.56738,8084.65527 C888.098633,8084.65527 888.593908,8084.55566 889.05322,8084.35644 C889.512532,8084.15722 889.9165,8083.88606 890.265134,8083.54296 C890.613769,8083.19986 890.887692,8082.79866 891.086911,8082.33935 C891.286131,8081.88004 891.38574,8081.38476 891.38574,8080.85351 L891.38574,8068.75097 Z M927.212185,8081.18554 C927.212185,8081.99349 927.060005,8082.75162 926.755642,8083.45996 C926.451278,8084.16829 926.033476,8084.78808 925.502224,8085.31933 C924.970971,8085.85058 924.351186,8086.26839 923.642849,8086.57275 C922.934512,8086.87711 922.176381,8087.02929 921.368435,8087.02929 L919.675075,8087.02929 C918.867129,8087.02929 918.106231,8086.87711 917.39236,8086.57275 C916.67849,8086.26839 916.055937,8085.85058 915.524685,8085.31933 C914.993432,8084.78808 914.57563,8084.16829 914.271267,8083.45996 C913.966903,8082.75162 913.814724,8081.99349 913.814724,8081.18554 L913.814724,8068.40234 C913.814724,8067.59439 913.966903,8066.83626 914.271267,8066.12792 C914.57563,8065.41959 914.993432,8064.7998 915.524685,8064.26855 C916.055937,8063.7373 916.67849,8063.3195 917.39236,8063.01513 C918.106231,8062.71077 918.867129,8062.55859 919.675075,8062.55859 L921.368435,8062.55859 C922.176381,8062.55859 922.934512,8062.71077 923.642849,8063.01513 C924.351186,8063.3195 924.970971,8063.7373 925.502224,8064.26855 C926.033476,8064.7998 926.451278,8065.41959 926.755642,8066.12792 C927.060005,8066.83626 927.212185,8067.59439 927.212185,8068.40234 L927.212185,8081.18554 Z M925.070583,8068.40234 C925.070583,8067.87109 924.970975,8067.37581 924.771755,8066.9165 C924.572535,8066.45719 924.301379,8066.05599 923.958278,8065.71289 C923.615178,8065.36978 923.213977,8065.09863 922.754665,8064.89941 C922.295353,8064.70019 921.800078,8064.60058 921.268825,8064.60058 L919.774685,8064.60058 C919.243432,8064.60058 918.748157,8064.70019 918.288845,8064.89941 C917.829533,8065.09863 917.425565,8065.36978 917.076931,8065.71289 C916.728296,8066.05599 916.454373,8066.45719 916.255153,8066.9165 C916.055934,8067.37581 915.956325,8067.87109 915.956325,8068.40234 L915.956325,8081.18554 C915.956325,8081.71679 916.055934,8082.21207 916.255153,8082.67138 C916.454373,8083.13069 916.728296,8083.53466 917.076931,8083.8833 C917.425565,8084.23193 917.829533,8084.50585 918.288845,8084.70507 C918.748157,8084.90429 919.243432,8085.0039 919.774685,8085.0039 L921.268825,8085.0039 C921.800078,8085.0039 922.295353,8084.90429 922.754665,8084.70507 C923.213977,8084.50585 923.615178,8084.23193 923.958278,8083.8833 C924.301379,8083.53466 924.572535,8083.13069 924.771755,8082.67138 C924.970975,8082.21207 925.070583,8081.71679 925.070583,8081.18554 L925.070583,8068.40234 Z M941.282146,8081.46777 L941.348552,8082.34765 L941.414958,8081.46777 L946.694255,8062.89062 L948.902263,8062.89062 L941.896403,8086.69726 L940.767497,8086.69726 L933.794841,8062.89062 L936.01945,8062.89062 L941.282146,8081.46777 Z M955.81695,8086.69726 L955.81695,8062.89062 L969.214411,8062.89062 L969.214411,8064.93261 L957.958552,8064.93261 L957.958552,8073.78124 L967.072809,8073.78124 L967.072809,8075.82324 L957.958552,8075.82324 L957.958552,8084.65527 L969.214411,8084.65527 L969.214411,8086.69726 L955.81695,8086.69726 Z M988.347848,8086.69726 L981.889841,8076.5371 L978.951364,8076.5371 L978.951364,8086.69726 L976.809762,8086.69726 L976.809762,8062.89062 L984.363473,8062.89062 C985.17142,8062.89062 985.929551,8063.0428 986.637887,8063.34716 C987.346224,8063.65153 987.96601,8064.06933 988.497262,8064.60058 C989.028515,8065.13183 989.446317,8065.75439 989.75068,8066.46826 C990.055044,8067.18213 990.207223,8067.94302 990.207223,8068.75097 L990.207223,8070.67675 C990.207223,8071.4847 990.055044,8072.2456 989.75068,8072.95947 C989.446317,8073.67334 989.028515,8074.29589 988.497262,8074.82714 C987.96601,8075.3584 987.346224,8075.7762 986.637887,8076.08056 C985.929551,8076.38492 985.17142,8076.5371 984.363473,8076.5371 L990.821481,8086.69726 L988.347848,8086.69726 Z M988.065622,8068.75097 C988.065622,8068.21972 987.966013,8067.72444 987.766794,8067.26513 C987.567574,8066.80582 987.296418,8066.40185 986.953317,8066.05322 C986.610216,8065.70458 986.209016,8065.43066 985.749704,8065.23144 C985.290392,8065.03222 984.795117,8064.93261 984.263864,8064.93261 L978.951364,8064.93261 L978.951364,8074.49511 L984.263864,8074.49511 C984.795117,8074.49511 985.290392,8074.3955 985.749704,8074.19628 C986.209016,8073.99706 986.610216,8073.72314 986.953317,8073.37451 C987.296418,8073.02587 987.567574,8072.6219 987.766794,8072.16259 C987.966013,8071.70328 988.065622,8071.20801 988.065622,8070.67675 L988.065622,8068.75097 Z M1016.22215,8064.93261 L1016.22215,8086.69726 L1014.08054,8086.69726 L1014.08054,8064.93261 L1008.40281,8064.93261 L1008.40281,8062.89062 L1021.89988,8062.89062 L1021.89988,8064.93261 L1016.22215,8064.93261 Z M1040.41906,8086.69726 L1040.41906,8075.82324 L1031.3048,8075.82324 L1031.3048,8086.69726 L1029.1632,8086.69726 L1029.1632,8062.89062 L1031.3048,8062.89062 L1031.3048,8073.78124 L1040.41906,8073.78124 L1040.41906,8062.89062 L1042.56066,8062.89062 L1042.56066,8086.69726 L1040.41906,8086.69726 Z M1051.86597,8086.69726 L1051.86597,8062.89062 L1065.26343,8062.89062 L1065.26343,8064.93261 L1054.00757,8064.93261 L1054.00757,8073.78124 L1063.12183,8073.78124 L1063.12183,8075.82324 L1054.00757,8075.82324 L1054.00757,8084.65527 L1065.26343,8084.65527 L1065.26343,8086.69726 L1051.86597,8086.69726 Z M1084.53812,8086.69726 L1084.53812,8062.89062 L1086.67972,8062.89062 L1086.67972,8084.65527 L1095.79398,8084.65527 L1095.79398,8086.69726 L1084.53812,8086.69726 Z M1111.98894,8081.15234 L1104.45183,8081.15234 L1102.89129,8086.69726 L1100.66668,8086.69726 L1107.63933,8062.89062 L1108.76824,8062.89062 L1115.7741,8086.69726 L1113.56609,8086.69726 L1111.98894,8081.15234 Z M1105.03289,8079.11035 L1111.42449,8079.11035 L1108.28679,8068.13671 L1108.22039,8067.25683 L1108.15398,8068.13671 L1105.03289,8079.11035 Z M1121.32746,8086.69726 L1121.32746,8085.68457 L1131.93586,8064.93261 L1121.65949,8064.93261 L1121.65949,8062.89062 L1134.72492,8062.89062 L1134.72492,8063.91992 L1124.11652,8084.65527 L1134.72492,8084.65527 L1134.72492,8086.69726 L1121.32746,8086.69726 Z M1148.92769,8075.30859 L1148.92769,8086.69726 L1146.78609,8086.69726 L1146.78609,8075.34179 L1140.62691,8062.89062 L1142.93453,8062.89062 L1147.83199,8072.78515 L1152.72945,8062.89062 L1155.03707,8062.89062 L1148.92769,8075.30859 Z M1187.37718,8080.85351 C1187.37718,8081.66146 1187.225,8082.41959 1186.92064,8083.12792 C1186.61628,8083.83626 1186.19847,8084.45605 1185.66722,8084.9873 C1185.13597,8085.51855 1184.51342,8085.93635 1183.79955,8086.24072 C1183.08568,8086.54508 1182.32478,8086.69726 1181.51683,8086.69726 L1173.97972,8086.69726 L1173.97972,8062.89062 L1181.51683,8062.89062 C1182.32478,8062.89062 1183.08568,8063.0428 1183.79955,8063.34716 C1184.51342,8063.65153 1185.13597,8064.06933 1185.66722,8064.60058 C1186.19847,8065.13183 1186.61628,8065.75439 1186.92064,8066.46826 C1187.225,8067.18213 1187.37718,8067.94302 1187.37718,8068.75097 L1187.37718,8080.85351 Z M1185.23558,8068.75097 C1185.23558,8068.21972 1185.13597,8067.72444 1184.93675,8067.26513 C1184.73753,8066.80582 1184.46361,8066.40185 1184.11498,8066.05322 C1183.76634,8065.70458 1183.36237,8065.43066 1182.90306,8065.23144 C1182.44375,8065.03222 1181.94847,8064.93261 1181.41722,8064.93261 L1176.12132,8064.93261 L1176.12132,8084.65527 L1181.41722,8084.65527 C1181.94847,8084.65527 1182.44375,8084.55566 1182.90306,8084.35644 C1183.36237,8084.15722 1183.76634,8083.88606 1184.11498,8083.54296 C1184.46361,8083.19986 1184.73753,8082.79866 1184.93675,8082.33935 C1185.13597,8081.88004 1185.23558,8081.38476 1185.23558,8080.85351 L1185.23558,8068.75097 Z M1209.38269,8081.18554 C1209.38269,8081.99349 1209.23051,8082.75162 1208.92615,8083.45996 C1208.62178,8084.16829 1208.20398,8084.78808 1207.67273,8085.31933 C1207.14148,8085.85058 1206.52169,8086.26839 1205.81335,8086.57275 C1205.10502,8086.87711 1204.34689,8087.02929 1203.53894,8087.02929 L1201.84558,8087.02929 C1201.03763,8087.02929 1200.27674,8086.87711 1199.56287,8086.57275 C1198.849,8086.26839 1198.22644,8085.85058 1197.69519,8085.31933 C1197.16394,8084.78808 1196.74614,8084.16829 1196.44177,8083.45996 C1196.13741,8082.75162 1195.98523,8081.99349 1195.98523,8081.18554 L1195.98523,8068.40234 C1195.98523,8067.59439 1196.13741,8066.83626 1196.44177,8066.12792 C1196.74614,8065.41959 1197.16394,8064.7998 1197.69519,8064.26855 C1198.22644,8063.7373 1198.849,8063.3195 1199.56287,8063.01513 C1200.27674,8062.71077 1201.03763,8062.55859 1201.84558,8062.55859 L1203.53894,8062.55859 C1204.34689,8062.55859 1205.10502,8062.71077 1205.81335,8063.01513 C1206.52169,8063.3195 1207.14148,8063.7373 1207.67273,8064.26855 C1208.20398,8064.7998 1208.62178,8065.41959 1208.92615,8066.12792 C1209.23051,8066.83626 1209.38269,8067.59439 1209.38269,8068.40234 L1209.38269,8081.18554 Z M1207.24109,8068.40234 C1207.24109,8067.87109 1207.14148,8067.37581 1206.94226,8066.9165 C1206.74304,8066.45719 1206.47189,8066.05599 1206.12878,8065.71289 C1205.78568,8065.36978 1205.38448,8065.09863 1204.92517,8064.89941 C1204.46586,8064.70019 1203.97058,8064.60058 1203.43933,8064.60058 L1201.94519,8064.60058 C1201.41394,8064.60058 1200.91866,8064.70019 1200.45935,8064.89941 C1200.00004,8065.09863 1199.59607,8065.36978 1199.24744,8065.71289 C1198.8988,8066.05599 1198.62488,8066.45719 1198.42566,8066.9165 C1198.22644,8067.37581 1198.12683,8067.87109 1198.12683,8068.40234 L1198.12683,8081.18554 C1198.12683,8081.71679 1198.22644,8082.21207 1198.42566,8082.67138 C1198.62488,8083.13069 1198.8988,8083.53466 1199.24744,8083.8833 C1199.59607,8084.23193 1200.00004,8084.50585 1200.45935,8084.70507 C1200.91866,8084.90429 1201.41394,8085.0039 1201.94519,8085.0039 L1203.43933,8085.0039 C1203.97058,8085.0039 1204.46586,8084.90429 1204.92517,8084.70507 C1205.38448,8084.50585 1205.78568,8084.23193 1206.12878,8083.8833 C1206.47189,8083.53466 1206.74304,8083.13069 1206.94226,8082.67138 C1207.14148,8082.21207 1207.24109,8081.71679 1207.24109,8081.18554 L1207.24109,8068.40234 Z M1231.4048,8086.69726 L1230.72414,8086.69726 L1229.47902,8084.78808 C1228.95883,8085.47428 1228.32798,8086.01936 1227.58644,8086.42333 C1226.8449,8086.82731 1226.02036,8087.02929 1225.11281,8087.02929 L1223.86769,8087.02929 C1223.05974,8087.02929 1222.29885,8086.87711 1221.58498,8086.57275 C1220.87111,8086.26839 1220.24855,8085.85058 1219.7173,8085.31933 C1219.18605,8084.78808 1218.76825,8084.16829 1218.46388,8083.45996 C1218.15952,8082.75162 1218.00734,8081.99349 1218.00734,8081.18554 L1218.00734,8068.40234 C1218.00734,8067.59439 1218.15952,8066.83626 1218.46388,8066.12792 C1218.76825,8065.41959 1219.18605,8064.7998 1219.7173,8064.26855 C1220.24855,8063.7373 1220.87111,8063.3195 1221.58498,8063.01513 C1222.29885,8062.71077 1223.05974,8062.55859 1223.86769,8062.55859 L1225.56105,8062.55859 C1226.369,8062.55859 1227.12713,8062.71077 1227.83546,8063.01513 C1228.5438,8063.3195 1229.16359,8063.7373 1229.69484,8064.26855 C1230.22609,8064.7998 1230.64389,8065.41959 1230.94826,8066.12792 C1231.25262,8066.83626 1231.4048,8067.59439 1231.4048,8068.40234 L1231.4048,8069.36523 L1229.2632,8069.69726 L1229.2632,8068.40234 C1229.2632,8067.87109 1229.16359,8067.37581 1228.96437,8066.9165 C1228.76515,8066.45719 1228.49399,8066.05599 1228.15089,8065.71289 C1227.80779,8065.36978 1227.40659,8065.09863 1226.94728,8064.89941 C1226.48797,8064.70019 1225.99269,8064.60058 1225.46144,8064.60058 L1223.9673,8064.60058 C1223.43605,8064.60058 1222.94077,8064.70019 1222.48146,8064.89941 C1222.02215,8065.09863 1221.61818,8065.36978 1221.26955,8065.71289 C1220.92091,8066.05599 1220.64699,8066.45719 1220.44777,8066.9165 C1220.24855,8067.37581 1220.14894,8067.87109 1220.14894,8068.40234 L1220.14894,8081.18554 C1220.14894,8081.71679 1220.24855,8082.21207 1220.44777,8082.67138 C1220.64699,8083.13069 1220.92091,8083.53466 1221.26955,8083.8833 C1221.61818,8084.23193 1222.02215,8084.50585 1222.48146,8084.70507 C1222.94077,8084.90429 1223.43605,8085.0039 1223.9673,8085.0039 L1225.46144,8085.0039 C1225.99269,8085.0039 1226.48797,8084.90429 1226.94728,8084.70507 C1227.40659,8084.50585 1227.80779,8084.23193 1228.15089,8083.8833 C1228.49399,8083.53466 1228.76515,8083.13069 1228.96437,8082.67138 C1229.16359,8082.21207 1229.2632,8081.71679 1229.2632,8081.18554 L1229.2632,8076.22167 L1225.46144,8076.22167 L1225.46144,8074.17968 L1231.4048,8074.17968 L1231.4048,8086.69726 Z M1239.41519,8086.69726 L1239.41519,8084.14062 L1241.97183,8084.14062 L1241.97183,8086.69726 L1239.41519,8086.69726 Z" id="h1"></path>
        </g>
    </g>
</svg>