<?xml version="1.0" encoding="UTF-8"?>
<svg width="561px" height="22px" viewBox="0 0 561 22" version="1.1" xmlns="http://www.w3.org/2000/svg" xmlns:xlink="http://www.w3.org/1999/xlink">
    <!-- Generator: Sketch 45.2 (43514) - http://www.bohemiancoding.com/sketch -->
    <title>h2</title>
    <desc>Created with Sketch.</desc>
    <defs></defs>
    <g id="Welcome" stroke="none" stroke-width="1" fill="none" fill-rule="evenodd">
        <g id="Desktop-HD-Copy-2" transform="translate(-379.000000, -8131.000000)" fill="#B1B6B9">
            <path d="M385,8133.55935 L385,8148.92263 L383.488281,8148.92263 L383.488281,8133.55935 L379.480469,8133.55935 L379.480469,8132.11794 L389.007812,8132.11794 L389.007812,8133.55935 L385,8133.55935 Z M400.955469,8148.92263 L400.955469,8141.24685 L394.521875,8141.24685 L394.521875,8148.92263 L393.010156,8148.92263 L393.010156,8132.11794 L394.521875,8132.11794 L394.521875,8139.80544 L400.955469,8139.80544 L400.955469,8132.11794 L402.467188,8132.11794 L402.467188,8148.92263 L400.955469,8148.92263 Z M407.910938,8148.92263 L407.910938,8132.11794 L417.367969,8132.11794 L417.367969,8133.55935 L409.422656,8133.55935 L409.422656,8139.80544 L415.85625,8139.80544 L415.85625,8141.24685 L409.422656,8141.24685 L409.422656,8147.48122 L417.367969,8147.48122 L417.367969,8148.92263 L407.910938,8148.92263 Z M438.18125,8145.032 C438.18125,8145.57888 438.083595,8146.0945 437.888281,8146.57888 C437.692968,8147.06325 437.423439,8147.48903 437.079688,8147.85622 C436.735936,8148.22341 436.331643,8148.52224 435.866797,8148.75271 C435.401951,8148.98318 434.903909,8149.11794 434.372656,8149.157 L435.907813,8152.61403 L434.396094,8152.61403 L432.860938,8149.157 C432.290622,8149.157 431.753518,8149.04958 431.249609,8148.83474 C430.745701,8148.61989 430.306252,8148.32497 429.93125,8147.94997 C429.556248,8147.57497 429.261329,8147.13747 429.046484,8146.63747 C428.83164,8146.13747 428.724219,8145.60232 428.724219,8145.032 L428.724219,8136.00856 C428.724219,8135.43825 428.83164,8134.9031 429.046484,8134.4031 C429.261329,8133.90309 429.556248,8133.4656 429.93125,8133.0906 C430.306252,8132.71559 430.745701,8132.42068 431.249609,8132.20583 C431.753518,8131.99099 432.290622,8131.88356 432.860938,8131.88356 L434.05625,8131.88356 C434.626565,8131.88356 435.161716,8131.99099 435.661719,8132.20583 C436.161721,8132.42068 436.599217,8132.71559 436.974219,8133.0906 C437.349221,8133.4656 437.64414,8133.90309 437.858984,8134.4031 C438.073829,8134.9031 438.18125,8135.43825 438.18125,8136.00856 L438.18125,8145.032 Z M436.669531,8136.00856 C436.669531,8135.63356 436.59922,8135.28396 436.458594,8134.95974 C436.317968,8134.63552 436.126564,8134.35232 435.884375,8134.11013 C435.642186,8133.86794 435.358986,8133.67653 435.034766,8133.53591 C434.710545,8133.39528 434.360939,8133.32497 433.985938,8133.32497 L432.93125,8133.32497 C432.556248,8133.32497 432.206642,8133.39528 431.882422,8133.53591 C431.558202,8133.67653 431.273048,8133.86794 431.026953,8134.11013 C430.780858,8134.35232 430.587501,8134.63552 430.446875,8134.95974 C430.306249,8135.28396 430.235938,8135.63356 430.235938,8136.00856 L430.235938,8145.032 C430.235938,8145.407 430.306249,8145.75661 430.446875,8146.08083 C430.587501,8146.40505 430.780858,8146.6902 431.026953,8146.9363 C431.273048,8147.18239 431.558202,8147.37575 431.882422,8147.51638 C432.206642,8147.657 432.556248,8147.72731 432.93125,8147.72731 L433.985938,8147.72731 C434.360939,8147.72731 434.710545,8147.657 435.034766,8147.51638 C435.358986,8147.37575 435.642186,8147.18239 435.884375,8146.9363 C436.126564,8146.6902 436.317968,8146.40505 436.458594,8146.08083 C436.59922,8145.75661 436.669531,8145.407 436.669531,8145.032 L436.669531,8136.00856 Z M452.601563,8145.032 C452.601563,8145.60232 452.494142,8146.13747 452.279297,8146.63747 C452.064452,8147.13747 451.769533,8147.57497 451.394531,8147.94997 C451.019529,8148.32497 450.582034,8148.61989 450.082031,8148.83474 C449.582029,8149.04958 449.046878,8149.157 448.476563,8149.157 L447.28125,8149.157 C446.710935,8149.157 446.173831,8149.04958 445.669922,8148.83474 C445.166013,8148.61989 444.726564,8148.32497 444.351563,8147.94997 C443.976561,8147.57497 443.681642,8147.13747 443.466797,8146.63747 C443.251952,8146.13747 443.144531,8145.60232 443.144531,8145.032 L443.144531,8132.11794 L444.65625,8132.11794 L444.65625,8145.032 C444.65625,8145.407 444.726562,8145.75661 444.867188,8146.08083 C445.007813,8146.40505 445.201171,8146.6902 445.447266,8146.9363 C445.693361,8147.18239 445.978514,8147.37575 446.302734,8147.51638 C446.626955,8147.657 446.976561,8147.72731 447.351563,8147.72731 L448.40625,8147.72731 C448.781252,8147.72731 449.130858,8147.657 449.455078,8147.51638 C449.779299,8147.37575 450.062499,8147.18239 450.304688,8146.9363 C450.546876,8146.6902 450.738281,8146.40505 450.878906,8146.08083 C451.019532,8145.75661 451.089844,8145.407 451.089844,8145.032 L451.089844,8132.11794 L452.601563,8132.11794 L452.601563,8145.032 Z M457.810938,8148.92263 L457.810938,8132.11794 L459.322656,8132.11794 L459.322656,8148.92263 L457.810938,8148.92263 Z M473.977344,8145.032 C473.977344,8145.60232 473.869923,8146.13747 473.655078,8146.63747 C473.440233,8147.13747 473.145315,8147.57497 472.770313,8147.94997 C472.395311,8148.32497 471.957815,8148.61989 471.457813,8148.83474 C470.95781,8149.04958 470.422659,8149.157 469.852344,8149.157 L468.657031,8149.157 C468.086716,8149.157 467.549612,8149.04958 467.045703,8148.83474 C466.541795,8148.61989 466.102346,8148.32497 465.727344,8147.94997 C465.352342,8147.57497 465.057423,8147.13747 464.842578,8146.63747 C464.627733,8146.13747 464.520313,8145.60232 464.520313,8145.032 L464.520313,8136.00856 C464.520313,8135.43825 464.627733,8134.9031 464.842578,8134.4031 C465.057423,8133.90309 465.352342,8133.4656 465.727344,8133.0906 C466.102346,8132.71559 466.541795,8132.42068 467.045703,8132.20583 C467.549612,8131.99099 468.086716,8131.88356 468.657031,8131.88356 L469.852344,8131.88356 C470.422659,8131.88356 470.95781,8131.99099 471.457813,8132.20583 C471.957815,8132.42068 472.395311,8132.71559 472.770313,8133.0906 C473.145315,8133.4656 473.440233,8133.90309 473.655078,8134.4031 C473.869923,8134.9031 473.977344,8135.43825 473.977344,8136.00856 L473.977344,8136.68825 L472.465625,8136.92263 L472.465625,8136.00856 C472.465625,8135.63356 472.395313,8135.28396 472.254688,8134.95974 C472.114062,8134.63552 471.922658,8134.35232 471.680469,8134.11013 C471.43828,8133.86794 471.15508,8133.67653 470.83086,8133.53591 C470.506639,8133.39528 470.157033,8133.32497 469.782031,8133.32497 L468.727344,8133.32497 C468.352342,8133.32497 468.002736,8133.39528 467.678516,8133.53591 C467.354295,8133.67653 467.069142,8133.86794 466.823047,8134.11013 C466.576952,8134.35232 466.383595,8134.63552 466.242969,8134.95974 C466.102343,8135.28396 466.032031,8135.63356 466.032031,8136.00856 L466.032031,8145.032 C466.032031,8145.407 466.102343,8145.75661 466.242969,8146.08083 C466.383595,8146.40505 466.576952,8146.6902 466.823047,8146.9363 C467.069142,8147.18239 467.354295,8147.37575 467.678516,8147.51638 C468.002736,8147.657 468.352342,8147.72731 468.727344,8147.72731 L469.782031,8147.72731 C470.157033,8147.72731 470.506639,8147.657 470.83086,8147.51638 C471.15508,8147.37575 471.43828,8147.18239 471.680469,8146.9363 C471.922658,8146.6902 472.114062,8146.40505 472.254688,8146.08083 C472.395313,8145.75661 472.465625,8145.407 472.465625,8145.032 L472.465625,8144.11794 L473.977344,8144.36403 L473.977344,8145.032 Z M487.14375,8148.92263 L480.815625,8140.52028 L487.14375,8132.11794 L489.01875,8132.11794 L482.561719,8140.52028 L489.01875,8148.92263 L487.14375,8148.92263 Z M478.940625,8148.92263 L478.940625,8132.11794 L480.452344,8132.11794 L480.452344,8148.92263 L478.940625,8148.92263 Z M509.597656,8144.79763 C509.597656,8145.36794 509.490236,8145.90309 509.275391,8146.4031 C509.060546,8146.9031 508.765627,8147.34059 508.390625,8147.7156 C508.015623,8148.0906 507.576175,8148.38552 507.072266,8148.60036 C506.568357,8148.81521 506.031253,8148.92263 505.460938,8148.92263 L500.140625,8148.92263 L500.140625,8132.11794 L505.460938,8132.11794 C506.031253,8132.11794 506.568357,8132.22536 507.072266,8132.44021 C507.576175,8132.65505 508.015623,8132.94997 508.390625,8133.32497 C508.765627,8133.69997 509.060546,8134.13942 509.275391,8134.64333 C509.490236,8135.14724 509.597656,8135.68434 509.597656,8136.25466 L509.597656,8136.41872 C509.597656,8136.81716 509.544923,8137.19802 509.439453,8137.5613 C509.333984,8137.92458 509.183595,8138.26247 508.988281,8138.57497 C508.792968,8138.88747 508.562502,8139.17067 508.296875,8139.42458 C508.031249,8139.67849 507.734377,8139.89138 507.40625,8140.06325 C507.734377,8140.23513 508.031249,8140.44802 508.296875,8140.70192 C508.562502,8140.95583 508.792968,8141.24098 508.988281,8141.55739 C509.183595,8141.8738 509.333984,8142.21364 509.439453,8142.57692 C509.544923,8142.94021 509.597656,8143.32106 509.597656,8143.7195 L509.597656,8144.79763 Z M508.085938,8143.47341 C508.085938,8143.09841 508.015626,8142.7488 507.875,8142.42458 C507.734375,8142.10036 507.541017,8141.81716 507.294922,8141.57497 C507.048827,8141.33278 506.763674,8141.14138 506.439453,8141.00075 C506.115233,8140.86013 505.765627,8140.78981 505.390625,8140.78981 L501.652344,8140.78981 L501.652344,8147.48122 L505.390625,8147.48122 C505.765627,8147.48122 506.115233,8147.41091 506.439453,8147.27028 C506.763674,8147.12966 507.048827,8146.93825 507.294922,8146.69606 C507.541017,8146.45388 507.734375,8146.17068 507.875,8145.84646 C508.015626,8145.52223 508.085938,8145.17263 508.085938,8144.79763 L508.085938,8143.47341 Z M508.085938,8136.25466 C508.085938,8135.87966 508.015626,8135.53005 507.875,8135.20583 C507.734375,8134.88161 507.541017,8134.59646 507.294922,8134.35036 C507.048827,8134.10427 506.763674,8133.91091 506.439453,8133.77028 C506.115233,8133.62966 505.765627,8133.55935 505.390625,8133.55935 L501.652344,8133.55935 L501.652344,8139.34841 L505.390625,8139.34841 C505.765627,8139.34841 506.115233,8139.2781 506.439453,8139.13747 C506.763674,8138.99685 507.048827,8138.80349 507.294922,8138.55739 C507.541017,8138.3113 507.734375,8138.02614 507.875,8137.70192 C508.015626,8137.3777 508.085938,8137.0281 508.085938,8136.6531 L508.085938,8136.25466 Z M521.978907,8148.92263 L517.420313,8141.75075 L515.346094,8141.75075 L515.346094,8148.92263 L513.834375,8148.92263 L513.834375,8132.11794 L519.166407,8132.11794 C519.736722,8132.11794 520.271873,8132.22536 520.771875,8132.44021 C521.271878,8132.65505 521.709373,8132.94997 522.084375,8133.32497 C522.459377,8133.69997 522.754296,8134.13942 522.969141,8134.64333 C523.183986,8135.14724 523.291407,8135.68434 523.291407,8136.25466 L523.291407,8137.61403 C523.291407,8138.18435 523.183986,8138.72145 522.969141,8139.22536 C522.754296,8139.72927 522.459377,8140.16872 522.084375,8140.54372 C521.709373,8140.91872 521.271878,8141.21364 520.771875,8141.42849 C520.271873,8141.64333 519.736722,8141.75075 519.166407,8141.75075 L523.725,8148.92263 L521.978907,8148.92263 Z M521.779688,8136.25466 C521.779688,8135.87966 521.709376,8135.53005 521.56875,8135.20583 C521.428125,8134.88161 521.23672,8134.59646 520.994532,8134.35036 C520.752343,8134.10427 520.469143,8133.91091 520.144922,8133.77028 C519.820702,8133.62966 519.471096,8133.55935 519.096094,8133.55935 L515.346094,8133.55935 L515.346094,8140.30935 L519.096094,8140.30935 C519.471096,8140.30935 519.820702,8140.23903 520.144922,8140.09841 C520.469143,8139.95778 520.752343,8139.76443 520.994532,8139.51833 C521.23672,8139.27224 521.428125,8138.98708 521.56875,8138.66286 C521.709376,8138.33864 521.779688,8137.98904 521.779688,8137.61403 L521.779688,8136.25466 Z M537.41875,8145.032 C537.41875,8145.60232 537.311329,8146.13747 537.096485,8146.63747 C536.88164,8147.13747 536.586721,8147.57497 536.211719,8147.94997 C535.836717,8148.32497 535.399222,8148.61989 534.899219,8148.83474 C534.399217,8149.04958 533.864066,8149.157 533.29375,8149.157 L532.098438,8149.157 C531.528122,8149.157 530.991018,8149.04958 530.48711,8148.83474 C529.983201,8148.61989 529.543752,8148.32497 529.16875,8147.94997 C528.793748,8147.57497 528.498829,8147.13747 528.283985,8146.63747 C528.06914,8146.13747 527.961719,8145.60232 527.961719,8145.032 L527.961719,8136.00856 C527.961719,8135.43825 528.06914,8134.9031 528.283985,8134.4031 C528.498829,8133.90309 528.793748,8133.4656 529.16875,8133.0906 C529.543752,8132.71559 529.983201,8132.42068 530.48711,8132.20583 C530.991018,8131.99099 531.528122,8131.88356 532.098438,8131.88356 L533.29375,8131.88356 C533.864066,8131.88356 534.399217,8131.99099 534.899219,8132.20583 C535.399222,8132.42068 535.836717,8132.71559 536.211719,8133.0906 C536.586721,8133.4656 536.88164,8133.90309 537.096485,8134.4031 C537.311329,8134.9031 537.41875,8135.43825 537.41875,8136.00856 L537.41875,8145.032 Z M535.907032,8136.00856 C535.907032,8135.63356 535.83672,8135.28396 535.696094,8134.95974 C535.555468,8134.63552 535.364064,8134.35232 535.121875,8134.11013 C534.879687,8133.86794 534.596486,8133.67653 534.272266,8133.53591 C533.948046,8133.39528 533.59844,8133.32497 533.223438,8133.32497 L532.16875,8133.32497 C531.793748,8133.32497 531.444143,8133.39528 531.119922,8133.53591 C530.795702,8133.67653 530.510548,8133.86794 530.264453,8134.11013 C530.018358,8134.35232 529.825001,8134.63552 529.684375,8134.95974 C529.54375,8135.28396 529.473438,8135.63356 529.473438,8136.00856 L529.473438,8145.032 C529.473438,8145.407 529.54375,8145.75661 529.684375,8146.08083 C529.825001,8146.40505 530.018358,8146.6902 530.264453,8146.9363 C530.510548,8147.18239 530.795702,8147.37575 531.119922,8147.51638 C531.444143,8147.657 531.793748,8147.72731 532.16875,8147.72731 L533.223438,8147.72731 C533.59844,8147.72731 533.948046,8147.657 534.272266,8147.51638 C534.596486,8147.37575 534.879687,8147.18239 535.121875,8146.9363 C535.364064,8146.6902 535.555468,8146.40505 535.696094,8146.08083 C535.83672,8145.75661 535.907032,8145.407 535.907032,8145.032 L535.907032,8136.00856 Z M553.854688,8148.92263 L553.069532,8148.92263 L549.8,8136.2781 L549.753125,8135.62185 L549.682813,8136.2781 L546.436719,8148.92263 L545.651563,8148.92263 L541.186719,8132.11794 L542.698438,8132.11794 L545.991407,8144.89138 L546.038282,8145.51247 L546.085157,8144.89138 L549.319532,8132.11794 L550.163282,8132.11794 L553.397657,8144.89138 L553.444532,8145.51247 L553.503125,8144.89138 L556.784375,8132.11794 L558.296094,8132.11794 L553.854688,8148.92263 Z M570.958594,8148.92263 L563.950782,8136.68825 L563.810157,8135.96169 L563.810157,8148.92263 L562.298438,8148.92263 L562.298438,8132.11794 L563.083594,8132.11794 L570.091407,8144.36403 L570.24375,8145.07888 L570.24375,8132.11794 L571.755469,8132.11794 L571.755469,8148.92263 L570.958594,8148.92263 Z M585.830469,8133.55935 L585.830469,8139.80544 L592.264063,8139.80544 L592.264063,8141.24685 L585.830469,8141.24685 L585.830469,8148.92263 L584.31875,8148.92263 L584.31875,8132.11794 L593.775782,8132.11794 L593.775782,8133.55935 L585.830469,8133.55935 Z M606.989063,8145.032 C606.989063,8145.60232 606.881642,8146.13747 606.666797,8146.63747 C606.451952,8147.13747 606.157034,8147.57497 605.782032,8147.94997 C605.40703,8148.32497 604.969534,8148.61989 604.469532,8148.83474 C603.969529,8149.04958 603.434378,8149.157 602.864063,8149.157 L601.66875,8149.157 C601.098435,8149.157 600.561331,8149.04958 600.057422,8148.83474 C599.553514,8148.61989 599.114065,8148.32497 598.739063,8147.94997 C598.364061,8147.57497 598.069142,8147.13747 597.854297,8146.63747 C597.639452,8146.13747 597.532032,8145.60232 597.532032,8145.032 L597.532032,8136.00856 C597.532032,8135.43825 597.639452,8134.9031 597.854297,8134.4031 C598.069142,8133.90309 598.364061,8133.4656 598.739063,8133.0906 C599.114065,8132.71559 599.553514,8132.42068 600.057422,8132.20583 C600.561331,8131.99099 601.098435,8131.88356 601.66875,8131.88356 L602.864063,8131.88356 C603.434378,8131.88356 603.969529,8131.99099 604.469532,8132.20583 C604.969534,8132.42068 605.40703,8132.71559 605.782032,8133.0906 C606.157034,8133.4656 606.451952,8133.90309 606.666797,8134.4031 C606.881642,8134.9031 606.989063,8135.43825 606.989063,8136.00856 L606.989063,8145.032 Z M605.477344,8136.00856 C605.477344,8135.63356 605.407032,8135.28396 605.266407,8134.95974 C605.125781,8134.63552 604.934377,8134.35232 604.692188,8134.11013 C604.449999,8133.86794 604.166799,8133.67653 603.842579,8133.53591 C603.518358,8133.39528 603.168752,8133.32497 602.79375,8133.32497 L601.739063,8133.32497 C601.364061,8133.32497 601.014455,8133.39528 600.690235,8133.53591 C600.366014,8133.67653 600.080861,8133.86794 599.834766,8134.11013 C599.588671,8134.35232 599.395314,8134.63552 599.254688,8134.95974 C599.114062,8135.28396 599.04375,8135.63356 599.04375,8136.00856 L599.04375,8145.032 C599.04375,8145.407 599.114062,8145.75661 599.254688,8146.08083 C599.395314,8146.40505 599.588671,8146.6902 599.834766,8146.9363 C600.080861,8147.18239 600.366014,8147.37575 600.690235,8147.51638 C601.014455,8147.657 601.364061,8147.72731 601.739063,8147.72731 L602.79375,8147.72731 C603.168752,8147.72731 603.518358,8147.657 603.842579,8147.51638 C604.166799,8147.37575 604.449999,8147.18239 604.692188,8146.9363 C604.934377,8146.6902 605.125781,8146.40505 605.266407,8146.08083 C605.407032,8145.75661 605.477344,8145.407 605.477344,8145.032 L605.477344,8136.00856 Z M619.546094,8148.92263 L616.089063,8141.93825 L612.632032,8148.92263 L610.991407,8148.92263 L615.26875,8140.28591 L611.2375,8132.11794 L612.866407,8132.11794 L616.089063,8138.62185 L619.3,8132.11794 L620.928907,8132.11794 L616.897657,8140.28591 L621.175,8148.92263 L619.546094,8148.92263 Z M640.066407,8145.032 C640.066407,8145.60232 639.958986,8146.13747 639.744141,8146.63747 C639.529296,8147.13747 639.234377,8147.57497 638.859375,8147.94997 C638.484374,8148.32497 638.046878,8148.61989 637.546875,8148.83474 C637.046873,8149.04958 636.511722,8149.157 635.941407,8149.157 L635.460938,8149.157 C634.890623,8149.157 634.353519,8149.04958 633.84961,8148.83474 C633.345701,8148.61989 632.906252,8148.32497 632.53125,8147.94997 C632.156249,8147.57497 631.86133,8147.13747 631.646485,8146.63747 C631.43164,8146.13747 631.324219,8145.60232 631.324219,8145.032 L631.324219,8144.36403 L632.835938,8144.11794 L632.835938,8145.032 C632.835938,8145.407 632.90625,8145.75661 633.046875,8146.08083 C633.187501,8146.40505 633.380859,8146.6902 633.626954,8146.9363 C633.873049,8147.18239 634.158202,8147.37575 634.482422,8147.51638 C634.806643,8147.657 635.156249,8147.72731 635.53125,8147.72731 L635.871094,8147.72731 C636.238284,8147.72731 636.585936,8147.657 636.914063,8147.51638 C637.24219,8147.37575 637.527343,8147.18239 637.769532,8146.9363 C638.01172,8146.6902 638.203125,8146.40505 638.34375,8146.08083 C638.484376,8145.75661 638.554688,8145.407 638.554688,8145.032 L638.554688,8132.11794 L640.066407,8132.11794 L640.066407,8145.032 Z M654.240626,8145.032 C654.240626,8145.60232 654.133205,8146.13747 653.91836,8146.63747 C653.703515,8147.13747 653.408596,8147.57497 653.033594,8147.94997 C652.658592,8148.32497 652.221097,8148.61989 651.721094,8148.83474 C651.221092,8149.04958 650.685941,8149.157 650.115626,8149.157 L648.920313,8149.157 C648.349998,8149.157 647.812894,8149.04958 647.308985,8148.83474 C646.805076,8148.61989 646.365627,8148.32497 645.990626,8147.94997 C645.615624,8147.57497 645.320705,8147.13747 645.10586,8146.63747 C644.891015,8146.13747 644.783594,8145.60232 644.783594,8145.032 L644.783594,8132.11794 L646.295313,8132.11794 L646.295313,8145.032 C646.295313,8145.407 646.365625,8145.75661 646.506251,8146.08083 C646.646876,8146.40505 646.840234,8146.6902 647.086329,8146.9363 C647.332424,8147.18239 647.617577,8147.37575 647.941797,8147.51638 C648.266018,8147.657 648.615624,8147.72731 648.990626,8147.72731 L650.045313,8147.72731 C650.420315,8147.72731 650.769921,8147.657 651.094141,8147.51638 C651.418361,8147.37575 651.701562,8147.18239 651.943751,8146.9363 C652.185939,8146.6902 652.377344,8146.40505 652.517969,8146.08083 C652.658595,8145.75661 652.728907,8145.407 652.728907,8145.032 L652.728907,8132.11794 L654.240626,8132.11794 L654.240626,8145.032 Z M669.797657,8148.92263 L669.797657,8137.4031 L669.692188,8138.11794 L665.789844,8148.92263 L664.992969,8148.92263 L661.055469,8138.11794 L660.961719,8137.4031 L660.961719,8148.92263 L659.450001,8148.92263 L659.450001,8132.11794 L660.235157,8132.11794 L665.332813,8145.89919 L665.379688,8146.52028 L665.426563,8145.89919 L670.512501,8132.11794 L671.309376,8132.11794 L671.309376,8148.92263 L669.797657,8148.92263 Z M686.198438,8138.3406 C686.198438,8138.91091 686.091017,8139.44606 685.876172,8139.94606 C685.661328,8140.44607 685.366409,8140.88356 684.991407,8141.25856 C684.616405,8141.63357 684.176956,8141.92849 683.673047,8142.14333 C683.169139,8142.35818 682.632035,8142.4656 682.061719,8142.4656 L678.253126,8142.4656 L678.253126,8148.92263 L676.741407,8148.92263 L676.741407,8132.11794 L682.061719,8132.11794 C682.632035,8132.11794 683.169139,8132.22536 683.673047,8132.44021 C684.176956,8132.65505 684.616405,8132.94997 684.991407,8133.32497 C685.366409,8133.69997 685.661328,8134.13942 685.876172,8134.64333 C686.091017,8135.14724 686.198438,8135.68434 686.198438,8136.25466 L686.198438,8138.3406 Z M684.686719,8136.25466 C684.686719,8135.87966 684.616408,8135.53005 684.475782,8135.20583 C684.335156,8134.88161 684.141799,8134.59646 683.895704,8134.35036 C683.649609,8134.10427 683.364455,8133.91091 683.040235,8133.77028 C682.716015,8133.62966 682.366409,8133.55935 681.991407,8133.55935 L678.253126,8133.55935 L678.253126,8141.02419 L681.991407,8141.02419 C682.366409,8141.02419 682.716015,8140.95388 683.040235,8140.81325 C683.364455,8140.67263 683.649609,8140.48122 683.895704,8140.23903 C684.141799,8139.99684 684.335156,8139.71364 684.475782,8139.38942 C684.616408,8139.0652 684.686719,8138.7156 684.686719,8138.3406 L684.686719,8136.25466 Z M690.681251,8148.92263 L690.681251,8132.11794 L700.138282,8132.11794 L700.138282,8133.55935 L692.192969,8133.55935 L692.192969,8139.80544 L698.626563,8139.80544 L698.626563,8141.24685 L692.192969,8141.24685 L692.192969,8147.48122 L700.138282,8147.48122 L700.138282,8148.92263 L690.681251,8148.92263 Z M714.078126,8144.79763 C714.078126,8145.36794 713.970705,8145.90309 713.75586,8146.4031 C713.541015,8146.9031 713.246096,8147.34059 712.871094,8147.7156 C712.496092,8148.0906 712.056644,8148.38552 711.552735,8148.60036 C711.048826,8148.81521 710.511722,8148.92263 709.941407,8148.92263 L704.621094,8148.92263 L704.621094,8132.11794 L709.941407,8132.11794 C710.511722,8132.11794 711.048826,8132.22536 711.552735,8132.44021 C712.056644,8132.65505 712.496092,8132.94997 712.871094,8133.32497 C713.246096,8133.69997 713.541015,8134.13942 713.75586,8134.64333 C713.970705,8135.14724 714.078126,8135.68434 714.078126,8136.25466 L714.078126,8144.79763 Z M712.566407,8136.25466 C712.566407,8135.87966 712.496095,8135.53005 712.355469,8135.20583 C712.214844,8134.88161 712.021486,8134.59646 711.775391,8134.35036 C711.529296,8134.10427 711.244143,8133.91091 710.919922,8133.77028 C710.595702,8133.62966 710.246096,8133.55935 709.871094,8133.55935 L706.132813,8133.55935 L706.132813,8147.48122 L709.871094,8147.48122 C710.246096,8147.48122 710.595702,8147.41091 710.919922,8147.27028 C711.244143,8147.12966 711.529296,8146.93825 711.775391,8146.69606 C712.021486,8146.45388 712.214844,8146.17068 712.355469,8145.84646 C712.496095,8145.52223 712.566407,8145.17263 712.566407,8144.79763 L712.566407,8136.25466 Z M735.606251,8145.032 C735.606251,8145.60232 735.49883,8146.13747 735.283985,8146.63747 C735.06914,8147.13747 734.774221,8147.57497 734.399219,8147.94997 C734.024218,8148.32497 733.586722,8148.61989 733.086719,8148.83474 C732.586717,8149.04958 732.051566,8149.157 731.481251,8149.157 L730.285938,8149.157 C729.715623,8149.157 729.178519,8149.04958 728.67461,8148.83474 C728.170701,8148.61989 727.731253,8148.32497 727.356251,8147.94997 C726.981249,8147.57497 726.68633,8147.13747 726.471485,8146.63747 C726.25664,8146.13747 726.149219,8145.60232 726.149219,8145.032 L726.149219,8136.00856 C726.149219,8135.43825 726.25664,8134.9031 726.471485,8134.4031 C726.68633,8133.90309 726.981249,8133.4656 727.356251,8133.0906 C727.731253,8132.71559 728.170701,8132.42068 728.67461,8132.20583 C729.178519,8131.99099 729.715623,8131.88356 730.285938,8131.88356 L731.481251,8131.88356 C732.051566,8131.88356 732.586717,8131.99099 733.086719,8132.20583 C733.586722,8132.42068 734.024218,8132.71559 734.399219,8133.0906 C734.774221,8133.4656 735.06914,8133.90309 735.283985,8134.4031 C735.49883,8134.9031 735.606251,8135.43825 735.606251,8136.00856 L735.606251,8145.032 Z M734.094532,8136.00856 C734.094532,8135.63356 734.02422,8135.28396 733.883594,8134.95974 C733.742969,8134.63552 733.551564,8134.35232 733.309376,8134.11013 C733.067187,8133.86794 732.783987,8133.67653 732.459766,8133.53591 C732.135546,8133.39528 731.78594,8133.32497 731.410938,8133.32497 L730.356251,8133.32497 C729.981249,8133.32497 729.631643,8133.39528 729.307423,8133.53591 C728.983202,8133.67653 728.698049,8133.86794 728.451954,8134.11013 C728.205859,8134.35232 728.012501,8134.63552 727.871876,8134.95974 C727.73125,8135.28396 727.660938,8135.63356 727.660938,8136.00856 L727.660938,8145.032 C727.660938,8145.407 727.73125,8145.75661 727.871876,8146.08083 C728.012501,8146.40505 728.205859,8146.6902 728.451954,8146.9363 C728.698049,8147.18239 728.983202,8147.37575 729.307423,8147.51638 C729.631643,8147.657 729.981249,8147.72731 730.356251,8147.72731 L731.410938,8147.72731 C731.78594,8147.72731 732.135546,8147.657 732.459766,8147.51638 C732.783987,8147.37575 733.067187,8147.18239 733.309376,8146.9363 C733.551564,8146.6902 733.742969,8146.40505 733.883594,8146.08083 C734.02422,8145.75661 734.094532,8145.407 734.094532,8145.032 L734.094532,8136.00856 Z M744.413282,8145.23122 L744.460157,8145.85231 L744.507032,8145.23122 L748.233594,8132.11794 L749.792188,8132.11794 L744.846876,8148.92263 L744.050001,8148.92263 L739.128126,8132.11794 L740.698438,8132.11794 L744.413282,8145.23122 Z M753.548438,8148.92263 L753.548438,8132.11794 L763.005469,8132.11794 L763.005469,8133.55935 L755.060157,8133.55935 L755.060157,8139.80544 L761.493751,8139.80544 L761.493751,8141.24685 L755.060157,8141.24685 L755.060157,8147.48122 L763.005469,8147.48122 L763.005469,8148.92263 L753.548438,8148.92263 Z M775.386719,8148.92263 L770.828126,8141.75075 L768.753907,8141.75075 L768.753907,8148.92263 L767.242188,8148.92263 L767.242188,8132.11794 L772.574219,8132.11794 C773.144535,8132.11794 773.679686,8132.22536 774.179688,8132.44021 C774.679691,8132.65505 775.117186,8132.94997 775.492188,8133.32497 C775.86719,8133.69997 776.162109,8134.13942 776.376954,8134.64333 C776.591799,8135.14724 776.699219,8135.68434 776.699219,8136.25466 L776.699219,8137.61403 C776.699219,8138.18435 776.591799,8138.72145 776.376954,8139.22536 C776.162109,8139.72927 775.86719,8140.16872 775.492188,8140.54372 C775.117186,8140.91872 774.679691,8141.21364 774.179688,8141.42849 C773.679686,8141.64333 773.144535,8141.75075 772.574219,8141.75075 L777.132813,8148.92263 L775.386719,8148.92263 Z M775.187501,8136.25466 C775.187501,8135.87966 775.117189,8135.53005 774.976563,8135.20583 C774.835938,8134.88161 774.644533,8134.59646 774.402344,8134.35036 C774.160156,8134.10427 773.876955,8133.91091 773.552735,8133.77028 C773.228515,8133.62966 772.878909,8133.55935 772.503907,8133.55935 L768.753907,8133.55935 L768.753907,8140.30935 L772.503907,8140.30935 C772.878909,8140.30935 773.228515,8140.23903 773.552735,8140.09841 C773.876955,8139.95778 774.160156,8139.76443 774.402344,8139.51833 C774.644533,8139.27224 774.835938,8138.98708 774.976563,8138.66286 C775.117189,8138.33864 775.187501,8137.98904 775.187501,8137.61403 L775.187501,8136.25466 Z M792.813282,8133.55935 L792.813282,8148.92263 L791.301563,8148.92263 L791.301563,8133.55935 L787.293751,8133.55935 L787.293751,8132.11794 L796.821095,8132.11794 L796.821095,8133.55935 L792.813282,8133.55935 Z M808.768751,8148.92263 L808.768751,8141.24685 L802.335157,8141.24685 L802.335157,8148.92263 L800.823438,8148.92263 L800.823438,8132.11794 L802.335157,8132.11794 L802.335157,8139.80544 L808.768751,8139.80544 L808.768751,8132.11794 L810.28047,8132.11794 L810.28047,8148.92263 L808.768751,8148.92263 Z M815.72422,8148.92263 L815.72422,8132.11794 L825.181251,8132.11794 L825.181251,8133.55935 L817.235938,8133.55935 L817.235938,8139.80544 L823.669532,8139.80544 L823.669532,8141.24685 L817.235938,8141.24685 L817.235938,8147.48122 L825.181251,8147.48122 L825.181251,8148.92263 L815.72422,8148.92263 Z M836.537501,8148.92263 L836.537501,8132.11794 L838.04922,8132.11794 L838.04922,8147.48122 L844.482813,8147.48122 L844.482813,8148.92263 L836.537501,8148.92263 Z M854.789845,8145.00856 L849.469532,8145.00856 L848.36797,8148.92263 L846.797657,8148.92263 L851.719532,8132.11794 L852.516407,8132.11794 L857.46172,8148.92263 L855.903126,8148.92263 L854.789845,8145.00856 Z M849.879688,8143.56716 L854.391407,8143.56716 L852.176563,8135.82106 L852.129688,8135.19997 L852.082813,8135.82106 L849.879688,8143.56716 Z M860.257032,8148.92263 L860.257032,8148.20778 L867.745313,8133.55935 L860.491407,8133.55935 L860.491407,8132.11794 L869.714063,8132.11794 L869.714063,8132.8445 L862.225782,8147.48122 L869.714063,8147.48122 L869.714063,8148.92263 L860.257032,8148.92263 Z M878.614845,8140.88356 L878.614845,8148.92263 L877.103126,8148.92263 L877.103126,8140.907 L872.75547,8132.11794 L874.384376,8132.11794 L877.841407,8139.10231 L881.298438,8132.11794 L882.927345,8132.11794 L878.614845,8140.88356 Z M903.506251,8144.79763 C903.506251,8145.36794 903.39883,8145.90309 903.183985,8146.4031 C902.969141,8146.9031 902.674222,8147.34059 902.29922,8147.7156 C901.924218,8148.0906 901.484769,8148.38552 900.98086,8148.60036 C900.476952,8148.81521 899.939848,8148.92263 899.369532,8148.92263 L894.04922,8148.92263 L894.04922,8132.11794 L899.369532,8132.11794 C899.939848,8132.11794 900.476952,8132.22536 900.98086,8132.44021 C901.484769,8132.65505 901.924218,8132.94997 902.29922,8133.32497 C902.674222,8133.69997 902.969141,8134.13942 903.183985,8134.64333 C903.39883,8135.14724 903.506251,8135.68434 903.506251,8136.25466 L903.506251,8144.79763 Z M901.994532,8136.25466 C901.994532,8135.87966 901.92422,8135.53005 901.783595,8135.20583 C901.642969,8134.88161 901.449612,8134.59646 901.203517,8134.35036 C900.957422,8134.10427 900.672268,8133.91091 900.348048,8133.77028 C900.023827,8133.62966 899.674222,8133.55935 899.29922,8133.55935 L895.560938,8133.55935 L895.560938,8147.48122 L899.29922,8147.48122 C899.674222,8147.48122 900.023827,8147.41091 900.348048,8147.27028 C900.672268,8147.12966 900.957422,8146.93825 901.203517,8146.69606 C901.449612,8146.45388 901.642969,8146.17068 901.783595,8145.84646 C901.92422,8145.52223 901.994532,8145.17263 901.994532,8144.79763 L901.994532,8136.25466 Z M917.914845,8145.032 C917.914845,8145.60232 917.807424,8146.13747 917.592579,8146.63747 C917.377734,8147.13747 917.082815,8147.57497 916.707814,8147.94997 C916.332812,8148.32497 915.895316,8148.61989 915.395314,8148.83474 C914.895311,8149.04958 914.36016,8149.157 913.789845,8149.157 L912.594532,8149.157 C912.024217,8149.157 911.487113,8149.04958 910.983204,8148.83474 C910.479295,8148.61989 910.039847,8148.32497 909.664845,8147.94997 C909.289843,8147.57497 908.994924,8147.13747 908.780079,8146.63747 C908.565234,8146.13747 908.457814,8145.60232 908.457814,8145.032 L908.457814,8136.00856 C908.457814,8135.43825 908.565234,8134.9031 908.780079,8134.4031 C908.994924,8133.90309 909.289843,8133.4656 909.664845,8133.0906 C910.039847,8132.71559 910.479295,8132.42068 910.983204,8132.20583 C911.487113,8131.99099 912.024217,8131.88356 912.594532,8131.88356 L913.789845,8131.88356 C914.36016,8131.88356 914.895311,8131.99099 915.395314,8132.20583 C915.895316,8132.42068 916.332812,8132.71559 916.707814,8133.0906 C917.082815,8133.4656 917.377734,8133.90309 917.592579,8134.4031 C917.807424,8134.9031 917.914845,8135.43825 917.914845,8136.00856 L917.914845,8145.032 Z M916.403126,8136.00856 C916.403126,8135.63356 916.332814,8135.28396 916.192189,8134.95974 C916.051563,8134.63552 915.860158,8134.35232 915.61797,8134.11013 C915.375781,8133.86794 915.092581,8133.67653 914.76836,8133.53591 C914.44414,8133.39528 914.094534,8133.32497 913.719532,8133.32497 L912.664845,8133.32497 C912.289843,8133.32497 911.940237,8133.39528 911.616017,8133.53591 C911.291796,8133.67653 911.006643,8133.86794 910.760548,8134.11013 C910.514453,8134.35232 910.321095,8134.63552 910.18047,8134.95974 C910.039844,8135.28396 909.969532,8135.63356 909.969532,8136.00856 L909.969532,8145.032 C909.969532,8145.407 910.039844,8145.75661 910.18047,8146.08083 C910.321095,8146.40505 910.514453,8146.6902 910.760548,8146.9363 C911.006643,8147.18239 911.291796,8147.37575 911.616017,8147.51638 C911.940237,8147.657 912.289843,8147.72731 912.664845,8147.72731 L913.719532,8147.72731 C914.094534,8147.72731 914.44414,8147.657 914.76836,8147.51638 C915.092581,8147.37575 915.375781,8147.18239 915.61797,8146.9363 C915.860158,8146.6902 916.051563,8146.40505 916.192189,8146.08083 C916.332814,8145.75661 916.403126,8145.407 916.403126,8145.032 L916.403126,8136.00856 Z M932.335157,8148.92263 L931.854689,8148.92263 L930.975782,8147.57497 C930.608593,8148.05935 930.163285,8148.44411 929.639845,8148.72927 C929.116405,8149.01443 928.534379,8149.157 927.893751,8149.157 L927.014845,8149.157 C926.444529,8149.157 925.907425,8149.04958 925.403517,8148.83474 C924.899608,8148.61989 924.460159,8148.32497 924.085157,8147.94997 C923.710155,8147.57497 923.415236,8147.13747 923.200392,8146.63747 C922.985547,8146.13747 922.878126,8145.60232 922.878126,8145.032 L922.878126,8136.00856 C922.878126,8135.43825 922.985547,8134.9031 923.200392,8134.4031 C923.415236,8133.90309 923.710155,8133.4656 924.085157,8133.0906 C924.460159,8132.71559 924.899608,8132.42068 925.403517,8132.20583 C925.907425,8131.99099 926.444529,8131.88356 927.014845,8131.88356 L928.210157,8131.88356 C928.780473,8131.88356 929.315624,8131.99099 929.815626,8132.20583 C930.315629,8132.42068 930.753124,8132.71559 931.128126,8133.0906 C931.503128,8133.4656 931.798047,8133.90309 932.012892,8134.4031 C932.227736,8134.9031 932.335157,8135.43825 932.335157,8136.00856 L932.335157,8136.68825 L930.823439,8136.92263 L930.823439,8136.00856 C930.823439,8135.63356 930.753127,8135.28396 930.612501,8134.95974 C930.471875,8134.63552 930.280471,8134.35232 930.038282,8134.11013 C929.796094,8133.86794 929.512893,8133.67653 929.188673,8133.53591 C928.864453,8133.39528 928.514847,8133.32497 928.139845,8133.32497 L927.085157,8133.32497 C926.710155,8133.32497 926.36055,8133.39528 926.036329,8133.53591 C925.712109,8133.67653 925.426955,8133.86794 925.18086,8134.11013 C924.934765,8134.35232 924.741408,8134.63552 924.600782,8134.95974 C924.460157,8135.28396 924.389845,8135.63356 924.389845,8136.00856 L924.389845,8145.032 C924.389845,8145.407 924.460157,8145.75661 924.600782,8146.08083 C924.741408,8146.40505 924.934765,8146.6902 925.18086,8146.9363 C925.426955,8147.18239 925.712109,8147.37575 926.036329,8147.51638 C926.36055,8147.657 926.710155,8147.72731 927.085157,8147.72731 L928.139845,8147.72731 C928.514847,8147.72731 928.864453,8147.657 929.188673,8147.51638 C929.512893,8147.37575 929.796094,8147.18239 930.038282,8146.9363 C930.280471,8146.6902 930.471875,8146.40505 930.612501,8146.08083 C930.753127,8145.75661 930.823439,8145.407 930.823439,8145.032 L930.823439,8141.5281 L928.139845,8141.5281 L928.139845,8140.08669 L932.335157,8140.08669 L932.335157,8148.92263 Z M937.298439,8148.92263 L937.298439,8147.11794 L939.103126,8147.11794 L939.103126,8148.92263 L937.298439,8148.92263 Z" id="h2"></path>
        </g>
    </g>
</svg>