<?xml version="1.0" encoding="UTF-8"?>
<svg width="428px" height="16px" viewBox="0 0 428 16" version="1.1" xmlns="http://www.w3.org/2000/svg" xmlns:xlink="http://www.w3.org/1999/xlink">
    <!-- Generator: Sketch 45.2 (43514) - http://www.bohemiancoding.com/sketch -->
    <title>h3</title>
    <desc>Created with Sketch.</desc>
    <defs></defs>
    <g id="Welcome" stroke="none" stroke-width="1" fill="none" fill-rule="evenodd">
        <g id="Desktop-HD-Copy-2" transform="translate(-379.000000, -8195.000000)" fill="#B1B6B9">
            <path d="M383.5,8196.62553 L383.5,8208.14799 L382.366211,8208.14799 L382.366211,8196.62553 L379.360352,8196.62553 L379.360352,8195.54448 L386.505859,8195.54448 L386.505859,8196.62553 L383.5,8196.62553 Z M395.646602,8208.14799 L395.646602,8202.39116 L390.821406,8202.39116 L390.821406,8208.14799 L389.687617,8208.14799 L389.687617,8195.54448 L390.821406,8195.54448 L390.821406,8201.3101 L395.646602,8201.3101 L395.646602,8195.54448 L396.780391,8195.54448 L396.780391,8208.14799 L395.646602,8208.14799 Z M401.043203,8208.14799 L401.043203,8195.54448 L408.135977,8195.54448 L408.135977,8196.62553 L402.176992,8196.62553 L402.176992,8201.3101 L407.002187,8201.3101 L407.002187,8202.39116 L402.176992,8202.39116 L402.176992,8207.06694 L408.135977,8207.06694 L408.135977,8208.14799 L401.043203,8208.14799 Z M424.105937,8205.23002 C424.105937,8205.64018 424.032696,8206.0269 423.886211,8206.39018 C423.739726,8206.75346 423.537579,8207.0728 423.279766,8207.34819 C423.021952,8207.62358 422.718732,8207.8477 422.370098,8208.02055 C422.021463,8208.1934 421.647932,8208.29448 421.249492,8208.32377 L422.400859,8210.91655 L421.26707,8210.91655 L420.115703,8208.32377 C419.687967,8208.32377 419.285139,8208.24321 418.907207,8208.08208 C418.529275,8207.92094 418.199689,8207.69975 417.918437,8207.4185 C417.637186,8207.13725 417.415997,8206.80913 417.254863,8206.43413 C417.09373,8206.05912 417.013164,8205.65776 417.013164,8205.23002 L417.013164,8198.46245 C417.013164,8198.03471 417.09373,8197.63335 417.254863,8197.25835 C417.415997,8196.88334 417.637186,8196.55522 417.918437,8196.27397 C418.199689,8195.99272 418.529275,8195.77153 418.907207,8195.6104 C419.285139,8195.44926 419.687967,8195.3687 420.115703,8195.3687 L421.012187,8195.3687 C421.439924,8195.3687 421.841287,8195.44926 422.216289,8195.6104 C422.591291,8195.77153 422.919413,8195.99272 423.200664,8196.27397 C423.481915,8196.55522 423.703105,8196.88334 423.864238,8197.25835 C424.025372,8197.63335 424.105937,8198.03471 424.105937,8198.46245 L424.105937,8205.23002 Z M422.972148,8198.46245 C422.972148,8198.1812 422.919415,8197.91899 422.813945,8197.67583 C422.708476,8197.43266 422.564923,8197.22026 422.383281,8197.03862 C422.20164,8196.85698 421.989239,8196.71342 421.746074,8196.60795 C421.502909,8196.50249 421.240705,8196.44975 420.959453,8196.44975 L420.168437,8196.44975 C419.887186,8196.44975 419.624982,8196.50249 419.381816,8196.60795 C419.138651,8196.71342 418.924786,8196.85698 418.740215,8197.03862 C418.555644,8197.22026 418.410626,8197.43266 418.305156,8197.67583 C418.199687,8197.91899 418.146953,8198.1812 418.146953,8198.46245 L418.146953,8205.23002 C418.146953,8205.51128 418.199687,8205.77348 418.305156,8206.01665 C418.410626,8206.25981 418.555644,8206.47368 418.740215,8206.65825 C418.924786,8206.84282 419.138651,8206.98784 419.381816,8207.09331 C419.624982,8207.19878 419.887186,8207.25151 420.168437,8207.25151 L420.959453,8207.25151 C421.240705,8207.25151 421.502909,8207.19878 421.746074,8207.09331 C421.989239,8206.98784 422.20164,8206.84282 422.383281,8206.65825 C422.564923,8206.47368 422.708476,8206.25981 422.813945,8206.01665 C422.919415,8205.77348 422.972148,8205.51128 422.972148,8205.23002 L422.972148,8198.46245 Z M435.101172,8205.23002 C435.101172,8205.65776 435.020606,8206.05912 434.859473,8206.43413 C434.698339,8206.80913 434.47715,8207.13725 434.195898,8207.4185 C433.914647,8207.69975 433.586525,8207.92094 433.211523,8208.08208 C432.836522,8208.24321 432.435158,8208.32377 432.007422,8208.32377 L431.110937,8208.32377 C430.683201,8208.32377 430.280373,8208.24321 429.902441,8208.08208 C429.52451,8207.92094 429.194923,8207.69975 428.913672,8207.4185 C428.63242,8207.13725 428.411231,8206.80913 428.250098,8206.43413 C428.088964,8206.05912 428.008398,8205.65776 428.008398,8205.23002 L428.008398,8195.54448 L429.142187,8195.54448 L429.142187,8205.23002 C429.142187,8205.51128 429.194921,8205.77348 429.300391,8206.01665 C429.40586,8206.25981 429.550878,8206.47368 429.735449,8206.65825 C429.92002,8206.84282 430.133885,8206.98784 430.377051,8207.09331 C430.620216,8207.19878 430.88242,8207.25151 431.163672,8207.25151 L431.954687,8207.25151 C432.235939,8207.25151 432.498143,8207.19878 432.741309,8207.09331 C432.984474,8206.98784 433.196874,8206.84282 433.378516,8206.65825 C433.560157,8206.47368 433.70371,8206.25981 433.80918,8206.01665 C433.914649,8205.77348 433.967383,8205.51128 433.967383,8205.23002 L433.967383,8195.54448 L435.101172,8195.54448 L435.101172,8205.23002 Z M439.188203,8208.14799 L439.188203,8195.54448 L440.321992,8195.54448 L440.321992,8208.14799 L439.188203,8208.14799 Z M451.493008,8205.23002 C451.493008,8205.65776 451.412442,8206.05912 451.251309,8206.43413 C451.090175,8206.80913 450.868986,8207.13725 450.587734,8207.4185 C450.306483,8207.69975 449.978361,8207.92094 449.603359,8208.08208 C449.228357,8208.24321 448.826994,8208.32377 448.399258,8208.32377 L447.502773,8208.32377 C447.075037,8208.32377 446.672209,8208.24321 446.294277,8208.08208 C445.916346,8207.92094 445.586759,8207.69975 445.305508,8207.4185 C445.024256,8207.13725 444.803067,8206.80913 444.641934,8206.43413 C444.4808,8206.05912 444.400234,8205.65776 444.400234,8205.23002 L444.400234,8198.46245 C444.400234,8198.03471 444.4808,8197.63335 444.641934,8197.25835 C444.803067,8196.88334 445.024256,8196.55522 445.305508,8196.27397 C445.586759,8195.99272 445.916346,8195.77153 446.294277,8195.6104 C446.672209,8195.44926 447.075037,8195.3687 447.502773,8195.3687 L448.399258,8195.3687 C448.826994,8195.3687 449.228357,8195.44926 449.603359,8195.6104 C449.978361,8195.77153 450.306483,8195.99272 450.587734,8196.27397 C450.868986,8196.55522 451.090175,8196.88334 451.251309,8197.25835 C451.412442,8197.63335 451.493008,8198.03471 451.493008,8198.46245 L451.493008,8198.97221 L450.359219,8199.14799 L450.359219,8198.46245 C450.359219,8198.1812 450.306485,8197.91899 450.201016,8197.67583 C450.095546,8197.43266 449.951993,8197.22026 449.770352,8197.03862 C449.58871,8196.85698 449.37631,8196.71342 449.133144,8196.60795 C448.889979,8196.50249 448.627775,8196.44975 448.346523,8196.44975 L447.555508,8196.44975 C447.274256,8196.44975 447.012052,8196.50249 446.768887,8196.60795 C446.525721,8196.71342 446.311856,8196.85698 446.127285,8197.03862 C445.942714,8197.22026 445.797696,8197.43266 445.692227,8197.67583 C445.586757,8197.91899 445.534023,8198.1812 445.534023,8198.46245 L445.534023,8205.23002 C445.534023,8205.51128 445.586757,8205.77348 445.692227,8206.01665 C445.797696,8206.25981 445.942714,8206.47368 446.127285,8206.65825 C446.311856,8206.84282 446.525721,8206.98784 446.768887,8207.09331 C447.012052,8207.19878 447.274256,8207.25151 447.555508,8207.25151 L448.346523,8207.25151 C448.627775,8207.25151 448.889979,8207.19878 449.133144,8207.09331 C449.37631,8206.98784 449.58871,8206.84282 449.770352,8206.65825 C449.951993,8206.47368 450.095546,8206.25981 450.201016,8206.01665 C450.306485,8205.77348 450.359219,8205.51128 450.359219,8205.23002 L450.359219,8204.54448 L451.493008,8204.72905 L451.493008,8205.23002 Z M461.547812,8208.14799 L456.801719,8201.84624 L461.547812,8195.54448 L462.954062,8195.54448 L458.111289,8201.84624 L462.954062,8208.14799 L461.547812,8208.14799 Z M455.395469,8208.14799 L455.395469,8195.54448 L456.529258,8195.54448 L456.529258,8208.14799 L455.395469,8208.14799 Z M478.748242,8205.05424 C478.748242,8205.48198 478.667677,8205.88334 478.506543,8206.25835 C478.345409,8206.63335 478.12422,8206.96147 477.842969,8207.24272 C477.561717,8207.52397 477.232131,8207.74516 476.854199,8207.90629 C476.476268,8208.06743 476.07344,8208.14799 475.645703,8208.14799 L471.655469,8208.14799 L471.655469,8195.54448 L475.645703,8195.54448 C476.07344,8195.54448 476.476268,8195.62504 476.854199,8195.78618 C477.232131,8195.94731 477.561717,8196.1685 477.842969,8196.44975 C478.12422,8196.731 478.345409,8197.06059 478.506543,8197.43852 C478.667677,8197.81645 478.748242,8198.21928 478.748242,8198.64702 L478.748242,8198.77006 C478.748242,8199.06889 478.708692,8199.35454 478.62959,8199.627 C478.550488,8199.89946 478.437696,8200.15288 478.291211,8200.38725 C478.144726,8200.62163 477.971876,8200.83403 477.772656,8201.02446 C477.573436,8201.21489 477.350782,8201.37456 477.104687,8201.50346 C477.350782,8201.63237 477.573436,8201.79204 477.772656,8201.98247 C477.971876,8202.1729 478.144726,8202.38676 478.291211,8202.62407 C478.437696,8202.86137 478.550488,8203.11625 478.62959,8203.38872 C478.708692,8203.66118 478.748242,8203.94682 478.748242,8204.24565 L478.748242,8205.05424 Z M477.614453,8204.06108 C477.614453,8203.77983 477.561719,8203.51762 477.45625,8203.27446 C477.350781,8203.03129 477.205763,8202.81889 477.021191,8202.63725 C476.83662,8202.45561 476.622755,8202.31206 476.37959,8202.20659 C476.136425,8202.10112 475.87422,8202.04838 475.592969,8202.04838 L472.789258,8202.04838 L472.789258,8207.06694 L475.592969,8207.06694 C475.87422,8207.06694 476.136425,8207.01421 476.37959,8206.90874 C476.622755,8206.80327 476.83662,8206.65971 477.021191,8206.47807 C477.205763,8206.29643 477.350781,8206.08403 477.45625,8205.84086 C477.561719,8205.5977 477.614453,8205.3355 477.614453,8205.05424 L477.614453,8204.06108 Z M477.614453,8198.64702 C477.614453,8198.36577 477.561719,8198.10356 477.45625,8197.8604 C477.350781,8197.61723 477.205763,8197.40337 477.021191,8197.21879 C476.83662,8197.03422 476.622755,8196.88921 476.37959,8196.78374 C476.136425,8196.67827 475.87422,8196.62553 475.592969,8196.62553 L472.789258,8196.62553 L472.789258,8200.96733 L475.592969,8200.96733 C475.87422,8200.96733 476.136425,8200.9146 476.37959,8200.80913 C476.622755,8200.70366 476.83662,8200.55864 477.021191,8200.37407 C477.205763,8200.1895 477.350781,8199.97563 477.45625,8199.73247 C477.561719,8199.4893 477.614453,8199.2271 477.614453,8198.94585 L477.614453,8198.64702 Z M488.21418,8208.14799 L484.795234,8202.76909 L483.23957,8202.76909 L483.23957,8208.14799 L482.105781,8208.14799 L482.105781,8195.54448 L486.104805,8195.54448 C486.532541,8195.54448 486.933904,8195.62504 487.308906,8195.78618 C487.683908,8195.94731 488.01203,8196.1685 488.293281,8196.44975 C488.574533,8196.731 488.795722,8197.06059 488.956855,8197.43852 C489.117989,8197.81645 489.198555,8198.21928 489.198555,8198.64702 L489.198555,8199.66655 C489.198555,8200.09428 489.117989,8200.49711 488.956855,8200.87504 C488.795722,8201.25298 488.574533,8201.58256 488.293281,8201.86381 C488.01203,8202.14507 487.683908,8202.36625 487.308906,8202.52739 C486.933904,8202.68852 486.532541,8202.76909 486.104805,8202.76909 L489.52375,8208.14799 L488.21418,8208.14799 Z M488.064766,8198.64702 C488.064766,8198.36577 488.012032,8198.10356 487.906562,8197.8604 C487.801093,8197.61723 487.65754,8197.40337 487.475898,8197.21879 C487.294257,8197.03422 487.081857,8196.88921 486.838691,8196.78374 C486.595526,8196.67827 486.333322,8196.62553 486.05207,8196.62553 L483.23957,8196.62553 L483.23957,8201.68803 L486.05207,8201.68803 C486.333322,8201.68803 486.595526,8201.6353 486.838691,8201.52983 C487.081857,8201.42436 487.294257,8201.27934 487.475898,8201.09477 C487.65754,8200.9102 487.801093,8200.69633 487.906562,8200.45317 C488.012032,8200.21 488.064766,8199.9478 488.064766,8199.66655 L488.064766,8198.64702 Z M499.974062,8205.23002 C499.974062,8205.65776 499.893497,8206.05912 499.732363,8206.43413 C499.57123,8206.80913 499.35004,8207.13725 499.068789,8207.4185 C498.787538,8207.69975 498.459416,8207.92094 498.084414,8208.08208 C497.709412,8208.24321 497.308049,8208.32377 496.880312,8208.32377 L495.983828,8208.32377 C495.556092,8208.32377 495.153264,8208.24321 494.775332,8208.08208 C494.3974,8207.92094 494.067814,8207.69975 493.786562,8207.4185 C493.505311,8207.13725 493.284122,8206.80913 493.122988,8206.43413 C492.961855,8206.05912 492.881289,8205.65776 492.881289,8205.23002 L492.881289,8198.46245 C492.881289,8198.03471 492.961855,8197.63335 493.122988,8197.25835 C493.284122,8196.88334 493.505311,8196.55522 493.786562,8196.27397 C494.067814,8195.99272 494.3974,8195.77153 494.775332,8195.6104 C495.153264,8195.44926 495.556092,8195.3687 495.983828,8195.3687 L496.880312,8195.3687 C497.308049,8195.3687 497.709412,8195.44926 498.084414,8195.6104 C498.459416,8195.77153 498.787538,8195.99272 499.068789,8196.27397 C499.35004,8196.55522 499.57123,8196.88334 499.732363,8197.25835 C499.893497,8197.63335 499.974062,8198.03471 499.974062,8198.46245 L499.974062,8205.23002 Z M498.840273,8198.46245 C498.840273,8198.1812 498.78754,8197.91899 498.68207,8197.67583 C498.576601,8197.43266 498.433048,8197.22026 498.251406,8197.03862 C498.069765,8196.85698 497.857364,8196.71342 497.614199,8196.60795 C497.371034,8196.50249 497.108829,8196.44975 496.827578,8196.44975 L496.036562,8196.44975 C495.755311,8196.44975 495.493107,8196.50249 495.249941,8196.60795 C495.006776,8196.71342 494.792911,8196.85698 494.60834,8197.03862 C494.423769,8197.22026 494.27875,8197.43266 494.173281,8197.67583 C494.067812,8197.91899 494.015078,8198.1812 494.015078,8198.46245 L494.015078,8205.23002 C494.015078,8205.51128 494.067812,8205.77348 494.173281,8206.01665 C494.27875,8206.25981 494.423769,8206.47368 494.60834,8206.65825 C494.792911,8206.84282 495.006776,8206.98784 495.249941,8207.09331 C495.493107,8207.19878 495.755311,8207.25151 496.036562,8207.25151 L496.827578,8207.25151 C497.108829,8207.25151 497.371034,8207.19878 497.614199,8207.09331 C497.857364,8206.98784 498.069765,8206.84282 498.251406,8206.65825 C498.433048,8206.47368 498.576601,8206.25981 498.68207,8206.01665 C498.78754,8205.77348 498.840273,8205.51128 498.840273,8205.23002 L498.840273,8198.46245 Z M512.481016,8208.14799 L511.892148,8208.14799 L509.44,8198.6646 L509.404844,8198.17241 L509.352109,8198.6646 L506.917539,8208.14799 L506.328672,8208.14799 L502.980039,8195.54448 L504.113828,8195.54448 L506.583555,8205.12456 L506.618711,8205.59038 L506.653867,8205.12456 L509.079648,8195.54448 L509.712461,8195.54448 L512.138242,8205.12456 L512.173398,8205.59038 L512.217344,8205.12456 L514.678281,8195.54448 L515.81207,8195.54448 L512.481016,8208.14799 Z M525.488945,8208.14799 L520.233086,8198.97221 L520.127617,8198.42729 L520.127617,8208.14799 L518.993828,8208.14799 L518.993828,8195.54448 L519.582695,8195.54448 L524.838555,8204.72905 L524.952812,8205.26518 L524.952812,8195.54448 L526.086601,8195.54448 L526.086601,8208.14799 L525.488945,8208.14799 Z M537.002851,8196.62553 L537.002851,8201.3101 L541.828047,8201.3101 L541.828047,8202.39116 L537.002851,8202.39116 L537.002851,8208.14799 L535.869062,8208.14799 L535.869062,8195.54448 L542.961836,8195.54448 L542.961836,8196.62553 L537.002851,8196.62553 Z M553.051797,8205.23002 C553.051797,8205.65776 552.971231,8206.05912 552.810098,8206.43413 C552.648964,8206.80913 552.427775,8207.13725 552.146523,8207.4185 C551.865272,8207.69975 551.53715,8207.92094 551.162148,8208.08208 C550.787146,8208.24321 550.385783,8208.32377 549.958047,8208.32377 L549.061562,8208.32377 C548.633826,8208.32377 548.230998,8208.24321 547.853066,8208.08208 C547.475135,8207.92094 547.145548,8207.69975 546.864297,8207.4185 C546.583045,8207.13725 546.361856,8206.80913 546.200723,8206.43413 C546.039589,8206.05912 545.959023,8205.65776 545.959023,8205.23002 L545.959023,8198.46245 C545.959023,8198.03471 546.039589,8197.63335 546.200723,8197.25835 C546.361856,8196.88334 546.583045,8196.55522 546.864297,8196.27397 C547.145548,8195.99272 547.475135,8195.77153 547.853066,8195.6104 C548.230998,8195.44926 548.633826,8195.3687 549.061562,8195.3687 L549.958047,8195.3687 C550.385783,8195.3687 550.787146,8195.44926 551.162148,8195.6104 C551.53715,8195.77153 551.865272,8195.99272 552.146523,8196.27397 C552.427775,8196.55522 552.648964,8196.88334 552.810098,8197.25835 C552.971231,8197.63335 553.051797,8198.03471 553.051797,8198.46245 L553.051797,8205.23002 Z M551.918008,8198.46245 C551.918008,8198.1812 551.865274,8197.91899 551.759805,8197.67583 C551.654335,8197.43266 551.510782,8197.22026 551.329141,8197.03862 C551.147499,8196.85698 550.935099,8196.71342 550.691934,8196.60795 C550.448768,8196.50249 550.186564,8196.44975 549.905312,8196.44975 L549.114297,8196.44975 C548.833045,8196.44975 548.570841,8196.50249 548.327676,8196.60795 C548.08451,8196.71342 547.870645,8196.85698 547.686074,8197.03862 C547.501503,8197.22026 547.356485,8197.43266 547.251016,8197.67583 C547.145546,8197.91899 547.092812,8198.1812 547.092812,8198.46245 L547.092812,8205.23002 C547.092812,8205.51128 547.145546,8205.77348 547.251016,8206.01665 C547.356485,8206.25981 547.501503,8206.47368 547.686074,8206.65825 C547.870645,8206.84282 548.08451,8206.98784 548.327676,8207.09331 C548.570841,8207.19878 548.833045,8207.25151 549.114297,8207.25151 L549.905312,8207.25151 C550.186564,8207.25151 550.448768,8207.19878 550.691934,8207.09331 C550.935099,8206.98784 551.147499,8206.84282 551.329141,8206.65825 C551.510782,8206.47368 551.654335,8206.25981 551.759805,8206.01665 C551.865274,8205.77348 551.918008,8205.51128 551.918008,8205.23002 L551.918008,8198.46245 Z M562.64957,8208.14799 L560.056797,8202.90971 L557.464023,8208.14799 L556.233555,8208.14799 L559.441562,8201.67045 L556.418125,8195.54448 L557.639805,8195.54448 L560.056797,8200.42241 L562.465,8195.54448 L563.68668,8195.54448 L560.663242,8201.67045 L563.87125,8208.14799 L562.64957,8208.14799 Z M578.399805,8205.23002 C578.399805,8205.65776 578.319239,8206.05912 578.158105,8206.43413 C577.996972,8206.80913 577.775783,8207.13725 577.494531,8207.4185 C577.21328,8207.69975 576.885158,8207.92094 576.510156,8208.08208 C576.135154,8208.24321 575.733791,8208.32377 575.306055,8208.32377 L574.945703,8208.32377 C574.517967,8208.32377 574.115139,8208.24321 573.737207,8208.08208 C573.359275,8207.92094 573.029689,8207.69975 572.748437,8207.4185 C572.467186,8207.13725 572.245997,8206.80913 572.084863,8206.43413 C571.92373,8206.05912 571.843164,8205.65776 571.843164,8205.23002 L571.843164,8204.72905 L572.976953,8204.54448 L572.976953,8205.23002 C572.976953,8205.51128 573.029687,8205.77348 573.135156,8206.01665 C573.240625,8206.25981 573.385644,8206.47368 573.570215,8206.65825 C573.754786,8206.84282 573.968651,8206.98784 574.211816,8207.09331 C574.454982,8207.19878 574.717186,8207.25151 574.998437,8207.25151 L575.25332,8207.25151 C575.528712,8207.25151 575.789452,8207.19878 576.035547,8207.09331 C576.281642,8206.98784 576.495507,8206.84282 576.677148,8206.65825 C576.85879,8206.47368 577.002343,8206.25981 577.107812,8206.01665 C577.213282,8205.77348 577.266016,8205.51128 577.266016,8205.23002 L577.266016,8195.54448 L578.399805,8195.54448 L578.399805,8205.23002 Z M589.210469,8205.23002 C589.210469,8205.65776 589.129903,8206.05912 588.968769,8206.43413 C588.807636,8206.80913 588.586447,8207.13725 588.305195,8207.4185 C588.023944,8207.69975 587.695822,8207.92094 587.32082,8208.08208 C586.945818,8208.24321 586.544455,8208.32377 586.116719,8208.32377 L585.220234,8208.32377 C584.792498,8208.32377 584.38967,8208.24321 584.011738,8208.08208 C583.633807,8207.92094 583.30422,8207.69975 583.022969,8207.4185 C582.741717,8207.13725 582.520528,8206.80913 582.359394,8206.43413 C582.198261,8206.05912 582.117695,8205.65776 582.117695,8205.23002 L582.117695,8195.54448 L583.251484,8195.54448 L583.251484,8205.23002 C583.251484,8205.51128 583.304218,8205.77348 583.409687,8206.01665 C583.515157,8206.25981 583.660175,8206.47368 583.844746,8206.65825 C584.029317,8206.84282 584.243182,8206.98784 584.486348,8207.09331 C584.729513,8207.19878 584.991717,8207.25151 585.272969,8207.25151 L586.063984,8207.25151 C586.345236,8207.25151 586.60744,8207.19878 586.850605,8207.09331 C587.093771,8206.98784 587.306171,8206.84282 587.487812,8206.65825 C587.669454,8206.47368 587.813007,8206.25981 587.918476,8206.01665 C588.023946,8205.77348 588.07668,8205.51128 588.07668,8205.23002 L588.07668,8195.54448 L589.210469,8195.54448 L589.210469,8205.23002 Z M601.058242,8208.14799 L601.058242,8199.50835 L600.979141,8200.04448 L598.052383,8208.14799 L597.454726,8208.14799 L594.501601,8200.04448 L594.431289,8199.50835 L594.431289,8208.14799 L593.2975,8208.14799 L593.2975,8195.54448 L593.886367,8195.54448 L597.709609,8205.88042 L597.744766,8206.34624 L597.779922,8205.88042 L601.594375,8195.54448 L602.192031,8195.54448 L602.192031,8208.14799 L601.058242,8208.14799 Z M613.538828,8200.21147 C613.538828,8200.63921 613.458262,8201.04057 613.297129,8201.41557 C613.135995,8201.79057 612.914806,8202.1187 612.633555,8202.39995 C612.352303,8202.6812 612.022717,8202.90239 611.644785,8203.06352 C611.266853,8203.22465 610.864025,8203.30522 610.436289,8203.30522 L607.579844,8203.30522 L607.579844,8208.14799 L606.446055,8208.14799 L606.446055,8195.54448 L610.436289,8195.54448 C610.864025,8195.54448 611.266853,8195.62504 611.644785,8195.78618 C612.022717,8195.94731 612.352303,8196.1685 612.633555,8196.44975 C612.914806,8196.731 613.135995,8197.06059 613.297129,8197.43852 C613.458262,8197.81645 613.538828,8198.21928 613.538828,8198.64702 L613.538828,8200.21147 Z M612.405039,8198.64702 C612.405039,8198.36577 612.352305,8198.10356 612.246836,8197.8604 C612.141367,8197.61723 611.996348,8197.40337 611.811777,8197.21879 C611.627206,8197.03422 611.413341,8196.88921 611.170176,8196.78374 C610.92701,8196.67827 610.664806,8196.62553 610.383555,8196.62553 L607.579844,8196.62553 L607.579844,8202.22417 L610.383555,8202.22417 C610.664806,8202.22417 610.92701,8202.17143 611.170176,8202.06596 C611.413341,8201.96049 611.627206,8201.81694 611.811777,8201.6353 C611.996348,8201.45366 612.141367,8201.24126 612.246836,8200.99809 C612.352305,8200.75493 612.405039,8200.49272 612.405039,8200.21147 L612.405039,8198.64702 Z M617.080937,8208.14799 L617.080937,8195.54448 L624.173711,8195.54448 L624.173711,8196.62553 L618.214726,8196.62553 L618.214726,8201.3101 L623.039922,8201.3101 L623.039922,8202.39116 L618.214726,8202.39116 L618.214726,8207.06694 L624.173711,8207.06694 L624.173711,8208.14799 L617.080937,8208.14799 Z M634.808594,8205.05424 C634.808594,8205.48198 634.728028,8205.88334 634.566894,8206.25835 C634.405761,8206.63335 634.184572,8206.96147 633.90332,8207.24272 C633.622069,8207.52397 633.292482,8207.74516 632.914551,8207.90629 C632.536619,8208.06743 632.133791,8208.14799 631.706055,8208.14799 L627.71582,8208.14799 L627.71582,8195.54448 L631.706055,8195.54448 C632.133791,8195.54448 632.536619,8195.62504 632.914551,8195.78618 C633.292482,8195.94731 633.622069,8196.1685 633.90332,8196.44975 C634.184572,8196.731 634.405761,8197.06059 634.566894,8197.43852 C634.728028,8197.81645 634.808594,8198.21928 634.808594,8198.64702 L634.808594,8205.05424 Z M633.674805,8198.64702 C633.674805,8198.36577 633.622071,8198.10356 633.516601,8197.8604 C633.411132,8197.61723 633.266114,8197.40337 633.081543,8197.21879 C632.896972,8197.03422 632.683107,8196.88921 632.439941,8196.78374 C632.196776,8196.67827 631.934572,8196.62553 631.65332,8196.62553 L628.849609,8196.62553 L628.849609,8207.06694 L631.65332,8207.06694 C631.934572,8207.06694 632.196776,8207.01421 632.439941,8206.90874 C632.683107,8206.80327 632.896972,8206.65971 633.081543,8206.47807 C633.266114,8206.29643 633.411132,8206.08403 633.516601,8205.84086 C633.622071,8205.5977 633.674805,8205.3355 633.674805,8205.05424 L633.674805,8198.64702 Z M651.314687,8205.23002 C651.314687,8205.65776 651.234122,8206.05912 651.072988,8206.43413 C650.911855,8206.80913 650.690665,8207.13725 650.409414,8207.4185 C650.128163,8207.69975 649.800041,8207.92094 649.425039,8208.08208 C649.050037,8208.24321 648.648674,8208.32377 648.220937,8208.32377 L647.324453,8208.32377 C646.896716,8208.32377 646.493888,8208.24321 646.115957,8208.08208 C645.738025,8207.92094 645.408439,8207.69975 645.127187,8207.4185 C644.845936,8207.13725 644.624747,8206.80913 644.463613,8206.43413 C644.30248,8206.05912 644.221914,8205.65776 644.221914,8205.23002 L644.221914,8198.46245 C644.221914,8198.03471 644.30248,8197.63335 644.463613,8197.25835 C644.624747,8196.88334 644.845936,8196.55522 645.127187,8196.27397 C645.408439,8195.99272 645.738025,8195.77153 646.115957,8195.6104 C646.493888,8195.44926 646.896716,8195.3687 647.324453,8195.3687 L648.220937,8195.3687 C648.648674,8195.3687 649.050037,8195.44926 649.425039,8195.6104 C649.800041,8195.77153 650.128163,8195.99272 650.409414,8196.27397 C650.690665,8196.55522 650.911855,8196.88334 651.072988,8197.25835 C651.234122,8197.63335 651.314687,8198.03471 651.314687,8198.46245 L651.314687,8205.23002 Z M650.180898,8198.46245 C650.180898,8198.1812 650.128164,8197.91899 650.022695,8197.67583 C649.917226,8197.43266 649.773673,8197.22026 649.592031,8197.03862 C649.41039,8196.85698 649.197989,8196.71342 648.954824,8196.60795 C648.711659,8196.50249 648.449454,8196.44975 648.168203,8196.44975 L647.377187,8196.44975 C647.095936,8196.44975 646.833732,8196.50249 646.590566,8196.60795 C646.347401,8196.71342 646.133536,8196.85698 645.948965,8197.03862 C645.764393,8197.22026 645.619375,8197.43266 645.513906,8197.67583 C645.408437,8197.91899 645.355703,8198.1812 645.355703,8198.46245 L645.355703,8205.23002 C645.355703,8205.51128 645.408437,8205.77348 645.513906,8206.01665 C645.619375,8206.25981 645.764393,8206.47368 645.948965,8206.65825 C646.133536,8206.84282 646.347401,8206.98784 646.590566,8207.09331 C646.833732,8207.19878 647.095936,8207.25151 647.377187,8207.25151 L648.168203,8207.25151 C648.449454,8207.25151 648.711659,8207.19878 648.954824,8207.09331 C649.197989,8206.98784 649.41039,8206.84282 649.592031,8206.65825 C649.773673,8206.47368 649.917226,8206.25981 650.022695,8206.01665 C650.128164,8205.77348 650.180898,8205.51128 650.180898,8205.23002 L650.180898,8198.46245 Z M658.099961,8205.37944 L658.135117,8205.84526 L658.170273,8205.37944 L660.965195,8195.54448 L662.13414,8195.54448 L658.425156,8208.14799 L657.8275,8208.14799 L654.136094,8195.54448 L655.313828,8195.54448 L658.099961,8205.37944 Z M665.131328,8208.14799 L665.131328,8195.54448 L672.224101,8195.54448 L672.224101,8196.62553 L666.265117,8196.62553 L666.265117,8201.3101 L671.090312,8201.3101 L671.090312,8202.39116 L666.265117,8202.39116 L666.265117,8207.06694 L672.224101,8207.06694 L672.224101,8208.14799 L665.131328,8208.14799 Z M681.690039,8208.14799 L678.271094,8202.76909 L676.71543,8202.76909 L676.71543,8208.14799 L675.58164,8208.14799 L675.58164,8195.54448 L679.580664,8195.54448 C680.0084,8195.54448 680.409764,8195.62504 680.784765,8195.78618 C681.159767,8195.94731 681.487889,8196.1685 681.76914,8196.44975 C682.050392,8196.731 682.271581,8197.06059 682.432715,8197.43852 C682.593848,8197.81645 682.674414,8198.21928 682.674414,8198.64702 L682.674414,8199.66655 C682.674414,8200.09428 682.593848,8200.49711 682.432715,8200.87504 C682.271581,8201.25298 682.050392,8201.58256 681.76914,8201.86381 C681.487889,8202.14507 681.159767,8202.36625 680.784765,8202.52739 C680.409764,8202.68852 680.0084,8202.76909 679.580664,8202.76909 L682.999609,8208.14799 L681.690039,8208.14799 Z M681.540625,8198.64702 C681.540625,8198.36577 681.487891,8198.10356 681.382422,8197.8604 C681.276952,8197.61723 681.133399,8197.40337 680.951758,8197.21879 C680.770116,8197.03422 680.557716,8196.88921 680.314551,8196.78374 C680.071385,8196.67827 679.809181,8196.62553 679.52793,8196.62553 L676.71543,8196.62553 L676.71543,8201.68803 L679.52793,8201.68803 C679.809181,8201.68803 680.071385,8201.6353 680.314551,8201.52983 C680.557716,8201.42436 680.770116,8201.27934 680.951758,8201.09477 C681.133399,8200.9102 681.276952,8200.69633 681.382422,8200.45317 C681.487891,8200.21 681.540625,8199.9478 681.540625,8199.66655 L681.540625,8198.64702 Z M695.119961,8196.62553 L695.119961,8208.14799 L693.986172,8208.14799 L693.986172,8196.62553 L690.980312,8196.62553 L690.980312,8195.54448 L698.12582,8195.54448 L698.12582,8196.62553 L695.119961,8196.62553 Z M707.266562,8208.14799 L707.266562,8202.39116 L702.441367,8202.39116 L702.441367,8208.14799 L701.307578,8208.14799 L701.307578,8195.54448 L702.441367,8195.54448 L702.441367,8201.3101 L707.266562,8201.3101 L707.266562,8195.54448 L708.400351,8195.54448 L708.400351,8208.14799 L707.266562,8208.14799 Z M712.663164,8208.14799 L712.663164,8195.54448 L719.755937,8195.54448 L719.755937,8196.62553 L713.796953,8196.62553 L713.796953,8201.3101 L718.622148,8201.3101 L718.622148,8202.39116 L713.796953,8202.39116 L713.796953,8207.06694 L719.755937,8207.06694 L719.755937,8208.14799 L712.663164,8208.14799 Z M728.633125,8208.14799 L728.633125,8195.54448 L729.766914,8195.54448 L729.766914,8207.06694 L734.592109,8207.06694 L734.592109,8208.14799 L728.633125,8208.14799 Z M742.502383,8205.21245 L738.512148,8205.21245 L737.685976,8208.14799 L736.508242,8208.14799 L740.199648,8195.54448 L740.797305,8195.54448 L744.506289,8208.14799 L743.337344,8208.14799 L742.502383,8205.21245 Z M738.819765,8204.13139 L742.203555,8204.13139 L740.542422,8198.32182 L740.507265,8197.856 L740.472109,8198.32182 L738.819765,8204.13139 Z M746.782773,8208.14799 L746.782773,8207.61186 L752.398984,8196.62553 L746.958555,8196.62553 L746.958555,8195.54448 L753.875547,8195.54448 L753.875547,8196.0894 L748.259336,8207.06694 L753.875547,8207.06694 L753.875547,8208.14799 L746.782773,8208.14799 Z M760.731133,8202.1187 L760.731133,8208.14799 L759.597344,8208.14799 L759.597344,8202.13627 L756.336601,8195.54448 L757.558281,8195.54448 L760.151055,8200.78276 L762.743828,8195.54448 L763.965508,8195.54448 L760.731133,8202.1187 Z M779.759687,8205.05424 C779.759687,8205.48198 779.679122,8205.88334 779.517988,8206.25835 C779.356854,8206.63335 779.135665,8206.96147 778.854414,8207.24272 C778.573162,8207.52397 778.243576,8207.74516 777.865644,8207.90629 C777.487713,8208.06743 777.084885,8208.14799 776.657148,8208.14799 L772.666914,8208.14799 L772.666914,8195.54448 L776.657148,8195.54448 C777.084885,8195.54448 777.487713,8195.62504 777.865644,8195.78618 C778.243576,8195.94731 778.573162,8196.1685 778.854414,8196.44975 C779.135665,8196.731 779.356854,8197.06059 779.517988,8197.43852 C779.679122,8197.81645 779.759687,8198.21928 779.759687,8198.64702 L779.759687,8205.05424 Z M778.625898,8198.64702 C778.625898,8198.36577 778.573164,8198.10356 778.467695,8197.8604 C778.362226,8197.61723 778.217208,8197.40337 778.032637,8197.21879 C777.848065,8197.03422 777.6342,8196.88921 777.391035,8196.78374 C777.14787,8196.67827 776.885665,8196.62553 776.604414,8196.62553 L773.800703,8196.62553 L773.800703,8207.06694 L776.604414,8207.06694 C776.885665,8207.06694 777.14787,8207.01421 777.391035,8206.90874 C777.6342,8206.80327 777.848065,8206.65971 778.032637,8206.47807 C778.217208,8206.29643 778.362226,8206.08403 778.467695,8205.84086 C778.573164,8205.5977 778.625898,8205.3355 778.625898,8205.05424 L778.625898,8198.64702 Z M790.746133,8205.23002 C790.746133,8205.65776 790.665567,8206.05912 790.504433,8206.43413 C790.3433,8206.80913 790.122111,8207.13725 789.840859,8207.4185 C789.559608,8207.69975 789.231486,8207.92094 788.856484,8208.08208 C788.481482,8208.24321 788.080119,8208.32377 787.652383,8208.32377 L786.755898,8208.32377 C786.328162,8208.32377 785.925334,8208.24321 785.547402,8208.08208 C785.169471,8207.92094 784.839884,8207.69975 784.558633,8207.4185 C784.277381,8207.13725 784.056192,8206.80913 783.895058,8206.43413 C783.733925,8206.05912 783.653359,8205.65776 783.653359,8205.23002 L783.653359,8198.46245 C783.653359,8198.03471 783.733925,8197.63335 783.895058,8197.25835 C784.056192,8196.88334 784.277381,8196.55522 784.558633,8196.27397 C784.839884,8195.99272 785.169471,8195.77153 785.547402,8195.6104 C785.925334,8195.44926 786.328162,8195.3687 786.755898,8195.3687 L787.652383,8195.3687 C788.080119,8195.3687 788.481482,8195.44926 788.856484,8195.6104 C789.231486,8195.77153 789.559608,8195.99272 789.840859,8196.27397 C790.122111,8196.55522 790.3433,8196.88334 790.504433,8197.25835 C790.665567,8197.63335 790.746133,8198.03471 790.746133,8198.46245 L790.746133,8205.23002 Z M789.612344,8198.46245 C789.612344,8198.1812 789.55961,8197.91899 789.45414,8197.67583 C789.348671,8197.43266 789.205118,8197.22026 789.023476,8197.03862 C788.841835,8196.85698 788.629435,8196.71342 788.386269,8196.60795 C788.143104,8196.50249 787.8809,8196.44975 787.599648,8196.44975 L786.808633,8196.44975 C786.527381,8196.44975 786.265177,8196.50249 786.022012,8196.60795 C785.778846,8196.71342 785.564981,8196.85698 785.38041,8197.03862 C785.195839,8197.22026 785.050821,8197.43266 784.945351,8197.67583 C784.839882,8197.91899 784.787148,8198.1812 784.787148,8198.46245 L784.787148,8205.23002 C784.787148,8205.51128 784.839882,8205.77348 784.945351,8206.01665 C785.050821,8206.25981 785.195839,8206.47368 785.38041,8206.65825 C785.564981,8206.84282 785.778846,8206.98784 786.022012,8207.09331 C786.265177,8207.19878 786.527381,8207.25151 786.808633,8207.25151 L787.599648,8207.25151 C787.8809,8207.25151 788.143104,8207.19878 788.386269,8207.09331 C788.629435,8206.98784 788.841835,8206.84282 789.023476,8206.65825 C789.205118,8206.47368 789.348671,8206.25981 789.45414,8206.01665 C789.55961,8205.77348 789.612344,8205.51128 789.612344,8205.23002 L789.612344,8198.46245 Z M801.741367,8208.14799 L801.381015,8208.14799 L800.721836,8207.13725 C800.446444,8207.50053 800.112463,8207.78911 799.719883,8208.00297 C799.327303,8208.21684 798.890783,8208.32377 798.410312,8208.32377 L797.751133,8208.32377 C797.323396,8208.32377 796.920568,8208.24321 796.542637,8208.08208 C796.164705,8207.92094 795.835118,8207.69975 795.553867,8207.4185 C795.272616,8207.13725 795.051426,8206.80913 794.890293,8206.43413 C794.729159,8206.05912 794.648594,8205.65776 794.648594,8205.23002 L794.648594,8198.46245 C794.648594,8198.03471 794.729159,8197.63335 794.890293,8197.25835 C795.051426,8196.88334 795.272616,8196.55522 795.553867,8196.27397 C795.835118,8195.99272 796.164705,8195.77153 796.542637,8195.6104 C796.920568,8195.44926 797.323396,8195.3687 797.751133,8195.3687 L798.647617,8195.3687 C799.075353,8195.3687 799.476717,8195.44926 799.851719,8195.6104 C800.22672,8195.77153 800.554842,8195.99272 800.836094,8196.27397 C801.117345,8196.55522 801.338534,8196.88334 801.499668,8197.25835 C801.660801,8197.63335 801.741367,8198.03471 801.741367,8198.46245 L801.741367,8198.97221 L800.607578,8199.14799 L800.607578,8198.46245 C800.607578,8198.1812 800.554844,8197.91899 800.449375,8197.67583 C800.343906,8197.43266 800.200352,8197.22026 800.018711,8197.03862 C799.837069,8196.85698 799.624669,8196.71342 799.381504,8196.60795 C799.138338,8196.50249 798.876134,8196.44975 798.594883,8196.44975 L797.803867,8196.44975 C797.522616,8196.44975 797.260411,8196.50249 797.017246,8196.60795 C796.774081,8196.71342 796.560216,8196.85698 796.375644,8197.03862 C796.191073,8197.22026 796.046055,8197.43266 795.940586,8197.67583 C795.835116,8197.91899 795.782383,8198.1812 795.782383,8198.46245 L795.782383,8205.23002 C795.782383,8205.51128 795.835116,8205.77348 795.940586,8206.01665 C796.046055,8206.25981 796.191073,8206.47368 796.375644,8206.65825 C796.560216,8206.84282 796.774081,8206.98784 797.017246,8207.09331 C797.260411,8207.19878 797.522616,8207.25151 797.803867,8207.25151 L798.594883,8207.25151 C798.876134,8207.25151 799.138338,8207.19878 799.381504,8207.09331 C799.624669,8206.98784 799.837069,8206.84282 800.018711,8206.65825 C800.200352,8206.47368 800.343906,8206.25981 800.449375,8206.01665 C800.554844,8205.77348 800.607578,8205.51128 800.607578,8205.23002 L800.607578,8202.6021 L798.594883,8202.6021 L798.594883,8201.52104 L801.741367,8201.52104 L801.741367,8208.14799 Z M805.643828,8208.14799 L805.643828,8206.79448 L806.997344,8206.79448 L806.997344,8208.14799 L805.643828,8208.14799 Z" id="h3"></path>
        </g>
    </g>
</svg>