<?xml version="1.0" encoding="UTF-8"?>
<svg width="337px" height="258px" viewBox="0 0 337 258" version="1.1" xmlns="http://www.w3.org/2000/svg" xmlns:xlink="http://www.w3.org/1999/xlink">
    <!-- Generator: Sketch 44 (41411) - http://www.bohemiancoding.com/sketch -->
    <title>Group</title>
    <desc>Created with Sketch.</desc>
    <defs></defs>
    <g id="Welcome" stroke="none" stroke-width="1" fill="none" fill-rule="evenodd">
        <g id="Desktop-HD-Copy-2" transform="translate(-924.000000, -1000.000000)" fill="#FFFFFF">
            <g id="Group" transform="translate(924.000000, 1000.000000)">
                <path d="M63.8828122,43.6937384 C63.8828122,47.4958408 63.1666735,51.0635134 61.7343747,54.3968634 C60.3020758,57.7302134 58.3359497,60.6468509 55.8359372,63.1468634 C53.3359247,65.6468759 50.4062664,67.6130021 47.0468747,69.0453009 C43.6874829,70.4775998 40.1067895,71.1937384 36.3046872,71.1937384 L10.9140622,71.1937384 L10.9140622,114.240613 L0.835937152,114.240613 L0.835937152,2.20936342 L36.3046872,2.20936342 C40.1067895,2.20936342 43.6874829,2.92550209 47.0468747,4.35780092 C50.4062664,5.79009975 53.3359247,7.75622592 55.8359372,10.2562384 C58.3359497,12.7562509 60.3020758,15.6859091 61.7343747,19.0453009 C63.1666735,22.4046927 63.8828122,25.9853861 63.8828122,29.7874884 L63.8828122,43.6937384 Z M53.8046872,29.7874884 C53.8046872,27.2874759 53.3359418,24.9567701 52.3984372,22.7953009 C51.4609325,20.6338318 50.1718829,18.7328091 48.5312497,17.0921759 C46.8906164,15.4515427 44.9895938,14.1624931 42.8281247,13.2249884 C40.6666555,12.2874837 38.3359497,11.8187384 35.8359372,11.8187384 L10.9140622,11.8187384 L10.9140622,61.5843634 L35.8359372,61.5843634 C38.3359497,61.5843634 40.6666555,61.1156181 42.8281247,60.1781134 C44.9895938,59.2406087 46.8906164,57.9645798 48.5312497,56.3499884 C50.1718829,54.735397 51.4609325,52.8473951 52.3984372,50.6859259 C53.3359418,48.5244568 53.8046872,46.1937509 53.8046872,43.6937384 L53.8046872,29.7874884 Z M154.581886,88.3031134 C154.581886,92.1052158 153.865747,95.6728884 152.433448,99.0062384 C151.00115,102.339588 149.035023,105.256226 146.535011,107.756238 C144.034998,110.256251 141.118361,112.222377 137.785011,113.654676 C134.451661,115.086975 130.883988,115.803113 127.081886,115.803113 L119.113136,115.803113 C115.311034,115.803113 111.73034,115.086975 108.370948,113.654676 C105.011557,112.222377 102.081898,110.256251 99.5818859,107.756238 C97.0818734,105.256226 95.1157473,102.339588 93.6834484,99.0062384 C92.2511496,95.6728884 91.5350109,92.1052158 91.5350109,88.3031134 L91.5350109,28.1468634 C91.5350109,24.3447611 92.2511496,20.7770884 93.6834484,17.4437384 C95.1157473,14.1103884 97.0818734,11.1937509 99.5818859,8.69373842 C102.081898,6.19372592 105.011557,4.22759975 108.370948,2.79530092 C111.73034,1.36300209 115.311034,0.646863423 119.113136,0.646863423 L127.081886,0.646863423 C130.883988,0.646863423 134.451661,1.36300209 137.785011,2.79530092 C141.118361,4.22759975 144.034998,6.19372592 146.535011,8.69373842 C149.035023,11.1937509 151.00115,14.1103884 152.433448,17.4437384 C153.865747,20.7770884 154.581886,24.3447611 154.581886,28.1468634 L154.581886,88.3031134 Z M144.503761,28.1468634 C144.503761,25.6468509 144.035016,23.3161451 143.097511,21.1546759 C142.160006,18.9932068 140.883977,17.1052048 139.269386,15.4906134 C137.654795,13.876022 135.766793,12.5999931 133.605323,11.6624884 C131.443854,10.7249837 129.113148,10.2562384 126.613136,10.2562384 L119.581886,10.2562384 C117.081873,10.2562384 114.751168,10.7249837 112.589698,11.6624884 C110.428229,12.5999931 108.527207,13.876022 106.886573,15.4906134 C105.24594,17.1052048 103.956891,18.9932068 103.019386,21.1546759 C102.081881,23.3161451 101.613136,25.6468509 101.613136,28.1468634 L101.613136,88.3031134 C101.613136,90.8031259 102.081881,93.1338318 103.019386,95.2953009 C103.956891,97.4567701 105.24594,99.3577927 106.886573,100.998426 C108.527207,102.639059 110.428229,103.928109 112.589698,104.865613 C114.751168,105.803118 117.081873,106.271863 119.581886,106.271863 L126.613136,106.271863 C129.113148,106.271863 131.443854,105.803118 133.605323,104.865613 C135.766793,103.928109 137.654795,102.639059 139.269386,100.998426 C140.883977,99.3577927 142.160006,97.4567701 143.097511,95.2953009 C144.035016,93.1338318 144.503761,90.8031259 144.503761,88.3031134 L144.503761,28.1468634 Z M241.37471,114.240613 L210.984085,66.4281134 L197.15596,66.4281134 L197.15596,114.240613 L187.077835,114.240613 L187.077835,2.20936342 L222.62471,2.20936342 C226.426812,2.20936342 229.994485,2.92550209 233.327835,4.35780092 C236.661185,5.79009975 239.577822,7.75622592 242.077835,10.2562384 C244.577847,12.7562509 246.543973,15.6859091 247.976272,19.0453009 C249.408571,22.4046927 250.12471,25.9853861 250.12471,29.7874884 L250.12471,38.8499884 C250.12471,42.6520908 249.408571,46.2327841 247.976272,49.5921759 C246.543973,52.9515677 244.577847,55.8812259 242.077835,58.3812384 C239.577822,60.8812509 236.661185,62.8473771 233.327835,64.2796759 C229.994485,65.7119748 226.426812,66.4281134 222.62471,66.4281134 L253.015335,114.240613 L241.37471,114.240613 Z M240.046585,29.7874884 C240.046585,27.2874759 239.577839,24.9567701 238.640335,22.7953009 C237.70283,20.6338318 236.426801,18.7328091 234.81221,17.0921759 C233.197618,15.4515427 231.309616,14.1624931 229.148147,13.2249884 C226.986678,12.2874837 224.655972,11.8187384 222.15596,11.8187384 L197.15596,11.8187384 L197.15596,56.8187384 L222.15596,56.8187384 C224.655972,56.8187384 226.986678,56.3499931 229.148147,55.4124884 C231.309616,54.4749837 233.197618,53.1859341 234.81221,51.5453009 C236.426801,49.9046677 237.70283,48.0036451 238.640335,45.8421759 C239.577839,43.6807068 240.046585,41.3500009 240.046585,38.8499884 L240.046585,29.7874884 Z M309.495659,11.8187384 L309.495659,114.240613 L299.417534,114.240613 L299.417534,11.8187384 L272.698784,11.8187384 L272.698784,2.20936342 L336.214409,2.20936342 L336.214409,11.8187384 L309.495659,11.8187384 Z" id="Port"></path>
                <path d="M10.0565473,165.353093 L10.0565473,202.309148 L48.121977,202.309148 L48.121977,210.837468 L10.0565473,210.837468 L10.0565473,256.252507 L1.11221136,256.252507 L1.11221136,156.824773 L57.0663129,156.824773 L57.0663129,165.353093 L10.0565473,165.353093 Z M134.718969,233.232976 C134.718969,236.607342 134.083395,239.773651 132.81223,242.732 C131.541065,245.690348 129.796128,248.278864 127.577367,250.497625 C125.358606,252.716386 122.77009,254.461323 119.811742,255.732488 C116.853394,257.003653 113.687084,257.639226 110.312719,257.639226 L103.240453,257.639226 C99.8660871,257.639226 96.6882217,257.003653 93.7067615,255.732488 C90.7253013,254.461323 88.1252296,252.716386 85.9064685,250.497625 C83.6877074,248.278864 81.9427704,245.690348 80.6716052,242.732 C79.40044,239.773651 78.764867,236.607342 78.764867,233.232976 L78.764867,179.844304 C78.764867,176.469938 79.40044,173.303629 80.6716052,170.345281 C81.9427704,167.386933 83.6877074,164.798417 85.9064685,162.579656 C88.1252296,160.360895 90.7253013,158.615958 93.7067615,157.344793 C96.6882217,156.073627 99.8660871,155.438054 103.240453,155.438054 L110.312719,155.438054 C113.687084,155.438054 116.853394,156.073627 119.811742,157.344793 C122.77009,158.615958 125.358606,160.360895 127.577367,162.579656 C129.796128,164.798417 131.541065,167.386933 132.81223,170.345281 C134.083395,173.303629 134.718969,176.469938 134.718969,179.844304 L134.718969,233.232976 Z M125.774633,179.844304 C125.774633,177.625543 125.358621,175.557042 124.526586,173.638738 C123.69455,171.720434 122.562075,170.044832 121.129125,168.611882 C119.696175,167.178933 118.020573,166.046457 116.102269,165.214421 C114.183965,164.382386 112.115464,163.966375 109.896703,163.966375 L103.656469,163.966375 C101.437707,163.966375 99.369206,164.382386 97.4509021,165.214421 C95.5325983,166.046457 93.8454406,167.178933 92.3893787,168.611882 C90.9333167,170.044832 89.7892852,171.720434 88.9572498,173.638738 C88.1252144,175.557042 87.7092029,177.625543 87.7092029,179.844304 L87.7092029,233.232976 C87.7092029,235.451737 88.1252144,237.520239 88.9572498,239.438543 C89.7892852,241.356846 90.9333167,243.044004 92.3893787,244.500066 C93.8454406,245.956128 95.5325983,247.10016 97.4509021,247.932195 C99.369206,248.76423 101.437707,249.180242 103.656469,249.180242 L109.896703,249.180242 C112.115464,249.180242 114.183965,248.76423 116.102269,247.932195 C118.020573,247.10016 119.696175,245.956128 121.129125,244.500066 C122.562075,243.044004 123.69455,241.356846 124.526586,239.438543 C125.358621,237.520239 125.774633,235.451737 125.774633,233.232976 L125.774633,179.844304 Z M163.559124,256.252507 L163.559124,156.824773 L172.50346,156.824773 L172.50346,247.724187 L210.56889,247.724187 L210.56889,256.252507 L163.559124,256.252507 Z M233.723498,256.252507 L233.723498,156.824773 L242.667834,156.824773 L242.667834,256.252507 L233.723498,256.252507 Z M328.84881,233.232976 C328.84881,236.607342 328.213237,239.773651 326.942072,242.732 C325.670907,245.690348 323.92597,248.278864 321.707209,250.497625 C319.488448,252.716386 316.899932,254.461323 313.941584,255.732488 C310.983236,257.003653 307.816926,257.639226 304.44256,257.639226 L297.370295,257.639226 C293.995929,257.639226 290.818064,257.003653 287.836603,255.732488 C284.855143,254.461323 282.255071,252.716386 280.03631,250.497625 C277.817549,248.278864 276.072612,245.690348 274.801447,242.732 C273.530282,239.773651 272.894709,236.607342 272.894709,233.232976 L272.894709,179.844304 C272.894709,176.469938 273.530282,173.303629 274.801447,170.345281 C276.072612,167.386933 277.817549,164.798417 280.03631,162.579656 C282.255071,160.360895 284.855143,158.615958 287.836603,157.344793 C290.818064,156.073627 293.995929,155.438054 297.370295,155.438054 L304.44256,155.438054 C307.816926,155.438054 310.983236,156.073627 313.941584,157.344793 C316.899932,158.615958 319.488448,160.360895 321.707209,162.579656 C323.92597,164.798417 325.670907,167.386933 326.942072,170.345281 C328.213237,173.303629 328.84881,176.469938 328.84881,179.844304 L328.84881,233.232976 Z M319.904474,179.844304 C319.904474,177.625543 319.488463,175.557042 318.656428,173.638738 C317.824392,171.720434 316.691916,170.044832 315.258967,168.611882 C313.826017,167.178933 312.150415,166.046457 310.232111,165.214421 C308.313807,164.382386 306.245306,163.966375 304.026545,163.966375 L297.78631,163.966375 C295.567549,163.966375 293.499048,164.382386 291.580744,165.214421 C289.66244,166.046457 287.975282,167.178933 286.51922,168.611882 C285.063159,170.044832 283.919127,171.720434 283.087092,173.638738 C282.255056,175.557042 281.839045,177.625543 281.839045,179.844304 L281.839045,233.232976 C281.839045,235.451737 282.255056,237.520239 283.087092,239.438543 C283.919127,241.356846 285.063159,243.044004 286.51922,244.500066 C287.975282,245.956128 289.66244,247.10016 291.580744,247.932195 C293.499048,248.76423 295.567549,249.180242 297.78631,249.180242 L304.026545,249.180242 C306.245306,249.180242 308.313807,248.76423 310.232111,247.932195 C312.150415,247.10016 313.826017,245.956128 315.258967,244.500066 C316.691916,243.044004 317.824392,241.356846 318.656428,239.438543 C319.488463,237.520239 319.904474,235.451737 319.904474,233.232976 L319.904474,179.844304 Z" id="folio"></path>
            </g>
        </g>
    </g>
</svg>